<?xml version="1.0" encoding="utf-8"?>
<!-- Generator: Adobe Illustrator 16.0.0, SVG Export Plug-In . SVG Version: 6.00 Build 0)  -->
<!DOCTYPE svg PUBLIC "-//W3C//DTD SVG 1.1//EN" "http://www.w3.org/Graphics/SVG/1.1/DTD/svg11.dtd">
<svg version="1.1"
	 id="svg2" xmlns:rdf="http://www.w3.org/1999/02/22-rdf-syntax-ns#" xmlns:dc="http://purl.org/dc/elements/1.1/" xmlns:inkscape="http://www.inkscape.org/namespaces/inkscape" xmlns:cc="http://creativecommons.org/ns#" xmlns:svg="http://www.w3.org/2000/svg" xmlns:sodipodi="http://sodipodi.sourceforge.net/DTD/sodipodi-0.dtd" inkscape:version="0.48.2 r9819" sodipodi:docname="blank.svg"
	 xmlns="http://www.w3.org/2000/svg" xmlns:xlink="http://www.w3.org/1999/xlink" x="0px" y="0px" width="358.5px" height="227px"
	 viewBox="-258.5 -134.5 358.5 227" enable-background="new -258.5 -134.5 358.5 227" xml:space="preserve">
<sodipodi:namedview  id="namedview6" bordercolor="#666666" showgrid="true" inkscape:zoom="4.1944516" inkscape:cx="66.419603" inkscape:cy="59.30568" pagecolor="#ffffff" guidetolerance="10" gridtolerance="10" objecttolerance="10" borderopacity="1" inkscape:pageshadow="2" inkscape:window-width="1600" inkscape:window-height="853" inkscape:pageopacity="0" inkscape:window-x="-4" inkscape:snap-grids="false" inkscape:window-maximized="1" inkscape:current-layer="svg2" inkscape:window-y="-4">
	<inkscape:grid  id="grid3807" type="xygrid"></inkscape:grid>
</sodipodi:namedview>
<g id="g4706" transform="matrix(0.12497799,0,0,0.12497799,-22.647126,6.5738373)">
	<path id="path4602" inkscape:connector-curvature="0" fill="#8E795A" stroke="#8E795A" stroke-width="0.0938" d="M-494.891-887.184
		c12.014-6.263,25.856-8.353,37.596-14.882c9.404,6.009,20.113,7.314,30.302,2.614c3.129,10.182,9.131,22.453,1.825,32.115
		c-5.743,7.052-6.005,16.194-6.529,24.809c5.747-1.043,11.225-1.828,16.706-2.61c1.309,14.62-0.52,29.505-4.7,43.609
		c-6.782,11.221-15.401,21.93-16.186,35.772c6.009,1.567,12.276,3.133,18.273,4.7c-0.781,17.499-2.868,34.99-0.52,52.49
		c1.043,6.521-4.173,11.744-7.044,16.968c5.216,1.567,10.701,3.133,16.186,4.7c-5.747,8.095-11.49,16.194-17.23,24.289
		c-26.641,3.133-53.533,2.61-80.17,3.657c0.258-17.495,8.615-33.17,13.057-49.614c5.224,3.919,10.447,8.087,15.409,12.526
		c4.177-2.348,8.619-4.7,12.787-7.04c-14.358-4.962-27.677-13.061-42.3-17.761c1.305-16.714,16.452-20.113,29.775-19.066
		c-5.224-7.044-10.447-13.834-16.194-20.625c-8.88,13.842-18.019,27.415-26.11,41.781c-3.653,7.833-14.1,8.88-20.89,12.014
		c-2.356-12.276-5.224-24.813-5.747-37.339c-4.704-3.918-11.752-6.794-13.323-13.584c-2.864-14.885-5.997-30.037-5.997-45.438
		c0.781-8.095,10.697-13.577,18.015-9.138c21.938,10.709,31.338,35.51,51.181,49.091c-4.438-8.615-10.967-16.19-12.799-25.856
		c14.889-9.131,29.775-20.886,34.998-38.386c-9.924,6.794-19.066,14.889-29.513,20.636c-8.357,1.828-16.968,2.086-25.063,1.043
		c-8.884-6.529-18.542-14.628-20.113-25.856C-531.19-850.361-510.303-866.294-494.891-887.184L-494.891-887.184z"/>
	<path id="path4604" inkscape:connector-curvature="0" fill="#8E795A" stroke="#8E795A" stroke-width="0.0938" d="M-587.329-778.552
		c3.653,3.391,7.572,7.048,11.229,10.447c-2.352,0.52-7.052,1.043-9.662,1.305C-586.286-770.719-586.809-774.637-587.329-778.552z"
		/>
	<path id="path4606" inkscape:connector-curvature="0" fill="#8E795A" stroke="#8E795A" stroke-width="0.0938" d="M-631.723-763.928
		c30.287,3.395,61.632,34.205,51.443,65.539c-13.842-7.829-26.368-18.011-42.039-22.191
		C-622.843-735.732-633.548-748.258-631.723-763.928z"/>
	<path id="path4608" inkscape:connector-curvature="0" fill="#8E795A" stroke="#8E795A" stroke-width="0.0938" d="M-679.509-740.955
		c7.837-1.043,15.671-1.817,23.508-2.86c0,4.954,0,14.612,0,19.578c-8.099-1.567-15.932-3.395-23.77-5.485
		C-679.509-733.376-679.509-737.037-679.509-740.955z"/>
	<path id="path4610" inkscape:connector-curvature="0" fill="#8E795A" stroke="#8E795A" stroke-width="0.0938" d="M-569.83-732.857
		c6.267,0.524,12.526,2.61,18.531,4.438c-1.305,12.799-9.142,23.504-21.406,27.153C-572.185-711.704-571.138-722.409-569.83-732.857
		z"/>
	<path id="path4612" inkscape:connector-curvature="0" fill="#8E795A" stroke="#8E795A" stroke-width="0.0938" d="M-728.604-707.524
		c10.451,1.043,19.589-4.962,29.255-7.833c-4.966,13.057-9.404,30.81-23.77,36.553c-21.156,1.047-39.429,14.628-60.847,13.061
		c0-4.962,0.262-14.628,0.262-19.589c9.404-6.267,18.546-13.319,28.208-18.792C-747.396-709.09-737.484-707-728.604-707.524z"/>
	<path id="path4614" inkscape:connector-curvature="0" fill="#8E795A" stroke="#8E795A" stroke-width="0.0938" d="M-689.956-710.134
		c11.232-2.352,22.461-3.919,33.693-4.7c-2.352,5.224-4.18,10.967-8.623,15.139c-8.091,3.653-16.976,0.524-25.071-0.785
		C-689.956-703.082-689.956-707.786-689.956-710.134z"/>
	<path id="path4616" inkscape:connector-curvature="0" fill="#8E795A" stroke="#8E795A" stroke-width="0.0938" d="M-628.852-686.376
		c-3.391-5.747-4.438-12.537-3.129-19.058C-630.676-699.171-629.371-692.904-628.852-686.376z"/>
	<path id="path4618" inkscape:connector-curvature="0" fill="#8E795A" stroke="#8E795A" stroke-width="0.0938" d="M-554.171-703.343
		c9.662-1.043,18.546,1.817,23.77,10.177c-8.099,0-15.671,0-23.77,0C-554.171-695.78-554.171-701.003-554.171-703.343z"/>
	<path id="path4620" inkscape:connector-curvature="0" fill="#8E795A" stroke="#8E795A" stroke-width="0.0938" d="M-697.27-688.466
		c4.962-1.567,6.532,6.79,1.571,7.837C-700.653-679.066-702.224-687.419-697.27-688.466z"/>
	<path id="path4622" inkscape:connector-curvature="0" fill="#8E795A" stroke="#8E795A" stroke-width="0.0938" d="M-681.076-673.057
		c6.267-6.267,12.533-12.537,19.589-18.019c3.391,12.533,4.958,25.333,7.052,37.866c5.735-1.567,11.221-3.133,16.968-4.696
		c3.129,16.444,5.224,42.039-15.932,47c-17.491-0.52-33.686,5.216-50.13,10.439c-7.314,2.086-13.319-4.442-19.328-8.095
		c1.828-2.864,3.399-5.739,5.224-8.611c8.095-2.614,16.194-5.224,24.282-8.361c-10.178-2.086-20.363-2.61-30.025,1.047
		c-14.108,8.095-24.809-9.142-29.243-19.851c-4.18-12.526,7.302-18.792,14.874-25.063c-2.348,7.314-4.958,14.624-7.048,22.191
		c13.319-6.782,21.156-23.496,36.299-25.325c15.143,8.357,22.453,27.677,39.952,33.158
		C-671.414-651.116-676.114-662.086-681.076-673.057z"/>
	<path id="path4624" inkscape:connector-curvature="0" fill="#8E795A" stroke="#8E795A" stroke-width="0.0938" d="M-568.525-679.847
		c22.191-0.524,43.344,7.575,62.925,16.456c-1.828,6.005-3.919,11.752-6.267,17.749c14.624,2.61,30.818,10.189,45.434,2.348
		c7.052-3.391,13.842-9.65,22.203-7.04c13.057,2.344,33.682,7.04,30.806,24.02c-7.048,10.967-19.578,16.968-29.763,25.067
		c-23.766,11.752-47.79-5.747-72.071-6.528c-8.877-10.182-9.138-26.372-16.714-37.604c-7.572-6.259-19.585-4.692-24.551-14.62
		C-561.734-665.743-565.395-672.795-568.525-679.847z"/>
	<path id="path4626" inkscape:connector-curvature="0" fill="#8E795A" stroke="#8E795A" stroke-width="0.0938" d="M-623.366-669.92
		c2.614-3.399,8.361,0.781,5.747,4.177C-620.229-662.348-625.976-666.528-623.366-669.92z"/>
	<path id="path4628" inkscape:connector-curvature="0" fill="#8E795A" stroke="#8E795A" stroke-width="0.0938" d="M-588.899-669.658
		c6.794,3.129,19.589,2.348,22.723,11.49c4.18,14.616,1.567,33.682-12.537,41.777c-16.194,9.658-19.062-6.79-19.324-17.237
		c-7.314,1.305-13.577-2.086-17.753-8.095c4.438,0.262,8.88,0.524,13.049,1.043C-598.299-650.596-593.599-660-588.899-669.658z"/>
	<path id="path4630" inkscape:connector-curvature="0" fill="#8E795A" stroke="#8E795A" stroke-width="0.0938" d="M-623.628-659.476
		c4.442,2.09,8.884,3.919,13.061,5.747c-3.657,1.828-7.314,3.657-10.967,5.473C-622.319-651.901-622.843-655.819-623.628-659.476z"
		/>
	<path id="path4632" inkscape:connector-curvature="0" fill="#8E795A" stroke="#8E795A" stroke-width="0.0938" d="M-550.252-605.951
		c-14.882-7.04,0-34.987,14.104-25.067c7.314,5.747,8.877,16.194,12.537,24.285C-531.971-602.556-542.418-597.856-550.252-605.951z"
		/>
	<path id="path4634" inkscape:connector-curvature="0" fill="#8E795A" stroke="#8E795A" stroke-width="0.0938" d="M-814.251-619.786
		c8.88-5.224,21.156-14.624,31.595-7.314c12.276,8.361,24.028,17.237,37.339,23.496c9.142,5.223,6.79,16.979,3.395,25.336
		c15.932,7.575,31.865,16.452,39.698,32.9c6.263-2.61,12.53-5.224,18.796-7.837c2.872,3.923,5.485,7.837,8.357,11.756
		c0.262-4.966,0.523-14.885,0.523-19.839c7.314-4.704,13.581-10.709,21.668-14.108c6.79-0.262,12.799,3.657,18.804,6.009
		c-10.967,24.805-15.147,53.263-6.005,79.381c7.837,16.714,24.289,26.11,36.034,39.429c4.442,4.442-0.262,10.447-1.828,15.147
		c-5.216,10.447-11.744,25.586-26.63,20.886c-11.49-0.262-20.375-8.619-31.076-10.963c-23.766,4.434-46.739,16.706-71.29,14.358
		c-10.185-0.262-13.834-11.229-18.796-18.273c-8.88-14.889-22.719-25.86-34.475-38.647c21.938-2.614,43.867-4.7,65.808-7.837
		c-19.328-20.109-54.052,0.266-70.239-24.547c2.078-4.7,5.216-8.619,8.345-12.537c-4.173-10.177-7.822-20.363-10.959-30.81
		c14.358-8.881,28.2-18.796,40.472-30.81c-19.062,6.005-37.596,16.452-49.349,33.162c-7.579,10.186-21.16,12.014-31.869,16.976
		c-7.302-13.057-14.092-26.38-17.749-40.996c12.276-10.189,28.2-15.932,39.167-27.427
		C-814.513-599.685-814.513-612.992-814.251-619.786z"/>
	<path id="path4636" inkscape:connector-curvature="0" fill="#8E795A" stroke="#8E795A" stroke-width="0.0938" d="M-631.2-623.701
		c5.485-0.785,10.971-1.571,16.714-2.094c-3.395,6.528-6.528,12.803-10.967,18.8C-627.543-612.472-629.371-618.215-631.2-623.701z"
		/>
	<path id="path4638" inkscape:connector-curvature="0" fill="#8E795A" stroke="#8E795A" stroke-width="0.0938" d="M-402.191-594.719
		c7.06-0.523,21.422-1.832,28.458-2.356c4.18,6.798,8.619,13.584,12.276,20.898c-11.752,4.18-31.064,14.362-39.429,0.52
		C-404.539-581.4-402.452-588.452-402.191-594.719z"/>
	<path id="path4640" inkscape:connector-curvature="0" fill="#8E795A" stroke="#8E795A" stroke-width="0.0938" d="M-550.252-580.88
		c10.447-1.563,21.156-3.391,31.603-4.962c5.735,3.399,11.483,6.794,17.23,10.186c-1.571,16.718-1.047,35.772-19.32,43.351
		c-0.523,6.267-1.305,12.533-2.09,19.054C-549.47-523.691-550.775-556.333-550.252-580.88z"/>
	<path id="path4642" inkscape:connector-curvature="0" fill="#8E795A" stroke="#8E795A" stroke-width="0.0938" d="M-438.224-572.781
		c4.438-6.794,11.494-10.967,17.753-15.933c7.31,7.052,15.143,14.624,19.585,24.29c1.567,9.658,2.614,19.843,6.017,29.243
		c17.757-9.924,33.15-23.496,51.435-32.381c6.005,6.794,11.49,13.838,16.956,21.148c7.056-0.258,14.628-2.868,21.941-1.563
		c9.142,3.133,15.409,12.272,25.071,14.362c19.07,3.919,38.655,7.052,57.459,12.28c-4.962,3.129-9.662,6.517-14.362,9.65
		c6.529,7.056,12.014,15.151,18.542,22.199c14.628,6.79,30.279,14.627,46.993,12.276c14.889-2.348,25.86,10.185,38.897,15.143
		c4.442-6.782,8.623-13.311,12.803-20.105c5.481,4.18,10.705,8.619,15.667,13.061c-3.915,5.478-8.357,10.701-12.537,16.186
		c6.271,5.22,12.537,10.443,18.804,15.667c-3.391,2.614-6.79,5.223-9.92,7.575c2.61,5.481,5.224,10.963,8.095,16.187
		c-10.709-1.047-21.156-2.875-31.341-5.485c0.262-7.568,0.523-14.882,0.262-22.191c-7.314,2.872-14.35,7.572-22.184,9.138
		c-7.837-0.262-15.409-3.918-22.984-5.485c3.395,10.447,4.962,21.148,3.133,31.857c23.766,22.199,56.135,30.037,84.605,44.129
		c-1.567,3.133-3.133,6.271-4.7,9.404c7.31,4.438,14.889,8.357,22.199,13.057c-26.118,0.785-53.017-6.271-78.858,2.09
		c14.87,8.869,32.369,12.006,48.301,18.273c8.357,6.271,15.405,14.104,22.723,21.68c-30.56-4.442-62.683-2.614-91.919-13.584
		c-19.066-9.92-39.421-17.761-60.835-21.406c-16.456,1.559-28.47,14.878-43.097,21.668c-2.09-4.438-6.529-13.319-8.619-17.495
		c12.276-14.358,26.903-27.153,42.57-37.6c-6.79-16.186-4.962-33.686,2.875-49.356c0.524-17.23-16.714-30.025-30.294-37.862
		c-23.246-12.53-47.797-23.758-73.376-30.286c-28.466,1.567-55.611,17.233-84.605,11.229c-17.495-5.485-39.437-4.7-49.614-22.723
		c4.962-1.828,10.178-3.391,15.139-5.223c-7.833-5.224-19.054-8.877-21.406-19.054c-3.919-15.151-3.919-32.127,3.395-46.219
		c7.052-7.052,16.706-10.971,25.325-15.937c-2.09,11.494-5.747,22.465-5.224,33.948c4.7,14.104,10.447,28.208,15.671,42.039
		c8.095,4.962,15.671,1.571,18.281-6.267c-0.781-11.225-14.1-16.71-15.409-27.677C-439.795-550.328-440.053-561.553-438.224-572.781
		z"/>
	<path id="path4644" inkscape:connector-curvature="0" fill="#8E795A" stroke="#8E795A" stroke-width="0.0938" d="M-607.953-561.815
		c12.002-14.624,31.33-14.362,48.036-10.967c6.271,8.095-0.262,17.491-4.954,24.543c7.306,8.095,24.543,18.542,15.401,31.337
		c-6.267,7.306-10.182,24.543-22.453,21.148c-19.062-13.58-40.21-29.501-44.391-54.314c5.747,0.524,11.748,1.305,17.491,2.09
		C-601.956-552.68-604.828-557.372-607.953-561.815z"/>
	<path id="path4646" inkscape:connector-curvature="0" fill="#8E795A" stroke="#8E795A" stroke-width="0.0938" d="
		M-1049.789-565.729c15.671,12.006,29.767,25.325,45.438,37.6c8.095,6.794,18.281,1.047,26.637-2.352
		c14.62,9.666,32.639,8.357,49.606,9.666c-5.216,5.216-10.178,10.963-14.354,16.968c15.397-2.875,31.072-5.485,45.696-11.752
		c3.133,11.752,6.009,23.242,10.447,34.475c5.216-2.614,10.439-5.224,15.663-8.099c0.52,3.137,1.305,6.271,2.09,9.404
		c26.899,2.61,45.696,24.54,66.328,39.171c9.666,7.833,22.977,7.833,32.381,16.19c-2.875,6.782-9.142,10.963-14.628,15.659
		c8.619,9.927,16.19,22.723,29.771,26.384c12.533,0.781,24.805-1.309,37.343-0.523c9.927,3.133,18.534,8.876,26.895,14.354
		c7.31-8.607,12.533-21.93,25.071-24.02c10.447-5.485,18.792,2.09,27.415,6.009c19.066,6.79,36.034,24.54,57.971,17.488
		c14.624,0.785,16.979-15.925,23.496-25.844c-7.302-4.442-14.878-8.623-22.453-12.799c3.399-10.185,7.576-20.101,13.061-29.243
		c10.178,8.099,19.582,17.229,29.505,25.586c-6.271,6.009-13.842,11.494-16.714,19.847c2.872,6.009,7.572,11.232,12.014,16.456
		c12.014-10.447,23.242-21.937,32.115-35.26c-9.916-6.529-16.186-16.968-13.835-29.763c-7.31-4.7-16.456-8.361-20.113-16.976
		c-2.872-16.968,3.657-32.9,10.189-48.313c1.825,0,5.224-0.258,7.048-0.258c19.582,30.037,27.677,65.809,49.618,94.267
		c3.395-0.262,6.79-0.262,10.439-0.52c2.61-5.747,5.485-11.494,8.353-17.23c6.794,13.049,8.099,27.939,13.327,41.515
		c5.481,9.928,13.577,18.015,21.672,25.852c2.082-3.399,4.434-6.532,6.001-10.177c4.962-27.946,8.095-56.928,3.657-85.136
		c15.671,0.52,32.131,0,46.219,7.833c1.043,10.185,1.828,20.113,4.18,30.025c6.267,12.541,20.367,23.77,14.624,39.44
		c-3.395,10.959-6.271,26.372-20.109,27.677c-13.827,5.224-28.45,5.224-42.824,7.572c9.138,24.024-4.7,47.266-13.053,69.2
		c-3.129,6.528-11.229,7.833-16.976,11.49c-4.962,12.795-2.348,31.068-15.667,38.901c-21.934,15.413-25.59,44.649-36.819,67.367
		c-9.142,25.86-15.413,57.201-2.09,82.792c9.924-0.781,19.585-2.086,29.243-1.825c8.615,14.889,7.052,33.674,12.276,50.13
		c18.019,0.258,38.124-14.104,55.1-2.61c11.498,7.048,26.106,8.353,36.034,18.281c21.937,19.832,53.002,30.017,82.253,24.793
		c10.709-1.043,21.156-1.567,31.865-1.043c-2.875,12.272-8.884,26.38-1.832,38.651c9.666,16.19,11.232,41.789,31.603,49.102
		c13.581,2.086,22.723,11.752,27.427,24.028c13.299,1.305,29.755-4.704,32.627-19.066c0.266-12.795,3.919-27.685-4.958-38.393
		c-12.276-18.023-21.418-37.608-35.768-53.802c10.689-16.96,22.445-33.15,33.936-49.606c7.056-9.924,6.009-23.489,0.262-33.674
		c-9.662-18.023-21.676-34.998-33.674-51.454c-11.232-2.872-33.428-1.305-33.17-18.281c5.485-8.877,15.147-14.885,19.589-24.29
		c1.043-7.052-5.224-11.752-9.142-16.452c-8.619-8.08-13.319-19.57-15.409-31.064c-2.614-12.795-9.924-23.766-13.584-36.295
		c15.932-1.567,32.912-1.043,47.278-8.619c8.615-5.224,16.96,2.09,25.313,4.18c21.418,4.177,43.082,6.009,65.019,6.009
		c8.357,15.135,16.452,30.544,23.766,45.957c4.177,7.833-1.305,16.437-2.614,24.27c5.224,2.09,10.189,3.919,15.413,5.747
		c2.348-5.485,4.7-11.232,6.79-16.96c12.533,0.262,25.071,1.305,37.608,2.075c3.657-16.179,15.932-32.892,8.619-49.606
		c-3.137-9.134-4.442-18.538-6.005-27.938c17.237,13.057,37.331,22.461,50.388,40.21c3.657-1.305,7.314-2.872,11.232-4.177
		c2.086,4.7,3.915,9.404,6.267,14.104c24.793-1.047,34.459,28.974,55.615,36.546c13.057,5.224,25.333,12.014,38.913,15.671
		c16.714,0,33.17-5.485,48.825-10.967c7.572,7.048,14.885,13.838,22.199,20.894c12.534,1.567,28.712-3.657,37.593,8.095
		c8.095,9.924,24.028,19.324,19.847,34.213c-3.13,13.842-7.048,29.251-20.109,37.608c-18.265,9.928-13.323,33.674-21.398,49.868
		c-11.232,14.104-28.47,20.879-45.692,25.321c-27.423,15.667-59.807,21.937-84.359,43.09c1.567,10.189,3.395,20.375,5.224,30.298
		c-14.104,11.229-28.47,24.286-33.17,42.574c-4.438,20.089-6.79,40.464-10.447,60.573c-7.314,15.393-19.832,27.141-29.236,40.992
		c-10.185,15.143-14.362,33.424-25.333,47.79c-15.655,22.203-31.845,44.406-51.954,62.675c-13.065,7.833-28.47,10.443-42.316,15.925
		c-8.095,3.919-11.49,13.061-15.405,20.64c7.833,2.063,15.667,3.899,23.766,5.204c-27.946,11.221-56.416,22.199-79.381,42.304
		c-3.657-14.362,4.442-26.372,10.709-38.382c-0.262-14.885-0.52-29.767,2.348-44.387c11.475-1.305,25.059,2.61,35.245-4.45
		c-5.747-20.347-26.38-34.197-46.473-37.85c-3.653,8.095-7.314,15.929-11.494,23.762c-18.785-3.387-38.636-3.919-56.658-10.178
		c-9.4-17.499-13.057-37.354-19.062-56.158c-6.79,1.571-13.319,3.661-20.113,3.661c-8.357-6.005-11.49-19.07-22.719-20.636
		c-10.971-1.563-21.941-0.781-32.65,0c-14.608,7.576-22.703,22.723-32.631,34.998c-20.093-1.828-40.734-8.88-60.581-2.61
		c-22.191,1.563-42.043-13.323-63.976-14.631c-59.276-4.958-118.552,5.489-177.562-0.258
		c-78.865-6.786-157.985-13.323-236.323-25.59c-53.271-10.713-105.757-25.598-157.989-40.206
		c-7.31-3.137-18.273-3.137-22.453-10.971c-5.481-10.447-10.701-20.894-16.71-30.818c-7.056-11.479-7.576-25.059-10.447-37.854
		c-5.224,0-10.447,0.262-15.663,0.524c-8.623-13.584-19.585-26.122-25.856-41.265c-3.133-13.061,7.833-23.77,6.528-36.831
		c-1.567-18.281-3.919-36.807-12.537-53.001c-9.924-13.577,3.133-26.622,8.619-38.897c-2.086-3.395-4.181-6.79-6.267-10.185
		c7.572-6.267,16.976-13.842,13.057-25.594c-3.391-39.96-2.872-80.182-7.572-119.865c-7.837-16.444-27.415-21.406-43.609-25.321
		c-9.662-25.598-13.319-53.537-29.767-76.26c-3.919-5.223-4.962-12.006-0.52-17.229
		C-1164.688-415.328-1109.854-492.615-1049.789-565.729L-1049.789-565.729z"/>
	<path id="path4648" inkscape:connector-curvature="0" fill="#8E795A" stroke="#8E795A" stroke-width="0.0938" d="M-452.067-558.416
		c2.352,4.692,4.7,9.654,7.052,14.616c-1.571,0-4.7,0.523-6.532,0.523C-451.809-548.238-451.809-553.462-452.067-558.416z"/>
	<path id="path4650" inkscape:connector-curvature="0" fill="#8E795A" stroke="#8E795A" stroke-width="0.0938" d="M-436.134-517.42
		c4.7-2.872,7.833,5.212,3.657,7.306C-437.181-507.243-440.053-515.338-436.134-517.42z"/>
	<path id="path4652" inkscape:connector-curvature="0" fill="#8E795A" stroke="#8E795A" stroke-width="0.0938" d="M-341.082-461.024
		c3.129,1.829,6.267,3.395,9.4,5.224c-3.395,3.919-6.529,7.572-9.924,11.49C-341.344-448.49-341.082-456.843-341.082-461.024z"/>
	<path id="path4654" inkscape:connector-curvature="0" fill="#8E795A" stroke="#8E795A" stroke-width="0.0938" d="M-307.932-460.762
		c2.352-3.657,8.619,0,5.747,3.657C-304.537-453.448-310.803-457.367-307.932-460.762z"/>
	<path id="path4656" inkscape:connector-curvature="0" fill="#8E795A" stroke="#8E795A" stroke-width="0.0938" d="M-300.356-445.614
		c9.666-2.352,17.757,5.485,19.062,14.624c1.047,10.701,7.837,24.286,0.524,34.205c-10.185,8.099-24.289-2.086-28.208-12.014
		C-316.289-421.333-308.979-435.953-300.356-445.614z"/>
	<path id="path4658" inkscape:connector-curvature="0" fill="#8E795A" stroke="#8E795A" stroke-width="0.0938" d="M-271.89-443.005
		c1.828,0,5.485,0,7.314,0c0.781,1.309,2.61,3.919,3.395,5.224c-0.785,1.305-2.614,3.919-3.395,5.224c-1.828,0-5.485,0-7.314,0
		c-0.781-1.305-2.614-3.919-3.395-5.224C-274.504-439.086-272.672-441.696-271.89-443.005z"/>
	<path id="path4660" inkscape:connector-curvature="0" fill="#8E795A" stroke="#8E795A" stroke-width="0.0938" d="M-690.999-399.653
		c12.276-5.228,25.594-5.747,38.905-6.271C-664.885-402.529-677.942-400.7-690.999-399.653z"/>
	<path id="path4662" inkscape:connector-curvature="0" fill="#8E795A" stroke="#8E795A" stroke-width="0.0938" d="M-381.031-336.72
		c2.614,4.442,5.474,8.873,8.083,13.573c-2.09-0.262-5.989-0.785-8.083-1.047C-381.031-328.375-381.031-332.544-381.031-336.72z"/>
	<path id="path4664" inkscape:connector-curvature="0" fill="#8E795A" stroke="#8E795A" stroke-width="0.0938" d="M-372.428-336.982
		c8.099,2.872,15.675,7.564,21.156,14.616C-359.628-325.238-366.68-330.461-372.428-336.982z"/>
	<path id="path4666" inkscape:connector-curvature="0" fill="#8E795A" stroke="#8E795A" stroke-width="0.0938" d="M-389.126-276.143
		c-0.52-16.448-9.408-33.686-1.305-49.618c20.097,12.799,46.735,11.756,65.004,27.161c7.31,9.927,18.019,15.932,29.251,20.629
		c-6.009,5.743-12.803,11.229-20.636,14.885c-6.529-1.571-12.256-5.485-18.785-8.099c-10.971,9.142-17.237,22.723-25.598,33.947
		c-3.395-4.696-7.052-9.658-9.662-14.354c-8.865,1.567-18.007,3.129-26.891,4.696C-396.174-257.077-390.95-266.22-389.126-276.143z"
		/>
	<path id="path4668" inkscape:connector-curvature="0" fill="#8E795A" stroke="#8E795A" stroke-width="0.0938" d="M-247.601-295.463
		c2.61,2.61,5.485,5.485,8.095,8.095c-2.348,0.262-7.052,1.047-9.4,1.309C-248.644-288.411-247.863-293.115-247.601-295.463z"/>
	<path id="path4670" inkscape:connector-curvature="0" fill="#8E795A" stroke="#8E795A" stroke-width="0.0938" d="M-269.8-283.973
		c3.919,0.524,8.095,0.785,12.014,1.305c0.262,1.828,1.043,5.216,1.567,7.048c-3.915-0.523-8.095-0.789-12.014-1.309
		C-268.495-278.757-269.281-282.144-269.8-283.973z"/>
	<path id="path4672" inkscape:connector-curvature="0" fill="#8E795A" stroke="#8E795A" stroke-width="0.0938" d="M-208.16-282.93
		c2.348-3.13,7.572,0.785,5.224,3.661C-205.289-276.143-210.516-280.054-208.16-282.93z"/>
	<path id="path4674" inkscape:connector-curvature="0" fill="#8E795A" stroke="#8E795A" stroke-width="0.0938" d="M-339.258-235.667
		c6.532-6.005,15.393-7.572,23.489-10.182c-2.61,13.834-6.79,27.153-10.709,40.738c-2.071-0.262-6.247-0.262-8.599-0.524
		C-337.429-215.039-345.786-226.271-339.258-235.667z"/>
	<path id="path4676" inkscape:connector-curvature="0" fill="#8E795A" stroke="#8E795A" stroke-width="0.0938" d="M-289.647-221.829
		c-3.137-10.971,7.048-19.058,13.838-25.848c1.828,12.268,4.18,24.543,4.704,36.819
		C-276.59-214.777-288.081-213.472-289.647-221.829z"/>
	<path id="path4678" inkscape:connector-curvature="0" fill="#8E795A" stroke="#8E795A" stroke-width="0.0938" d="M267.337-92.041
		c-0.262-10.447,11.752-12.799,19.066-16.452c3.919,18.281,4.18,36.561,5.743,55.104c3.399-3.919,6.79-7.833,10.189-11.752
		c7.31,3.919,14.889,7.833,22.723,11.232c9.666-7.052,19.585-14.366,31.338-18.023c1.043,7.314,2.094,14.366,3.137,21.66
		c6.528-2.071,12.78-4.161,19.308-6.247c-1.305,11.733,0,23.485,2.352,34.979c3.395-7.314,6.528-14.366,9.924-21.418
		c6.009,5.747,12.799,10.971,17.761,18.023c2.872,7.837,3.133,16.714,4.7,25.055c-14.104,2.61-28.466,0.781-39.695-8.603
		c-3.137,10.689-6.009,21.66-14.612,28.974c-2.614-25.317-23.504-9.4-33.951-2.348c-19.328,10.185-33.693,27.946-53.802,36.042
		c-0.785-17.237-8.623-33.432-5.485-50.669C268.38-28.33,267.599-60.179,267.337-92.041L267.337-92.041z"/>
	<path id="path4680" inkscape:connector-curvature="0" fill="#8E795A" stroke="#8E795A" stroke-width="0.0938" d="M-1218.999-69.841
		c3.919,0,7.837,0.258,11.744,0.52c4.442,7.837,8.88,15.151,13.584,22.711c-2.352,4.434-4.962,8.615-7.052,12.795
		c-5.747-3.657-19.582-1.043-20.625-10.709C-1221.608-53.127-1220.565-61.484-1218.999-69.841z"/>
	<path id="path4682" inkscape:connector-curvature="0" fill="#8E795A" stroke="#8E795A" stroke-width="0.0938" d="M-226.183-38.516
		c4.438-5.485,9.138-10.709,13.842-15.917c3.395,2.09,7.31,3.903,10.971,5.989c-1.047,6.528-2.094,12.795-3.137,19.07
		C-211.821-32.249-218.869-35.382-226.183-38.516z"/>
	<path id="path4684" inkscape:connector-curvature="0" fill="#8E795A" stroke="#8E795A" stroke-width="0.0938" d="M-1217.432-31.987
		c4.7,0.52,9.396,1.043,14.358,1.563c-5.485,14.889-3.657,31.068-0.262,46.215C-1213.775,1.949-1215.599-15.273-1217.432-31.987z"/>
	<path id="path4686" inkscape:connector-curvature="0" fill="#8E795A" stroke="#8E795A" stroke-width="0.0938" d="M135.216,41.647
		c20.109-17.761,47.778-18.804,73.114-15.932c0,4.442,0,8.623,0.262,13.061C184.299,41.909,159.506,46.871,135.216,41.647z"/>
	<path id="path4688" inkscape:connector-curvature="0" fill="#8E795A" stroke="#8E795A" stroke-width="0.0938" d="M140.44,66.198
		c10.971-3.657,28.989,1.305,28.466,15.409c-4.7,14.624-23.242,17.237-33.951,26.376c0.523,1.571,1.047,4.966,1.567,6.528
		c10.447,0,20.894-2.086,31.599-1.043c11.494,10.971,19.574,26.888,34.201,34.463c22.457,5.22,44.121-4.962,65.277-11.494
		c2.348,2.614,4.438,5.485,6.529,8.095c-10.971,15.413-21.414,30.818-36.827,42.297c-17.218,12.537-21.922,34.471-32.889,51.97
		c-7.576-5.22-13.842-12.01-18.804-19.851c15.929-16.972,30.556-35.237,41.527-55.611c-28.47,7.052-48.563,28.712-66.848,50.13
		c-7.833-7.572-18.281-13.581-22.723-23.766c-4.7-9.908-8.615-19.835-14.362-29.236c-14.628,1.567-29.251,2.61-43.617,3.657
		c-2.872,28.716-9.924,56.655-14.885,85.124c-17.761,6.005-35.244,12.276-53.525,16.194c7.048-43.613,49.868-68.95,61.62-110.461
		c6.267-16.714,9.666-35.245,19.847-50.388C107.008,89.964,122.683,76.122,140.44,66.198z"/>
	<path id="path4690" inkscape:connector-curvature="0" fill="#8E795A" stroke="#8E795A" stroke-width="0.0938" d="M-1174.346,68.812
		c17.23,3.653,26.634,19.585,37.604,31.599c17.761,20.371,32.896,44.383,35.248,72.067c-11.229-3.133-23.758-6.267-32.9-14.366
		c-19.066-23.242-29.763-51.693-46.481-76.506C-1178.784,77.427-1176.432,72.985-1174.346,68.812z"/>
	<path id="path4692" inkscape:connector-curvature="0" fill="#8E795A" stroke="#8E795A" stroke-width="0.0938" d="M-226.707,82.131
		c4.7-4.704,10.185-8.361,16.19-10.971C-215.216,75.86-220.702,79.517-226.707,82.131z"/>
	<path id="path4694" inkscape:connector-curvature="0" fill="#8E795A" stroke="#8E795A" stroke-width="0.0938" d="M271.256,82.131
		c3.653,6.267,8.095,12.533,8.619,20.109c-0.785,9.404-6.79,17.237-12.799,24.289C267.076,111.644,266.032,96.231,271.256,82.131z"
		/>
	<path id="path4696" inkscape:connector-curvature="0" fill="#8E795A" stroke="#8E795A" stroke-width="0.0938" d="M286.923,100.411
		c2.614,0,7.318,0.523,9.927,0.781c-4.962,9.404-10.971,18.023-16.976,26.641C281.965,118.43,284.575,109.554,286.923,100.411z"/>
	<path id="path4698" inkscape:connector-curvature="0" fill="#8E795A" stroke="#8E795A" stroke-width="0.0938" d="M199.189,125.482
		c18.019-0.262,36.026-2.086,53.263-7.31c-0.523,5.224-0.785,10.709-2.614,15.913c-16.976,6.271-35.502,6.271-52.478,1.043
		C197.884,132.011,198.403,128.619,199.189,125.482z"/>
</g>
<path fill="#8E795A" stroke="#8E795A" stroke-miterlimit="10" d="M-192.258-115.697H34.178l0.112,0.135
	c0.134,0.166,13.845,16.23,27.5,16.23c0.256,0,0.512-0.004,0.763-0.013c0.775-8.451,7.375-16.347,13.746-16.347
	c2.421,0,3.595,1.198,3.595,3.659c0,6.716-7.585,12.796-16.628,13.41c-0.022,0.314-0.027,0.627-0.027,0.941
	c0,12.312,16.369,27.6,16.535,27.757l0.12,0.112v96.501l-0.12,0.111c-0.166,0.153-16.535,15.45-16.535,27.755
	c0,0.314,0.005,0.629,0.027,0.942c9.043,0.615,16.628,6.694,16.628,13.407c0,2.462-1.174,3.658-3.595,3.658
	c-6.371,0-12.971-7.895-13.746-16.343c-0.251-0.009-0.507-0.014-0.763-0.014c-13.66,0-27.366,16.067-27.5,16.229l-0.112,0.135
	h-226.436l-0.114-0.135c-0.136-0.161-13.845-16.229-27.501-16.229c-0.257,0-0.512,0.005-0.767,0.015
	c-0.77,8.447-7.372,16.342-13.742,16.342c-2.418,0-3.595-1.196-3.595-3.658c0-6.713,7.583-12.792,16.631-13.407
	c0.018-0.313,0.026-0.628,0.026-0.942c0-12.305-16.37-27.602-16.535-27.755l-0.122-0.111v-96.501l0.122-0.112
	c0.165-0.157,16.535-15.45,16.535-27.757c0-0.314-0.008-0.627-0.026-0.941c-9.048-0.614-16.631-6.694-16.631-13.41
	c0-2.461,1.177-3.659,3.595-3.659c6.371,0,12.972,7.896,13.742,16.347c0.255,0.009,0.51,0.013,0.767,0.013
	c13.662,0,27.365-16.064,27.501-16.23L-192.258-115.697z M33.829-114.939h-225.736c-1.378,1.578-14.636,16.364-27.965,16.364
	c-0.238,0-0.473-0.004-0.706-0.014v0.005h-0.006c0.015,0.3,0.022,0.601,0.022,0.901c0,5.317-2.828,11.706-8.406,18.982
	c-3.743,4.874-7.531,8.532-8.25,9.213v95.843c1.636,1.538,16.657,15.988,16.657,28.197c0,0.302-0.008,0.602-0.022,0.901h0.006v0.004
	c0.233-0.008,0.468-0.013,0.706-0.013c13.329,0,26.587,14.786,27.965,16.365H33.829c1.376-1.579,14.634-16.365,27.962-16.365
	c0.238,0,0.471,0.005,0.709,0.013l-0.004-0.004h0.009c-0.019-0.3-0.023-0.6-0.023-0.901c0-5.317,2.83-11.702,8.407-18.978
	c3.743-4.88,7.527-8.537,8.249-9.218v-95.844c-1.637-1.533-16.656-15.987-16.656-28.196c0-0.3,0.005-0.601,0.023-0.901h-0.009
	l0.004-0.005c-0.238,0.009-0.471,0.014-0.709,0.014C48.462-98.575,35.205-113.361,33.829-114.939 M-221.404-99.391
	c-0.783-8.048-6.994-15.54-12.978-15.54c-2.015,0-2.837,0.839-2.837,2.896C-237.219-105.838-229.879-100.014-221.404-99.391
	 M63.325-99.391c8.473-0.624,15.812-6.447,15.812-12.644c0-2.058-0.82-2.896-2.838-2.896
	C70.318-114.931,64.104-107.438,63.325-99.391 M-234.382,71.803c5.984,0,12.193-7.494,12.978-15.542
	c-8.475,0.625-15.815,6.453-15.815,12.642C-237.219,70.963-236.397,71.803-234.382,71.803 M76.3,71.803
	c2.018,0,2.838-0.84,2.838-2.9c0-6.188-7.34-12.017-15.812-12.642C64.104,64.309,70.318,71.803,76.3,71.803"/>
<rect x="-249.371" y="-126.381" fill="none" stroke="#8E795A" stroke-width="1.3" stroke-miterlimit="10" width="340.658" height="209.637"/>
</svg>
