<?xml version="1.0" encoding="utf-8"?>
<!-- Generator: Adobe Illustrator 16.0.0, SVG Export Plug-In . SVG Version: 6.00 Build 0)  -->
<!DOCTYPE svg PUBLIC "-//W3C//DTD SVG 1.1//EN" "http://www.w3.org/Graphics/SVG/1.1/DTD/svg11.dtd">
<svg version="1.1" id="Your_Icon" xmlns="http://www.w3.org/2000/svg" xmlns:xlink="http://www.w3.org/1999/xlink" x="0px" y="0px"
	 width="100px" height="156.667px" viewBox="0 -40.167 100 156.667" enable-background="new 0 -40.167 100 156.667"
	 xml:space="preserve">
<g>
	<path fill="#8E795A" d="M66.641,84.987H33.13c-0.657,0-1.189-0.537-1.189-1.202c0-0.644,0.502-1.172,1.128-1.197
		c4.643-0.658,7.86-2.33,10.208-3.552c6.946-3.618,3.922-16.621,3.553-18.093c-1.292-5.163-1.381-8.682-0.269-10.461
		c0.146-0.233,0.303-0.421,0.46-0.572c-0.986-0.837-1.567-2.069-1.567-3.413c0-1.483,0.729-2.836,1.883-3.659
		c-7.083-3.629-18.572-19.941-18.572-39.552c0-1.363,0.037-2.74,0.106-4.091c0.018-0.335,0.293-0.597,0.625-0.597h40.772
		c0.332,0,0.607,0.262,0.621,0.597c0.072,1.364,0.109,2.74,0.109,4.091c0,19.61-11.488,35.922-18.57,39.553
		c1.152,0.822,1.883,2.177,1.883,3.659c0,1.343-0.58,2.576-1.566,3.413c0.158,0.15,0.314,0.339,0.461,0.573
		c1.113,1.779,1.023,5.299-0.27,10.46c-0.369,1.471-3.396,14.475,3.553,18.093c2.348,1.22,5.562,2.891,10.201,3.551
		c0.631,0.028,1.135,0.557,1.135,1.198C67.828,84.45,67.297,84.987,66.641,84.987z M33.964,83.727h31.846
		c-4.465-0.749-7.582-2.37-9.889-3.573c-7.646-3.974-4.834-16.96-4.191-19.521c1.58-6.311,0.941-8.646,0.42-9.479
		c-0.271-0.437-0.568-0.553-0.723-0.583c-0.262-0.054-0.461-0.269-0.498-0.539c-0.033-0.268,0.105-0.53,0.346-0.647
		c1.102-0.545,1.789-1.653,1.789-2.888c0-1.444-0.963-2.715-2.342-3.099c-0.269-0.073-0.459-0.319-0.459-0.603
		c-0.003-0.284,0.182-0.533,0.452-0.61c6.535-1.911,19.037-18.544,19.037-38.899c0-1.132-0.023-2.281-0.078-3.427H30.095
		c-0.052,1.137-0.078,2.287-0.078,3.427c0,20.357,12.501,36.99,19.038,38.899c0.269,0.078,0.453,0.327,0.451,0.61
		c-0.001,0.283-0.188,0.528-0.46,0.603c-1.378,0.382-2.34,1.655-2.34,3.099c0,1.234,0.686,2.341,1.79,2.888
		c0.241,0.117,0.381,0.38,0.344,0.647c-0.033,0.27-0.233,0.485-0.497,0.539c-0.152,0.03-0.45,0.146-0.724,0.583
		c-0.52,0.832-1.157,3.168,0.424,9.479c0.641,2.561,3.45,15.547-4.193,19.521C41.542,81.356,38.427,82.978,33.964,83.727z"/>
</g>
<path fill="#EED9B6" d="M32.955,13.436c3.029,14.505,11.784,25.157,16.321,26.831h1.219c4.539-1.675,13.294-12.326,16.322-26.831
	H32.955z"/>
<path fill="#8E795A" stroke="#8E795A" stroke-miterlimit="10" d="M90.77-11.22v98.643l-0.059,0.049
	c-0.072,0.06-7.07,6.032-7.07,11.981c0,0.111,0.002,0.222,0.006,0.332c3.682,0.338,7.121,3.213,7.121,5.988
	c0,1.054-0.521,1.566-1.594,1.566c-2.926,0-5.574-3.305-5.842-7.245c-0.137-0.009-0.273-0.012-0.41-0.012
	c-5.363,0-12.023,7.132-12.092,7.203l-0.049,0.054H28.742l-0.048-0.054c-0.066-0.071-6.73-7.203-12.091-7.203
	c-0.137,0-0.274,0.003-0.411,0.012c-0.268,3.94-2.916,7.245-5.84,7.245c-1.072,0-1.594-0.513-1.594-1.566
	c0-2.775,3.439-5.65,7.12-5.988c0.003-0.11,0.006-0.221,0.006-0.332c0-5.952-7-11.922-7.07-11.981l-0.059-0.049V-11.22l0.059-0.05
	c0.07-0.059,7.07-6.031,7.07-11.98c0-0.112-0.002-0.223-0.006-0.334c-3.68-0.335-7.119-3.211-7.119-5.987
	c0-1.053,0.521-1.566,1.594-1.566c2.924,0,5.573,3.303,5.84,7.245c0.137,0.008,0.274,0.011,0.411,0.011
	c5.36,0,12.024-7.131,12.091-7.203l0.048-0.053h42.039l0.049,0.053c0.068,0.072,6.73,7.203,12.092,7.203
	c0.137,0,0.273-0.003,0.41-0.011c0.268-3.942,2.916-7.245,5.842-7.245c1.072,0,1.594,0.513,1.594,1.566
	c0,2.775-3.439,5.651-7.121,5.987c-0.004,0.111-0.006,0.222-0.006,0.334c0,5.952,6.998,11.921,7.07,11.98L90.77-11.22z
	 M90.439,87.271v-98.338c-0.688-0.6-7.129-6.376-7.129-12.183c0-0.104,0.002-0.206,0.006-0.308h-0.002v-0.002
	c-0.131,0.006-0.262,0.01-0.393,0.01c-2.316,0-5.1-1.232-8.27-3.662c-2.123-1.63-3.717-3.281-4.014-3.594H28.886
	c-0.67,0.713-6.965,7.256-12.283,7.256c-0.132,0-0.262-0.003-0.393-0.01v0.002h-0.001c0.003,0.102,0.005,0.204,0.005,0.308
	c0,5.807-6.441,11.583-7.129,12.183v98.338c0.688,0.6,7.129,6.376,7.129,12.183c0,0.104-0.002,0.205-0.005,0.308l0.001-0.001v0.004
	c0.131-0.008,0.261-0.011,0.393-0.011c2.316,0,5.098,1.232,8.267,3.662c2.126,1.631,3.719,3.28,4.016,3.594h41.753
	c0.668-0.712,6.965-7.256,12.283-7.256c0.131,0,0.262,0.003,0.393,0.011V99.76l0.002,0.001c-0.004-0.103-0.006-0.204-0.006-0.308
	C83.311,93.646,89.752,87.87,90.439,87.271 M83.666-23.917c3.506-0.341,6.77-3.047,6.77-5.654c0-0.877-0.365-1.236-1.262-1.236
	C86.475-30.807,83.938-27.609,83.666-23.917 M83.666,100.12c0.271,3.691,2.809,6.889,5.508,6.889c0.896,0,1.262-0.357,1.262-1.235
	C90.436,103.167,87.172,100.461,83.666,100.12 M9.088-29.571c0,2.607,3.265,5.312,6.771,5.654c-0.272-3.692-2.812-6.89-5.507-6.89
	C9.454-30.807,9.088-30.449,9.088-29.571 M9.088,105.773c0,0.878,0.366,1.235,1.264,1.235c2.696,0,5.235-3.197,5.507-6.889
	C12.353,100.461,9.088,103.167,9.088,105.773"/>
<rect x="4.337" y="-36.101" fill="none" stroke="#8E795A" stroke-width="1.3" stroke-miterlimit="10" width="91.325" height="148.403"/>
<circle fill="none" stroke="#8E795A" stroke-width="0.5" stroke-miterlimit="10" cx="58.853" cy="19.847" r="1.997"/>
<ellipse fill="none" stroke="#8E795A" stroke-width="0.5" stroke-miterlimit="10" cx="53.539" cy="22.383" rx="1.33" ry="1.459"/>
<ellipse fill="none" stroke="#8E795A" stroke-width="0.5" stroke-miterlimit="10" cx="57.179" cy="26.174" rx="0.88" ry="0.966"/>
</svg>
