<?xml version="1.0" encoding="utf-8"?>
<!-- Generator: Adobe Illustrator 16.0.0, SVG Export Plug-In . SVG Version: 6.00 Build 0)  -->
<!DOCTYPE svg PUBLIC "-//W3C//DTD SVG 1.1//EN" "http://www.w3.org/Graphics/SVG/1.1/DTD/svg11.dtd">
<svg version="1.1"
	 id="svg2" xmlns:rdf="http://www.w3.org/1999/02/22-rdf-syntax-ns#" xmlns:dc="http://purl.org/dc/elements/1.1/" xmlns:inkscape="http://www.inkscape.org/namespaces/inkscape" xmlns:cc="http://creativecommons.org/ns#" xmlns:svg="http://www.w3.org/2000/svg" xmlns:sodipodi="http://sodipodi.sourceforge.net/DTD/sodipodi-0.dtd" inkscape:version="0.48.2 r9819" sodipodi:docname="blank.svg"
	 xmlns="http://www.w3.org/2000/svg" xmlns:xlink="http://www.w3.org/1999/xlink" x="0px" y="0px" width="358.5px" height="227px"
	 viewBox="0 0 358.5 227" enable-background="new 0 0 358.5 227" xml:space="preserve">
<sodipodi:namedview  id="namedview6" bordercolor="#666666" showgrid="true" inkscape:zoom="4.1944516" inkscape:cx="66.419603" inkscape:cy="59.30568" pagecolor="#ffffff" guidetolerance="10" gridtolerance="10" objecttolerance="10" borderopacity="1" inkscape:pageshadow="2" inkscape:window-width="1600" inkscape:window-height="853" inkscape:pageopacity="0" inkscape:window-x="-4" inkscape:snap-grids="false" inkscape:window-maximized="1" inkscape:current-layer="svg2" inkscape:window-y="-4">
	<inkscape:grid  id="grid3807" type="xygrid"></inkscape:grid>
</sodipodi:namedview>
<path fill="#8E795A" stroke="#8E795A" stroke-miterlimit="10" d="M66.034,19.365h226.437l0.111,0.135
	c0.134,0.166,13.845,16.23,27.5,16.23c0.256,0,0.512-0.004,0.764-0.013c0.774-8.451,7.375-16.347,13.745-16.347
	c2.421,0,3.595,1.198,3.595,3.659c0,6.716-7.584,12.796-16.627,13.41c-0.022,0.314-0.027,0.627-0.027,0.941
	c0,12.312,16.369,27.6,16.535,27.757l0.119,0.112v96.5l-0.119,0.111c-0.166,0.153-16.535,15.45-16.535,27.756
	c0,0.313,0.005,0.629,0.027,0.941c9.043,0.615,16.627,6.693,16.627,13.406c0,2.463-1.174,3.658-3.595,3.658
	c-6.37,0-12.971-7.895-13.745-16.343c-0.252-0.009-0.508-0.014-0.764-0.014c-13.66,0-27.366,16.067-27.5,16.229l-0.111,0.135H66.034
	l-0.114-0.135c-0.136-0.162-13.845-16.229-27.501-16.229c-0.257,0-0.512,0.005-0.767,0.015c-0.77,8.447-7.372,16.342-13.742,16.342
	c-2.418,0-3.595-1.195-3.595-3.658c0-6.713,7.583-12.791,16.631-13.406c0.018-0.312,0.026-0.628,0.026-0.941
	c0-12.306-16.37-27.603-16.535-27.756l-0.122-0.111v-96.5l0.122-0.112c0.165-0.157,16.535-15.45,16.535-27.757
	c0-0.314-0.008-0.627-0.026-0.941c-9.048-0.614-16.631-6.694-16.631-13.41c0-2.461,1.177-3.659,3.595-3.659
	c6.371,0,12.972,7.896,13.742,16.347c0.255,0.009,0.51,0.013,0.767,0.013c13.662,0,27.365-16.064,27.501-16.23L66.034,19.365z
	 M292.121,20.124H66.385c-1.378,1.578-14.636,16.364-27.965,16.364c-0.238,0-0.473-0.004-0.706-0.014v0.005h-0.006
	c0.015,0.3,0.022,0.601,0.022,0.901c0,5.317-2.828,11.706-8.406,18.982c-3.743,4.874-7.531,8.532-8.25,9.213v95.844
	c1.636,1.537,16.657,15.987,16.657,28.196c0,0.302-0.008,0.603-0.022,0.901h0.006v0.004c0.233-0.008,0.468-0.014,0.706-0.014
	c13.329,0,26.587,14.787,27.965,16.365h225.735c1.376-1.578,14.634-16.365,27.962-16.365c0.237,0,0.472,0.006,0.709,0.014
	l-0.004-0.004h0.009c-0.02-0.301-0.023-0.6-0.023-0.901c0-5.317,2.83-11.702,8.408-18.978c3.742-4.881,7.526-8.537,8.248-9.219
	V65.574c-1.637-1.533-16.656-15.987-16.656-28.196c0-0.3,0.006-0.601,0.023-0.901h-0.009l0.004-0.005
	c-0.237,0.009-0.472,0.014-0.709,0.014C306.754,36.487,293.497,21.702,292.121,20.124 M36.888,35.671
	c-0.783-8.048-6.994-15.54-12.978-15.54c-2.015,0-2.837,0.839-2.837,2.896C21.073,29.225,28.413,35.048,36.888,35.671
	 M321.617,35.671c8.473-0.624,15.812-6.447,15.812-12.644c0-2.058-0.82-2.896-2.839-2.896
	C328.609,20.131,322.396,27.625,321.617,35.671 M23.91,206.865c5.984,0,12.193-7.494,12.978-15.542
	c-8.475,0.625-15.815,6.453-15.815,12.642C21.073,206.025,21.895,206.865,23.91,206.865 M334.592,206.865
	c2.018,0,2.838-0.84,2.838-2.9c0-6.188-7.34-12.017-15.812-12.642C322.396,199.371,328.609,206.865,334.592,206.865"/>
<rect x="8.921" y="8.682" fill="none" stroke="#8E795A" stroke-width="1.3" stroke-miterlimit="10" width="340.658" height="209.637"/>
<g>
	<path fill="#8E795A" d="M98.606,111.661c1.325,0.61,3.043,1.133,4.896,1.631c1.372,0.373,2.773,0.739,4.414,1.058
		c7.719,1.489,18.252,2.392,29.939,2.392c11.68,0,22.28-0.966,30.025-2.49c3.875-0.762,6.993-1.61,9.307-2.681
		c1.163-0.539,2.138-1.112,2.882-1.829c0.744-0.711,1.15-1.381,1.15-2.493c0.059-2.086,0.104-4.248,0.191-6.429
		c0-1.109-0.598-1.971-1.342-2.682c-0.744-0.718-1.72-1.293-2.882-1.829c-2.313-1.068-5.436-2.023-9.307-2.783
		c-7.743-1.51-18.345-2.395-30.025-2.395c-11.687,0-22.289,0.883-30.033,2.395c-3.871,0.76-6.993,1.713-9.306,2.783
		c-1.162,0.536-2.134,1.111-2.882,1.829c-0.648,0.62-1.018,1.385-1.145,2.299c0,2.553,0,5.211,0,7.308
		c0.188,0.806,0.661,1.54,1.24,2.096C96.475,110.551,97.453,111.134,98.606,111.661z M100.335,109.074
		c-0.137-0.06-0.349-0.139-0.478-0.199c-0.475-0.228-0.911-0.495-1.342-0.764v-2.683c0.507,0.232,1.233,0.448,1.819,0.665V109.074z
		 M103.503,110.224c-0.728-0.213-1.209-0.452-1.828-0.671v-2.976c0.587,0.192,1.176,0.392,1.828,0.576V110.224z M106.864,110.993
		c-0.611-0.134-1.181-0.249-1.727-0.387v-3.07c0.583,0.142,1.102,0.347,1.727,0.48V110.993z M110.22,111.661
		c-0.555-0.091-1.2-0.188-1.727-0.287c-0.037-0.005-0.06,0.005-0.102,0v-3.071c0.567,0.107,1.231,0.187,1.828,0.29V111.661z
		 M113.481,112.145c-0.639-0.089-1.215-0.198-1.818-0.288v-2.979c0.608,0.1,1.177,0.205,1.818,0.288V112.145z M116.838,112.621
		c-0.598-0.067-1.242-0.217-1.817-0.288v-2.976c0.575,0.074,1.218,0.124,1.817,0.191V112.621z M120.102,112.908
		c-0.6-0.054-1.147-0.133-1.729-0.191v-3.069c0.584,0.059,1.13,0.139,1.729,0.191V112.908z M123.458,113.198
		c-0.597-0.037-1.241-0.048-1.825-0.1v-3.165c0.583,0.044,1.228,0.056,1.825,0.094V113.198z M126.819,113.385
		c-0.621-0.029-1.219-0.056-1.822-0.093v-3.164c0.603,0.036,1.205,0.065,1.822,0.096V113.385z M130.08,113.486
		c-0.588-0.02-1.153-0.068-1.729-0.102v-3.067c0.575,0.029,1.145,0.078,1.729,0.099V113.486z M133.343,113.582
		c-0.574-0.011-1.166,0.015-1.729,0v-3.069c0.565,0.012,1.153-0.012,1.729,0V113.582z M136.797,113.676
		c-0.619,0-1.209-0.09-1.829-0.096v-3.069c0.618,0.011,1.2,0.094,1.829,0.094V113.676z M139.964,113.582
		c-0.553,0.004-1.08,0.097-1.633,0.097v-3.072c0.555,0,1.08,0.009,1.633,0V113.582z M143.322,113.582
		c-0.57,0.015-1.155-0.011-1.733,0v-3.069c0.585-0.012,1.163,0.012,1.733,0V113.582z M146.675,113.486
		c-0.592,0.024-1.212-0.02-1.819,0v-3.068c0.603-0.021,1.231,0.021,1.819,0V113.486z M149.945,113.292
		c-0.551,0.037-1.072,0.063-1.638,0.093v-3.067c0.553-0.024,1.09-0.061,1.638-0.095V113.292z M153.302,113.005
		c-0.598,0.044-1.222,0.153-1.828,0.191v-3.068c0.601-0.038,1.24-0.049,1.828-0.101V113.005z M156.662,112.717
		c-0.618,0.063-1.192,0.133-1.829,0.191v-2.975c0.639-0.054,1.204-0.133,1.829-0.192V112.717z M159.919,112.335
		c-0.553,0.07-1.157,0.129-1.729,0.188v-2.97c0.576-0.058,1.173-0.029,1.729-0.101V112.335z M163.279,111.946
		c-0.625,0.099-1.172,0.202-1.824,0.286v-2.97c0.652-0.083,1.199-0.199,1.824-0.288V111.946z M166.636,111.374
		c-0.564,0.106-1.226,0.187-1.824,0.287v-2.975c0.601-0.1,1.249-0.184,1.824-0.287V111.374z M169.804,110.706
		c-0.546,0.128-1.045,0.257-1.633,0.38v-2.975c0.602-0.119,1.066-0.252,1.633-0.384V110.706z M173.252,109.741
		c-0.58,0.189-1.149,0.396-1.821,0.576v-2.972c0.607-0.16,1.265-0.309,1.821-0.481V109.741z M176.52,108.498
		c-0.198,0.101-0.362,0.181-0.574,0.289c-0.308,0.139-0.804,0.243-1.153,0.376v-2.874c0.573-0.204,1.224-0.359,1.728-0.573V108.498
		L176.52,108.498z M179.68,105.904c-0.438,0.558-0.934,1.063-1.531,1.537v-2.494c0.594-0.312,1.076-0.68,1.531-1.057V105.904z
		 M97.652,100.343c0.371-0.359,1.135-0.799,2.106-1.253c1.937-0.894,4.906-1.759,8.634-2.491c7.472-1.461,17.936-2.396,29.462-2.396
		c11.522,0,21.985,0.935,29.449,2.396c3.732,0.734,6.697,1.598,8.64,2.491c0.966,0.454,1.733,0.894,2.107,1.253
		c0.376,0.355,0.289,0.452,0.289,0.477c0,0.03,0.087,0.219-0.289,0.575c-0.374,0.357-1.141,0.8-2.107,1.251
		c-1.945,0.895-4.91,1.761-8.64,2.494c-7.466,1.456-17.927,2.395-29.449,2.395c-11.53,0-21.991-0.938-29.462-2.395
		c-3.728-0.733-6.696-1.6-8.634-2.494c-0.971-0.451-1.735-0.894-2.106-1.251c-0.377-0.359-0.387-0.548-0.387-0.575
		C97.265,100.795,97.275,100.698,97.652,100.343z M96.883,104.564v2.395c-0.323-0.261-0.65-0.576-0.956-0.866l-0.102-2.3
		C96.153,104.079,96.475,104.314,96.883,104.564z"/>
	<path fill="#8E795A" d="M208.277,144.186c-2.029-1.546-4.832-3.208-8.447-4.796c-7.223-3.172-17.373-6.365-28.782-8.925
		c-11.399-2.55-21.949-4.001-29.839-4.223c-3.941-0.107-7.195,0.14-9.691,0.674c-0.06,0.013-0.108,0.034-0.165,0.048
		c-5.217-4.08-10.792-6.858-16.136-8.176c-7.246-1.78-14.186-0.764-18.764,3.706c-1.797,1.762-2.813,2.76-4.403,4.286
		c-4.579,4.469-5.692,11.342-4.092,18.606c1.588,7.274,5.867,15.087,12.478,21.872c6.615,6.778,14.308,11.222,21.55,13.017
		c7.24,1.796,14.193,0.905,18.777-3.564c1.55-1.557,2.813-2.663,4.391-4.29c4.579-4.473,5.773-11.387,4.169-18.675
		c-0.205-0.934-0.457-1.872-0.751-2.821c5.117,1.639,10.78,3.207,16.912,4.581c11.405,2.557,21.949,3.92,29.839,4.128
		c3.953,0.097,7.104-0.042,9.597-0.579c1.245-0.272,2.375-0.619,3.264-1.149c0.885-0.538,1.383-1.123,1.628-2.21
		c0.52-2.022,1.071-4.131,1.633-6.232c0.239-1.087-0.197-2.018-0.768-2.881C210.107,145.727,209.291,144.963,208.277,144.186z
		 M91.895,128.549c0.155-0.39,2.723-2.981,3.713-3.896c-0.284,0.694-1.493,1.519-2.497,4.174l-1.926,2.014
		C91.408,130.111,91.596,129.361,91.895,128.549z M90.405,133.75l1.923-2.013c-0.111,0.508-0.197,1.038-0.29,1.631l-1.927,1.87
		C90.184,134.76,90.303,134.274,90.405,133.75z M89.945,137.681l1.787-1.738c0.029,0.721,0.105,1.485,0.18,2.238l-1.851,1.807
		C89.981,139.27,89.933,138.492,89.945,137.681z M90.312,141.623l1.779-1.747c0.039,0.278,0.073,0.534,0.125,0.817
		c0.027,0.14,0.1,0.267,0.129,0.411c0.068,0.312,0.19,0.63,0.258,0.948l-1.849,1.811C90.584,143.119,90.446,142.374,90.312,141.623z
		 M91.205,145.701l1.858-1.806c0.177,0.588,0.439,1.174,0.653,1.771l-1.99,1.941C91.515,146.957,91.366,146.342,91.205,145.701z
		 M92.317,149.178l1.992-1.944c0.125,0.322,0.252,0.629,0.394,0.961c0.167,0.363,0.349,0.723,0.531,1.087l-2.064,2.012
		C92.861,150.595,92.576,149.86,92.317,149.178z M93.766,152.722l2.13-2.078c0.227,0.438,0.485,0.861,0.729,1.305l-2.137,2.074
		C94.253,153.574,93.984,153.169,93.766,152.722z M95.292,155.384l2.134-2.075c0.152,0.254,0.304,0.491,0.464,0.757
		c0.19,0.304,0.327,0.644,0.525,0.947l-2.125,2.079C95.932,156.536,95.611,155.951,95.292,155.384z M97.156,158.394l2.194-2.146
		c0.335,0.474,0.639,0.963,1.003,1.44c0.033,0.05,0.096,0.091,0.128,0.138l-2.267,2.206
		C97.823,159.505,97.525,158.931,97.156,158.394z M100.424,162.715c-0.428-0.506-0.795-1.002-1.201-1.509l2.202-2.148
		c0.02,0.024,0.043,0.041,0.06,0.071c0.33,0.406,0.596,0.829,0.938,1.23c0.062,0.07,0.137,0.138,0.202,0.205L100.424,162.715z
		 M101.499,163.811l2.13-2.073c0.367,0.394,0.75,0.769,1.137,1.163l-2.194,2.145C102.195,164.655,101.858,164.206,101.499,163.811z
		 M103.643,166.146l2.263-2.218c0.516,0.494,1.016,0.983,1.541,1.447l-2.267,2.211C104.667,167.127,104.142,166.632,103.643,166.146
		z M106.393,168.549l2.198-2.143c0.373,0.322,0.77,0.583,1.145,0.901l-2.267,2.203C107.094,169.212,106.768,168.867,106.393,168.549
		z M108.81,170.48l2.198-2.14c0.302,0.232,0.562,0.53,0.871,0.753c0.031,0.021,0.038,0.051,0.069,0.069l-2.125,2.079
		C109.485,171.007,109.142,170.724,108.81,170.48z M111.165,172.071l2.132-2.076c0.25,0.156,0.498,0.329,0.741,0.48
		c0.164,0.112,0.308,0.245,0.472,0.351l-2.129,2.074C111.964,172.65,111.576,172.34,111.165,172.071z M113.858,173.735l2.129-2.074
		c0.492,0.288,0.993,0.561,1.489,0.827l-2.133,2.075C114.838,174.312,114.363,174.012,113.858,173.735z M116.829,175.265l2.055-2.01
		c0.192,0.086,0.366,0.193,0.544,0.276c0.062,0.032,0.137,0.039,0.202,0.071c0.225,0.103,0.449,0.18,0.675,0.275l-2.064,2.013
		C117.774,175.699,117.301,175.475,116.829,175.265z M121.485,177.015c-0.505-0.148-0.978-0.384-1.486-0.558l1.926-1.877
		c0.498,0.192,0.994,0.378,1.484,0.561L121.485,177.015z M123.177,177.51l1.854-1.807c0.473,0.139,0.952,0.247,1.422,0.356
		l-1.854,1.808C124.125,177.739,123.651,177.634,123.177,177.51z M126.355,178.298l1.921-1.874c0.459,0.081,0.9,0.101,1.355,0.155
		l-1.989,1.933C127.192,178.45,126.777,178.39,126.355,178.298z M130.968,178.624c-0.469,0.029-0.938,0.134-1.366,0.119l1.999-1.94
		c0.022,0,0.564-0.032,1.35-0.117L130.968,178.624z M134.769,178.001c-0.43,0.107-0.883,0.237-1.291,0.314l2.13-2.077
		c0.407-0.087,0.851-0.196,1.292-0.316L134.769,178.001z M139.334,176.487c-0.461,0.191-0.855,0.301-1.295,0.46l2.474-2.404
		c0.325-0.162,0.706-0.286,1.024-0.468C142.18,174.107,138.716,176.505,139.334,176.487z M143.011,170.229
		c-0.647,0.626-1.423,1.132-2.189,1.602c-0.491,0.287-0.961,0.564-1.504,0.793c-0.541,0.229-1.116,0.428-1.702,0.592
		c-0.024,0.005-0.042,0.06-0.069,0.065c-0.556,0.152-1.165,0.157-1.771,0.244c-0.621,0.103-1.24,0.222-1.895,0.251
		c-0.662,0.032-1.346,0.007-2.036-0.023c-1.38-0.077-2.852-0.256-4.34-0.597c-0.737-0.171-1.472-0.403-2.227-0.637
		c-0.143-0.045-0.272-0.098-0.406-0.147c-0.069-0.017-0.138-0.047-0.201-0.065c-0.573-0.188-1.114-0.404-1.691-0.635
		c-0.268-0.104-0.547-0.166-0.815-0.279c-0.481-0.204-0.992-0.473-1.48-0.699c-0.717-0.335-1.443-0.722-2.153-1.109
		c-0.299-0.16-0.575-0.316-0.875-0.489c-0.212-0.113-0.409-0.223-0.612-0.347c-0.331-0.198-0.681-0.406-1.006-0.622
		c-0.777-0.491-1.591-1.038-2.354-1.588c-0.768-0.552-1.472-1.114-2.219-1.727c-1.503-1.219-3.011-2.532-4.433-3.987
		c-0.693-0.708-1.37-1.468-2.006-2.196c-0.082-0.096-0.187-0.18-0.268-0.274c-0.587-0.681-1.072-1.363-1.604-2.057
		c-0.592-0.764-1.201-1.546-1.733-2.321c-0.459-0.672-0.858-1.313-1.267-1.988c-0.264-0.431-0.48-0.869-0.732-1.299
		c-0.268-0.477-0.55-0.895-0.795-1.368c-0.095-0.182-0.179-0.364-0.268-0.543c-0.268-0.55-0.546-1.094-0.794-1.643
		c-0.083-0.198-0.111-0.414-0.19-0.615c-0.146-0.335-0.338-0.688-0.465-1.021c-0.326-0.842-0.594-1.69-0.848-2.521
		c-0.264-0.843-0.532-1.689-0.717-2.518c-0.033-0.146-0.105-0.269-0.133-0.411c-0.073-0.386-0.129-0.776-0.188-1.158
		c-0.06-0.358-0.08-0.727-0.116-1.087c-0.087-0.737-0.167-1.397-0.183-2.104c-0.019-0.687,0.047-1.313,0.095-1.97
		c0.045-0.585,0.061-1.202,0.152-1.757c0.033-0.138,0.12-0.27,0.146-0.407c0.069-0.37,0.188-0.729,0.285-1.086
		c0.038-0.155,0.031-0.319,0.076-0.472c0.183-0.589,0.382-1.144,0.629-1.687c0.236-0.536,0.527-1.003,0.833-1.488
		c0.483-0.756,1.012-1.52,1.655-2.146c3.629-3.534,9.348-4.544,15.917-2.926c6.566,1.614,13.809,5.775,20.065,12.19
		c6.257,6.415,10.304,13.823,11.756,20.432C147.781,160.995,146.636,166.692,143.011,170.229z M145.424,143.545
		c0.354,0.115,0.709,0.229,1.062,0.354l-0.264,1.171C145.971,144.562,145.695,144.054,145.424,143.545z M148.98,147.835
		c-0.574-0.187-1.072-0.397-1.627-0.579l0.668-2.969c0.563,0.18,1.057,0.386,1.633,0.568L148.98,147.835z M152.148,148.888
		c-0.576-0.169-1.17-0.308-1.726-0.479l0.668-3.071c0.563,0.17,1.25,0.311,1.825,0.479L152.148,148.888z M155.407,149.85
		c-0.593-0.17-1.14-0.408-1.728-0.576l0.675-3.067c0.584,0.168,1.133,0.312,1.731,0.478L155.407,149.85z M158.579,150.617
		c-0.571-0.151-1.075-0.327-1.632-0.478l0.667-2.98c0.557,0.151,1.068,0.337,1.634,0.485L158.579,150.617z M161.741,151.377
		c-0.555-0.134-1.176-0.236-1.722-0.378l0.666-2.979c0.553,0.141,1.174,0.254,1.729,0.39L161.741,151.377z M165.1,152.241
		c-0.6-0.136-1.135-0.337-1.723-0.479l0.662-2.974c0.598,0.144,1.123,0.343,1.733,0.484L165.1,152.241z M168.171,152.82
		c-0.539-0.115-1.09-0.071-1.637-0.189l0.675-3.067c0.544,0.116,1.096,0.268,1.632,0.382L168.171,152.82z M171.431,153.589
		c-0.555-0.111-1.067-0.263-1.627-0.378l0.667-2.979c0.565,0.115,1.075,0.272,1.633,0.386L171.431,153.589z M174.792,154.259
		c-0.588-0.099-1.233-0.267-1.825-0.381l0.675-3.075c0.589,0.118,1.24,0.377,1.821,0.486L174.792,154.259z M177.956,154.74
		c-0.538-0.087-0.982-0.095-1.531-0.191l0.669-3.069c0.551,0.096,1.001,0.198,1.536,0.287L177.956,154.74z M181.316,155.222
		c-0.592-0.085-1.23-0.1-1.824-0.193l0.672-2.972c0.594,0.088,1.235,0.198,1.824,0.289L181.316,155.222z M184.672,155.7
		c-0.607-0.074-1.195-0.107-1.82-0.19l0.668-2.979c0.641,0.092,1.204,0.116,1.824,0.194L184.672,155.7z M187.937,155.989
		c-0.556-0.055-1.163-0.126-1.726-0.192l0.668-2.88c0.574,0.066,1.172,0.234,1.732,0.294L187.937,155.989z M191.297,156.374
		c-0.635-0.046-1.168-0.039-1.833-0.095l0.676-2.887c0.649,0.061,1.195,0.055,1.825,0.104L191.297,156.374z M194.747,156.569
		c-0.575-0.021-1.315-0.068-1.922-0.104l0.677-2.97c0.604,0.033,1.234,0.166,1.821,0.188L194.747,156.569z M197.911,156.569
		c-0.562,0.006-1.027,0.006-1.63,0l0.672-2.885c0.615,0.017,1.049,0.004,1.637,0L197.911,156.569z M201.56,156.374
		c-0.61,0.053-1.219,0.162-1.915,0.19l0.668-2.882c0.632-0.021,1.239-0.049,1.825-0.095L201.56,156.374z M205.018,155.89
		c-0.219,0.062-0.437,0.14-0.675,0.194c-0.331,0.071-0.773,0.035-1.155,0.096l0.576-2.785c0.609-0.068,1.282-0.086,1.828-0.184
		L205.018,155.89z M196.759,150.617c-7.595-0.209-18.01-1.605-29.255-4.127c-9.5-2.128-18.062-4.679-24.691-7.263
		c-1.733-2.554-3.74-5.05-6.044-7.412c-0.764-0.783-1.546-1.529-2.337-2.249c1.848-0.175,4.092-0.223,6.679-0.152
		c7.613,0.209,18.018,1.599,29.265,4.121c11.251,2.523,21.247,5.675,28.215,8.734c3.477,1.526,6.171,3.021,7.867,4.316
		c0.845,0.65,1.532,1.296,1.82,1.724c0.289,0.434,0.202,0.456,0.187,0.481c0,0.026-0.032,0.214-0.475,0.482
		c-0.444,0.269-1.255,0.546-2.305,0.768C203.596,150.493,200.567,150.72,196.759,150.617z M208.663,154.074
		c-0.55,0.437-1.144,0.814-1.828,1.147l0.483-2.398c0.646-0.18,1.196-0.502,1.721-0.767L208.663,154.074z"/>
	<path fill="#8E795A" d="M170.903,86.399c0.354,1.055,1.199,1.686,2.129,2.13c0.935,0.436,2.037,0.667,3.311,0.814
		c2.534,0.275,5.794,0.188,9.708-0.32c7.818-1.026,18.159-3.555,29.234-7.268v-0.003c11.08-3.706,20.853-7.92,27.716-11.814
		c3.431-1.948,6.089-3.845,7.942-5.594c0.928-0.873,1.669-1.729,2.149-2.641c0.421-0.796,0.524-1.641,0.348-2.544
		c-0.807-2.424-1.652-4.942-2.32-6.925c-0.428-0.714-1.113-1.258-1.843-1.6c-0.932-0.437-2.04-0.675-3.304-0.813
		c-1.449-0.159-3.239-0.11-5.157,0.01c-1.419,0.09-2.857,0.18-4.523,0.396c-7.786,1.045-18.067,3.529-29.146,7.24
		c-11.083,3.71-20.816,8.002-27.683,11.908c-3.432,1.952-6.116,3.744-7.968,5.502c-0.933,0.875-1.669,1.731-2.151,2.645
		c-0.485,0.912-0.653,1.676-0.299,2.732C169.647,82.25,170.296,84.312,170.903,86.399z M250.291,54.242l0.82,2.154
		c-0.401-0.168-0.776-0.288-1.246-0.393l-0.765-2.274C249.497,53.872,249.902,54.071,250.291,54.242z M245.673,52.856
		c0.521,0.074,1.023,0.183,1.523,0.303l0.85,2.545c-0.564-0.059-1.316-0.032-1.943-0.058l-0.944-2.821
		C245.307,52.838,245.532,52.838,245.673,52.856z M243.731,52.798l0.945,2.818c-0.618,0.003-1.235,0-1.918,0.036l-0.971-2.911
		C242.553,52.708,243.083,52.784,243.731,52.798z M240.121,52.895l0.974,2.909c-0.598,0.049-1.156,0.022-1.789,0.097l-0.942-2.823
		C238.978,53.012,239.553,52.938,240.121,52.895z M236.689,53.233c0.036-0.005,0.063-0.025,0.094-0.029l0.976,2.91
		c-0.567,0.078-1.226,0.214-1.823,0.302l-0.972-2.91C235.519,53.425,236.162,53.307,236.689,53.233z M233.542,53.784l0.944,2.822
		c-0.615,0.103-1.188,0.185-1.825,0.308l-0.942-2.821C232.354,53.972,232.936,53.883,233.542,53.784z M230.205,54.394l0.941,2.823
		c-0.575,0.114-1.201,0.268-1.784,0.398l-0.973-2.912C228.974,54.579,229.628,54.509,230.205,54.394z M226.897,55.097l0.972,2.914
		c-0.572,0.128-1.109,0.225-1.697,0.362l-0.976-2.911C225.78,55.322,226.332,55.223,226.897,55.097z M223.68,55.77l1.015,3
		c-0.571,0.145-1.187,0.338-1.765,0.487l-1.006-3C222.502,56.108,223.115,55.909,223.68,55.77z M220.438,56.655l1.008,3
		c-0.589,0.159-1.168,0.33-1.762,0.492l-1.006-3.004C219.275,56.977,219.85,56.814,220.438,56.655z M217.219,57.629l0.977,2.909
		c-0.549,0.159-1.106,0.299-1.67,0.461l-0.972-2.909C216.116,57.92,216.662,57.792,217.219,57.629z M214.071,58.481l0.97,2.911
		c-0.538,0.169-1.086,0.377-1.638,0.551l-0.975-2.908C212.976,58.862,213.527,58.652,214.071,58.481z M210.886,59.556l0.973,2.911
		c-0.581,0.185-1.169,0.289-1.76,0.487l-0.979-2.911C209.712,59.843,210.304,59.741,210.886,59.556z M207.67,60.527l0.972,2.912
		c-0.524,0.178-1.023,0.337-1.547,0.517l-0.943-2.823C206.673,60.958,207.143,60.708,207.67,60.527z M204.608,61.65l0.977,2.911
		c-0.546,0.2-1.102,0.359-1.641,0.553l-0.973-2.91C203.501,62.011,204.064,61.851,204.608,61.65z M201.541,62.783l0.979,2.911
		c-0.563,0.21-1.181,0.37-1.729,0.575l-0.982-2.91C200.367,63.153,200.975,62.996,201.541,62.783z M198.301,63.971l0.973,2.911
		c-0.517,0.203-1.009,0.403-1.521,0.61l-0.973-2.91C197.296,64.375,197.775,64.174,198.301,63.971z M195.358,65.159l0.973,2.911
		c-0.555,0.23-1.153,0.444-1.697,0.67l-0.944-2.821C194.236,65.686,194.797,65.387,195.358,65.159z M192.265,66.502l0.944,2.815
		c-0.594,0.254-1.1,0.509-1.662,0.761l-0.951-2.817C191.156,67.007,191.683,66.747,192.265,66.502z M189.2,67.933l0.942,2.817
		c-0.517,0.243-1.091,0.402-1.605,0.639l-0.908-2.732C188.129,68.418,188.686,68.17,189.2,67.933z M186.203,69.237l0.941,2.823
		c-0.586,0.281-1.071,0.567-1.635,0.85l-0.943-2.823C185.123,69.799,185.613,69.531,186.203,69.237z M183.197,70.853l0.943,2.823
		c-0.541,0.277-1.125,0.565-1.637,0.849l-0.943-2.82C182.066,71.418,182.66,71.138,183.197,70.853z M180.199,72.463l0.943,2.823
		c-0.533,0.308-0.932,0.575-1.42,0.883l-0.952-2.823C179.251,73.049,179.68,72.772,180.199,72.463z M177.347,74.231l0.943,2.815
		c-0.525,0.347-1.093,0.698-1.568,1.036l-0.92-2.727C176.295,74.986,176.77,74.613,177.347,74.231z M182.908,77.827
		c6.615-3.756,16.237-7.97,27.168-11.631c10.928-3.659,21.146-6.094,28.692-7.079c3.766-0.494,6.856-0.615,8.978-0.376
		c1.068,0.112,1.933,0.288,2.398,0.506c0.47,0.219,0.541,0.402,0.548,0.428c0.007,0.025,0.028,0.118-0.216,0.576
		c-0.237,0.456-0.828,1.125-1.604,1.852c-1.547,1.467-4.081,3.23-7.393,5.108c-6.616,3.762-16.237,7.973-27.172,11.631
		c-10.932,3.664-21.146,6.098-28.691,7.083c-3.771,0.496-6.852,0.615-8.977,0.376c-1.063-0.112-1.936-0.288-2.398-0.508
		c-0.469-0.224-0.418-0.341-0.428-0.369c-0.009-0.022-0.15-0.177,0.089-0.634c0.242-0.458,0.828-1.121,1.6-1.853
		C177.071,81.475,179.597,79.705,182.908,77.827z M173.56,77.117c0.239-0.233,0.675-0.487,0.97-0.729l0.913,2.731
		c-0.481,0.377-1.043,0.725-1.458,1.094l-0.883-2.643C173.257,77.411,173.389,77.282,173.56,77.117z M171.893,79.088l0.792,2.365
		c-0.46,0.487-0.804,0.988-1.117,1.49l-0.64-1.907C171.167,80.371,171.478,79.726,171.893,79.088z"/>
	<path fill="#8E795A" d="M263.536,93.676c-1.589-1.532-2.604-2.524-4.401-4.289c-4.578-4.465-11.522-5.49-18.769-3.701
		c-7.245,1.776-14.929,6.241-21.546,13.022c-6.617,6.78-10.951,14.643-12.557,21.93c-1.604,7.292-0.413,14.212,4.166,18.678
		c1.58,1.618,2.844,2.735,4.396,4.282c4.583,4.47,11.528,5.364,18.77,3.572c7.242-1.792,14.942-6.242,21.55-13.022
		c6.619-6.784,10.891-14.599,12.486-21.866C269.232,105.012,268.111,98.14,263.536,93.676z M265.477,102.131l-1.924-1.873
		c-0.096-0.591-0.18-1.119-0.293-1.622l1.923,2.011C265.286,101.166,265.406,101.653,265.477,102.131z M263.694,95.438
		c0.294,0.822,0.486,1.566,0.707,2.301l-1.923-2.018c-1.001-2.652-2.216-3.477-2.497-4.172
		C260.965,92.458,263.531,95.056,263.694,95.438z M216.25,143.382c0.621,0.021-2.841-2.382-2.199-2.418
		c0.314,0.184,0.7,0.312,1.021,0.463l2.477,2.411C217.109,143.683,216.71,143.569,216.25,143.382z M217.976,140.103
		c-0.589-0.159-1.166-0.361-1.704-0.585c-0.541-0.229-1.019-0.506-1.508-0.796c-0.763-0.467-1.537-0.975-2.184-1.602
		c-3.63-3.536-4.774-9.233-3.319-15.835c1.448-6.605,5.499-14.017,11.756-20.436c6.256-6.408,13.5-10.57,20.065-12.19
		c6.569-1.609,12.287-0.61,15.913,2.931c0.646,0.624,1.169,1.391,1.658,2.148c0.301,0.486,0.59,0.952,0.833,1.477
		c0.248,0.547,0.445,1.098,0.628,1.689c0.048,0.156,0.037,0.32,0.074,0.48c0.097,0.354,0.212,0.713,0.286,1.081
		c0.023,0.14,0.111,0.268,0.14,0.407c0.094,0.557,0.113,1.172,0.156,1.761c0.046,0.649,0.116,1.281,0.095,1.966
		c-0.014,0.711-0.095,1.366-0.178,2.107c-0.041,0.358-0.061,0.721-0.121,1.082c-0.058,0.379-0.114,0.775-0.188,1.157
		c-0.024,0.146-0.099,0.264-0.129,0.413c-0.19,0.824-0.458,1.669-0.716,2.515c-0.256,0.835-0.524,1.679-0.853,2.523
		c-0.127,0.338-0.317,0.685-0.467,1.023c-0.08,0.199-0.106,0.416-0.195,0.615c-0.24,0.543-0.52,1.088-0.786,1.635
		c-0.098,0.184-0.175,0.365-0.271,0.548c-0.248,0.474-0.526,0.891-0.795,1.365c-0.248,0.435-0.47,0.862-0.729,1.301
		c-0.413,0.668-0.806,1.311-1.265,1.982c-0.53,0.779-1.143,1.558-1.732,2.33c-0.534,0.689-1.019,1.377-1.604,2.058
		c-0.083,0.09-0.188,0.179-0.271,0.27c-0.636,0.733-1.312,1.486-2.007,2.194c-1.417,1.46-2.926,2.771-4.429,3.993
		c-0.745,0.612-1.449,1.173-2.219,1.725c-0.76,0.552-1.575,1.096-2.353,1.591c-0.326,0.209-0.674,0.421-1.018,0.62
		c-0.196,0.115-0.398,0.227-0.603,0.346c-0.298,0.174-0.577,0.323-0.873,0.487c-0.718,0.39-1.443,0.774-2.158,1.114
		c-0.487,0.229-0.997,0.484-1.48,0.692c-0.265,0.113-0.552,0.182-0.811,0.28c-0.576,0.226-1.119,0.442-1.69,0.634
		c-0.063,0.023-0.135,0.055-0.201,0.073c-0.136,0.042-0.266,0.099-0.406,0.136c-0.762,0.24-1.489,0.47-2.235,0.642
		c-1.478,0.338-2.952,0.521-4.332,0.595c-0.69,0.035-1.374,0.057-2.037,0.024c-0.657-0.028-1.278-0.151-1.899-0.244
		c-0.6-0.092-1.21-0.104-1.767-0.249C218.011,140.164,218,140.111,217.976,140.103z M220.815,144.889l-2.133-2.075
		c0.442,0.119,0.892,0.232,1.299,0.321l2.124,2.075C221.702,145.133,221.243,144.998,220.815,144.889z M224.62,145.517l-1.991-1.941
		c0.793,0.085,1.337,0.118,1.351,0.118l1.999,1.941C225.554,145.648,225.091,145.544,224.62,145.517z M227.946,145.412l-1.996-1.944
		c0.459-0.054,0.897-0.075,1.357-0.152l1.922,1.874C228.805,145.278,228.396,145.338,227.946,145.412z M230.988,144.765
		l-1.849-1.811c0.465-0.113,0.947-0.218,1.418-0.358l1.853,1.811C231.933,144.524,231.463,144.633,230.988,144.765z
		 M234.101,143.909l-1.92-1.881c0.487-0.181,0.984-0.364,1.481-0.557l1.924,1.875C235.08,143.523,234.608,143.761,234.101,143.909z
		 M237.344,142.788l-2.06-2.02c0.226-0.095,0.45-0.173,0.674-0.277c0.066-0.03,0.141-0.037,0.201-0.068
		c0.182-0.082,0.354-0.189,0.546-0.279l2.055,2.01C238.287,142.369,237.813,142.59,237.344,142.788z M240.246,141.455l-2.136-2.076
		c0.498-0.271,0.994-0.541,1.489-0.827l2.132,2.074C241.225,140.906,240.753,141.201,240.246,141.455z M243.21,139.795l-2.131-2.078
		c0.165-0.107,0.306-0.24,0.472-0.346c0.237-0.154,0.485-0.333,0.739-0.488l2.133,2.079
		C244.011,139.228,243.624,139.539,243.21,139.795z M245.767,138.131l-2.131-2.075c0.024-0.015,0.041-0.05,0.068-0.063
		c0.307-0.224,0.574-0.527,0.87-0.761l2.2,2.14C246.443,137.62,246.103,137.896,245.767,138.131z M248.119,136.407l-2.267-2.21
		c0.373-0.317,0.772-0.585,1.145-0.902l2.195,2.148C248.817,135.762,248.496,136.11,248.119,136.407z M250.402,134.479l-2.26-2.211
		c0.523-0.459,1.022-0.958,1.538-1.444l2.264,2.212C251.445,133.523,250.922,134.019,250.402,134.479z M253.017,131.934
		l-2.193-2.145c0.387-0.393,0.764-0.766,1.137-1.163l2.13,2.076C253.723,131.102,253.394,131.547,253.017,131.934z M255.166,129.602
		l-2.203-2.149c0.062-0.067,0.136-0.128,0.202-0.201c0.342-0.4,0.604-0.824,0.933-1.231c0.021-0.027,0.044-0.044,0.067-0.07
		l2.199,2.145C255.959,128.602,255.588,129.104,255.166,129.602z M257.369,126.929l-2.267-2.211c0.034-0.049,0.089-0.083,0.13-0.138
		c0.361-0.477,0.661-0.965,1.005-1.438l2.195,2.149C258.065,125.827,257.767,126.398,257.369,126.929z M259.296,123.986
		l-2.128-2.074c0.201-0.309,0.342-0.646,0.525-0.954c0.163-0.258,0.319-0.508,0.471-0.754l2.129,2.08
		C259.975,122.841,259.652,123.431,259.296,123.986z M261.094,120.913l-2.131-2.076c0.246-0.444,0.502-0.861,0.729-1.297
		l2.131,2.076C261.603,120.065,261.329,120.465,261.094,120.913z M262.411,118.188l-2.058-2.011
		c0.183-0.364,0.362-0.719,0.533-1.093c0.138-0.323,0.268-0.639,0.389-0.953l1.999,1.942
		C263.009,116.755,262.719,117.49,262.411,118.188z M263.86,114.5l-1.99-1.943c0.215-0.597,0.477-1.178,0.654-1.772l1.854,1.808
		C264.218,113.233,264.069,113.854,263.86,114.5z M264.829,110.755l-1.847-1.81c0.068-0.317,0.189-0.635,0.256-0.953
		c0.036-0.14,0.101-0.267,0.131-0.406c0.055-0.281,0.088-0.543,0.126-0.816l1.78,1.744C265.138,109.263,265,110.014,264.829,110.755
		z M265.532,106.88l-1.852-1.811c0.074-0.75,0.148-1.509,0.173-2.237l1.778,1.743C265.653,105.39,265.609,106.165,265.532,106.88z"
		/>
	<path fill="#8E795A" d="M173.812,141.734c-0.071-0.188,0.474-0.198,1.147-0.166c1.208,0.058,3.485,0.725,4.652,0.764
		c0.549,0.023,0.793-0.142,0.579-0.329c-0.239-0.219-1.317-0.484-1.533-0.698c0.145-0.196,0.651-0.264,1.118-0.458
		c0.689,0.035,2.118,0.476,2.463,0.38c0.081-0.373-1.321-0.908-1.963-1.422c-0.75-0.574,0.288-0.959-1.854-1.917
		c0.395-0.132,2.538,0.334,2.439,0.077c-0.267-0.683-4.64-1.906-7.604-2.683c-2.961-0.772-5.869-1.342-8.599-1.683
		c-2.97-0.364-5.551-0.663-7.604-0.147c-0.391,1.016-0.35,1.468,1.292,2.501c0.576,0.483,1.905,1.248,2.694,1.576
		c0.01,0.379-1.646,0.318-2.638,0.422c-3.563-0.019-9.916,0.489-8.984,1.46c7.204,3.529,27.826,8.305,35.753,8.264
		C186.168,147.244,176.824,143.725,173.812,141.734z"/>
	<path fill="#8E795A" d="M130.241,147.417c-1.539-0.974-3.789-2.005-4.641-2.16c-1.389-1.302-1.849-3.095-2.628-4.638
		c-1.385-4.249-5.833-13.648-8.969-15.854c-9.904-3.432-18.824,5.085-15.435,14.791c1.995,2.713,10.957,3.492,16.952,6.675
		c0.67,0.571,0.927,1.265,1.081,1.969c0.271,1.244-1.215,1.711-0.866,3.005c0.139,0.573,0.833,1.432,1.424,1.815
		c0.705,0.462,1.214,0.059,1.916,0.558c0.77,0.834,1.221,1.678,2.116,2.912c0.179,0.729-0.869,0.921-0.377,1.667
		c1.393,1.376,2.773,1.531,4.386,2.528c1.779,1.062,3.595,3.623,6.194,4.319c0.644,0.932-0.162,1.935,0.73,2.688
		c2.351,2.007,5.015,0.937,6.616,0c1.619-0.899,2.505-2.452,2.625-4.588c0.105-2.329,0.129-4.431-2.598-8.685
		C134.94,150.472,133.311,148.97,130.241,147.417z"/>
	<path fill="#8E795A" d="M105.664,102.336c1.937,0.577,3.774,1.075,9.885,1.342c6.842-0.109,9.59-0.192,13.646-0.652
		c2.174-0.183,5.059-0.547,5.944-0.736c2.354-0.066,4.326,0.229,6.378,0.378c4.924,0.619,17.081,1.633,21.751,1.304
		c11.681-1.851,12-6.237,0.515-7.605c-4.146-0.095-12.685,2.125-20.686,2.989c-1.095,0.043-1.944-0.048-2.679-0.171
		c-1.351-0.22-0.462-0.728-1.876-0.938c-0.629-0.095-1.989-0.112-2.858-0.041c-1.015,0.08-1.108,0.31-2.147,0.384
		c-1.411,0.008-2.533-0.068-4.436-0.112c-0.777-0.127-0.047-0.447-1.13-0.494c-2.408,0.051-3.771,0.388-6.05,0.585
		c-2.465,0.227-6.342,0.116-9.219,0.647c-1.367-0.043-1.542-0.495-2.972-0.432c-3.843,0.165-5.235,1.129-5.788,1.773
		C103.312,101.208,103.886,101.806,105.664,102.336z"/>
	<path fill="#8E795A" d="M208.227,73.201c0.159,0.133-0.297,0.428-0.879,0.75c-1.059,0.587-3.354,1.211-4.365,1.8
		c-0.478,0.264-0.606,0.541-0.321,0.59c0.323,0.059,1.375-0.279,1.671-0.2c-0.014,0.245-0.405,0.566-0.706,0.985
		c-0.601,0.338-2.053,0.703-2.297,0.967c0.135,0.369,1.611,0.1,2.424,0.21c0.941,0.101,0.262,0.987,2.592,0.686
		c-0.261,0.322-2.333,1.052-2.11,1.222c0.591,0.449,4.952-0.79,7.891-1.687c2.927-0.886,5.695-1.919,8.199-3.069
		c2.717-1.248,5.076-2.357,6.545-3.892c-0.205-1.089-0.482-1.46-2.423-1.491c-0.749-0.118-2.294-0.087-3.123,0.046
		c-0.22-0.328,1.223-1.145,2.007-1.76c3.042-1.867,8.177-5.663,6.863-6.012c-7.992,0.719-28.063,7.453-34.775,11.674
		C194.8,74.934,204.616,73.062,208.227,73.201z"/>
	<path fill="#8E795A" d="M228.291,117.716c0.845,0.671,0.35,2.464,0.365,3.791c-0.797,4.061-1.048,12.268,1.268,12.941
		c9.251-1.929,24.077-17.042,25.68-26.218c-0.746-1.926-10.417,2.488-15.396,2.376c-0.438-0.263-0.345-0.905-0.127-1.617
		c0.393-1.278,2.327-2.707,2.664-3.969c0.165-0.596-0.134-1.168-0.594-1.268c-0.53-0.117-1.334,0.653-1.854,0.51
		c-0.396-0.516-0.432-1.215-0.753-2.104c0.212-0.734,1.488-1.581,1.351-2.144c-0.792-0.77-2.271-0.118-3.529-0.31
		c-1.412-0.172-2.033-2.057-4.572-1.309c-0.212-0.69,1.268-2.323,0.688-2.661c-1.538-0.913-5.146,1.909-7.479,3.921
		c-2.317,2.005-4.188,4.325-5.508,6.856c-1.438,2.744-2.636,5.184-1.941,8.465c2.118,2.264,3.123,3.031,5.729,3.003
		C225.454,118.188,227.414,118.035,228.291,117.716z"/>
</g>
</svg>
