<?xml version="1.0" encoding="utf-8"?>
<!-- Generator: Adobe Illustrator 16.0.0, SVG Export Plug-In . SVG Version: 6.00 Build 0)  -->
<!DOCTYPE svg PUBLIC "-//W3C//DTD SVG 1.1//EN" "http://www.w3.org/Graphics/SVG/1.1/DTD/svg11.dtd">
<svg version="1.1" id="Layer_1" xmlns="http://www.w3.org/2000/svg" xmlns:xlink="http://www.w3.org/1999/xlink" x="0px" y="0px"
	 width="288px" height="288px" viewBox="0 0 288 288" enable-background="new 0 0 288 288" xml:space="preserve">
<rect x="-0.088" y="0.073" fill="#F2E5DF" width="288.04" height="288.039"/>
<rect x="9.208" y="9.708" fill="#F6F1EE" width="268.741" height="269.068"/>
<rect x="9.142" y="8.873" fill="none" stroke="#8F7A5B" stroke-width="2" stroke-miterlimit="10" width="270.141" height="269.904"/>
<path fill="#C2AC8F" d="M19.154,256.356c0,0-0.016,0.092-0.021,0.289c-0.009,0.195-0.003,0.49,0.043,0.873
	c0.047,0.383,0.14,0.859,0.327,1.396c0.184,0.539,0.464,1.141,0.881,1.753c0.418,0.612,0.982,1.219,1.691,1.771
	c0.089,0.067,0.181,0.135,0.273,0.203c0.096,0.064,0.193,0.13,0.292,0.197c0.189,0.115,0.389,0.24,0.605,0.342
	c0.428,0.214,0.894,0.388,1.392,0.5c0.989,0.231,2.126,0.222,3.223-0.198c0.543-0.211,1.08-0.503,1.574-0.896
	c0.492-0.389,0.95-0.865,1.347-1.409c0.776-1.078,1.24-2.492,1.368-4.011c0.128-1.524-0.026-3.157-0.47-4.787
	c-0.216-0.815-0.505-1.634-0.867-2.436c-0.36-0.802-0.789-1.594-1.304-2.352c-0.513-0.756-1.106-1.479-1.803-2.115
	c-0.695-0.633-1.5-1.19-2.387-1.589c-0.887-0.398-1.875-0.638-2.878-0.583c-1.001,0.049-2.006,0.414-2.797,1.083
	c-0.394,0.331-0.745,0.729-1.007,1.18c-0.255,0.456-0.412,0.972-0.462,1.501c-0.096,1.064,0.205,2.148,0.694,3.128
	c0.497,0.979,1.182,1.88,2.005,2.651c0.205,0.192,0.423,0.377,0.643,0.552c0.229,0.169,0.458,0.342,0.689,0.511
	c0.237,0.159,0.472,0.323,0.714,0.477c0.248,0.146,0.489,0.308,0.743,0.445c2.016,1.151,4.285,1.914,6.629,2.506
	c2.349,0.596,4.789,1.033,7.227,1.692c1.215,0.339,2.437,0.725,3.611,1.258c0.59,0.258,1.159,0.57,1.719,0.901
	c0.548,0.35,1.091,0.729,1.589,1.148c1.001,0.847,1.924,1.85,2.477,3.092c0.271,0.615,0.44,1.289,0.438,1.977
	c-0.002,0.683-0.168,1.386-0.569,1.97c-0.026,0.036-0.048,0.07-0.082,0.106c-0.028,0.034-0.049,0.065-0.084,0.099
	c-0.063,0.07-0.128,0.131-0.198,0.188c-0.138,0.112-0.291,0.209-0.452,0.284c-0.323,0.151-0.675,0.227-1.027,0.253
	c-0.707,0.039-1.409-0.123-2.058-0.386c-0.652-0.263-1.257-0.63-1.827-1.042c-0.152-0.119-0.274-0.208-0.416-0.341
	c-0.141-0.122-0.262-0.255-0.386-0.386c-0.238-0.269-0.466-0.547-0.668-0.841c-0.817-1.175-1.419-2.47-1.965-3.782
	c-0.542-1.317-1.001-2.67-1.436-4.034c-0.428-1.367-0.821-2.748-1.202-4.142c-0.382-1.388-0.768-2.784-1.156-4.188
	c-0.397-1.396-0.791-2.806-1.238-4.198c-0.439-1.399-0.92-2.792-1.483-4.16c-0.563-1.362-1.204-2.703-2-3.959
	c-0.398-0.627-0.844-1.227-1.337-1.781c-0.247-0.281-0.512-0.542-0.785-0.794c-0.278-0.248-0.56-0.487-0.882-0.667
	c-0.637-0.364-1.366-0.589-2.107-0.644c-0.738-0.057-1.504,0.065-2.14,0.445c-0.316,0.188-0.592,0.44-0.805,0.745
	c-0.226,0.308-0.399,0.63-0.527,0.984c-0.25,0.709-0.298,1.479-0.195,2.232c0.104,0.753,0.344,1.484,0.662,2.18
	c0.322,0.695,0.718,1.359,1.169,1.984c0.902,1.253,2,2.365,3.21,3.34c1.21,0.979,2.549,1.802,3.965,2.469
	c1.416,0.669,2.907,1.183,4.428,1.591c3.047,0.815,6.201,1.212,9.353,1.631c3.148,0.425,6.332,0.883,9.386,1.886
	c1.522,0.505,3.008,1.146,4.394,1.969c1.379,0.826,2.693,1.803,3.743,3.045c1.047,1.231,1.826,2.734,2.057,4.357
	c0.111,0.808,0.083,1.644-0.136,2.44c-0.109,0.394-0.265,0.781-0.474,1.138c-0.107,0.178-0.22,0.35-0.354,0.514l-0.193,0.231
	l-0.211,0.229c-0.581,0.586-1.295,1.042-2.079,1.315c-0.784,0.271-1.623,0.369-2.449,0.33c-1.659-0.094-3.262-0.669-4.681-1.523
	c-0.36-0.213-0.696-0.442-1.04-0.698c-0.161-0.127-0.32-0.236-0.482-0.377c-0.16-0.136-0.33-0.269-0.478-0.412
	c-0.618-0.557-1.185-1.167-1.71-1.808c-1.044-1.286-1.926-2.688-2.699-4.136c-1.537-2.901-2.677-5.954-3.752-8.996
	c-0.537-1.521-1.042-3.05-1.565-4.565c-0.515-1.519-1.029-3.034-1.579-4.532c-0.541-1.5-1.118-2.981-1.75-4.438
	c-0.631-1.456-1.321-2.886-2.114-4.248c-0.785-1.373-1.681-2.675-2.711-3.862c-0.514-0.594-1.062-1.154-1.65-1.673
	c-0.591-0.518-1.21-0.994-1.885-1.383c-0.672-0.391-1.391-0.706-2.141-0.898c-0.75-0.19-1.535-0.247-2.292-0.114
	c-0.757,0.13-1.472,0.463-2.067,0.948c-0.297,0.242-0.569,0.516-0.81,0.814c-0.064,0.073-0.114,0.151-0.173,0.232
	c-0.046,0.078-0.1,0.153-0.14,0.242c-0.09,0.164-0.159,0.344-0.22,0.523c-0.239,0.727-0.286,1.511-0.223,2.273
	c0.064,0.769,0.248,1.523,0.519,2.24c0.535,1.448,1.417,2.739,2.452,3.867c0.52,0.562,1.082,1.086,1.67,1.573
	c0.585,0.49,1.22,0.917,1.883,1.289c1.329,0.748,2.747,1.312,4.177,1.808c2.865,0.977,5.794,1.675,8.696,2.331
	c2.904,0.651,5.795,1.232,8.648,1.842c2.851,0.612,5.668,1.247,8.415,2.013c1.374,0.383,2.731,0.8,4.059,1.269
	c1.33,0.464,2.633,0.984,3.885,1.592c1.253,0.606,2.453,1.308,3.545,2.151c1.08,0.844,2.06,1.823,2.835,2.94
	c0.771,1.117,1.339,2.383,1.542,3.717c0.2,1.325,0.034,2.739-0.678,3.886c-0.087,0.144-0.183,0.276-0.289,0.411
	c-0.106,0.125-0.201,0.256-0.322,0.373c-0.226,0.252-0.48,0.461-0.741,0.666c-0.533,0.391-1.13,0.688-1.751,0.899
	c-1.25,0.406-2.58,0.447-3.848,0.275c-1.271-0.172-2.499-0.547-3.655-1.036c-0.58-0.245-1.142-0.523-1.688-0.823
	c-0.546-0.297-1.075-0.62-1.591-0.956c-0.256-0.172-0.513-0.341-0.759-0.521c-0.128-0.094-0.246-0.175-0.379-0.276l-0.357-0.273
	c-0.237-0.185-0.483-0.391-0.713-0.591c-0.228-0.206-0.457-0.406-0.673-0.62c-0.877-0.844-1.662-1.761-2.371-2.711
	c-1.417-1.904-2.553-3.923-3.533-5.929c-0.981-2.011-1.818-4.011-2.593-5.961c-0.77-1.954-1.502-3.85-2.204-5.684
	c-1.42-3.662-2.799-7.056-4.353-10.059c-1.544-3.006-3.257-5.618-5.098-7.738c-0.92-1.06-1.858-2.005-2.805-2.825
	c-0.94-0.831-1.891-1.519-2.833-2.068c-1.897-1.086-3.715-1.62-5.2-1.862c-1.491-0.247-2.657-0.229-3.431-0.177
	c-0.388,0.023-0.681,0.062-0.874,0.091c-0.195,0.031-0.289,0.052-0.289,0.052c-0.059,0.016-0.117-0.023-0.13-0.083
	c-0.013-0.058,0.023-0.114,0.083-0.128c0.002,0,0.004,0,0.005-0.002c0,0,0.104-0.019,0.305-0.039c0.198-0.023,0.497-0.05,0.89-0.068
	c0.786-0.033,1.961-0.023,3.463,0.222c1.497,0.253,3.334,0.753,5.284,1.805c0.974,0.523,1.971,1.193,2.948,1.998
	c0.982,0.8,1.98,1.711,2.964,2.742c0.976,1.039,1.949,2.188,2.883,3.462c0.938,1.269,1.839,2.653,2.708,4.139
	c1.733,2.974,3.312,6.353,4.812,10.006c1.517,3.646,2.969,7.577,4.772,11.56c0.455,0.992,0.936,1.984,1.46,2.969
	c0.523,0.984,1.084,1.961,1.72,2.901c0.636,0.938,1.323,1.862,2.11,2.709c0.193,0.216,0.398,0.419,0.604,0.625
	c0.209,0.203,0.41,0.396,0.634,0.597l0.341,0.294c0.1,0.086,0.225,0.185,0.338,0.276c0.229,0.189,0.467,0.367,0.705,0.549
	c0.955,0.712,1.976,1.362,3.073,1.894c1.091,0.537,2.261,0.953,3.482,1.165c1.217,0.208,2.501,0.213,3.708-0.157
	c0.602-0.185,1.179-0.458,1.693-0.83c0.251-0.193,0.501-0.394,0.715-0.625c0.113-0.109,0.215-0.242,0.321-0.365
	c0.095-0.119,0.192-0.25,0.274-0.385c0.686-1.087,0.859-2.454,0.669-3.743c-0.189-1.3-0.738-2.545-1.49-3.648
	c-0.759-1.107-1.716-2.079-2.787-2.928c-1.073-0.836-2.264-1.542-3.507-2.154c-2.49-1.224-5.174-2.109-7.914-2.883
	c-2.744-0.771-5.558-1.414-8.407-2.034c-2.851-0.617-5.741-1.203-8.648-1.842c-2.904-0.648-5.837-1.339-8.71-2.312
	c-1.433-0.495-2.857-1.055-4.195-1.805c-0.669-0.373-1.313-0.8-1.905-1.292c-0.596-0.484-1.165-1.008-1.692-1.573
	c-1.048-1.128-1.949-2.43-2.502-3.894c-0.279-0.729-0.471-1.498-0.541-2.279c-0.069-0.781-0.028-1.586,0.218-2.344
	c0.062-0.19,0.134-0.375,0.228-0.555c0.041-0.089,0.101-0.178,0.152-0.264c0.056-0.078,0.112-0.164,0.179-0.239
	c0.245-0.312,0.524-0.597,0.833-0.85c0.615-0.508,1.361-0.859,2.151-1c0.791-0.146,1.605-0.086,2.379,0.102
	c0.778,0.188,1.519,0.5,2.217,0.891c0.348,0.196,0.683,0.409,1.009,0.644c0.323,0.229,0.635,0.484,0.939,0.74
	c0.61,0.513,1.189,1.067,1.729,1.656c0.542,0.586,1.05,1.206,1.531,1.844c0.483,0.639,0.939,1.3,1.369,1.977
	c1.721,2.712,3.083,5.642,4.318,8.611c0.614,1.487,1.195,2.989,1.76,4.495c0.556,1.508,1.112,3.019,1.668,4.526
	c1.112,3.014,2.247,6.014,3.632,8.879c0.699,1.425,1.462,2.82,2.385,4.1c0.458,0.641,0.956,1.253,1.503,1.815
	c0.271,0.281,0.548,0.542,0.861,0.81c0.291,0.245,0.606,0.498,0.928,0.719c1.293,0.886,2.787,1.545,4.363,1.688
	c0.783,0.067,1.583,0.018,2.335-0.225c0.751-0.236,1.442-0.656,2.005-1.211l0.204-0.214l0.195-0.229
	c0.123-0.148,0.234-0.315,0.337-0.479c0.2-0.341,0.354-0.708,0.461-1.086c0.215-0.764,0.25-1.573,0.146-2.359
	c-0.213-1.584-0.963-3.063-1.987-4.285c-1.025-1.234-2.322-2.211-3.686-3.044c-1.373-0.829-2.845-1.478-4.362-1.982
	c-3.042-1.008-6.219-1.477-9.367-1.909c-3.149-0.438-6.308-0.812-9.363-1.623c-1.525-0.403-3.021-0.916-4.446-1.583
	c-1.423-0.664-2.769-1.492-3.993-2.464c-1.224-0.972-2.338-2.084-3.258-3.339c-0.459-0.631-0.865-1.3-1.197-2.001
	c-0.328-0.705-0.58-1.45-0.691-2.224c-0.112-0.771-0.07-1.576,0.186-2.318c0.127-0.367,0.32-0.727,0.545-1.036
	c0.223-0.326,0.522-0.602,0.86-0.808c0.679-0.414,1.489-0.542,2.261-0.497c0.777,0.047,1.541,0.263,2.224,0.638
	c0.167,0.094,0.343,0.206,0.492,0.317c0.156,0.123,0.303,0.24,0.451,0.362c0.29,0.253,0.572,0.513,0.833,0.792
	c0.529,0.555,0.999,1.156,1.436,1.776c0.873,1.245,1.59,2.583,2.229,3.94c1.271,2.719,2.243,5.532,3.11,8.324
	c0.212,0.7,0.422,1.398,0.633,2.094c0.2,0.698,0.399,1.394,0.597,2.086c0.394,1.386,0.786,2.761,1.175,4.129
	c0.19,0.685,0.387,1.364,0.594,2.034c0.204,0.674,0.408,1.344,0.635,2.002c0.453,1.313,0.944,2.612,1.638,3.774
	c0.171,0.292,0.366,0.565,0.571,0.828c0.107,0.125,0.213,0.258,0.326,0.367c0.1,0.112,0.252,0.24,0.365,0.339
	c0.519,0.433,1.086,0.805,1.693,1.083c0.604,0.276,1.261,0.456,1.916,0.433c0.647-0.019,1.31-0.278,1.68-0.802
	c0.37-0.531,0.539-1.196,0.544-1.845c0.007-0.656-0.148-1.305-0.408-1.903c-0.525-1.206-1.425-2.204-2.405-3.042
	c-0.496-0.43-1.021-0.8-1.563-1.151c-0.552-0.331-1.114-0.646-1.699-0.906c-1.162-0.539-2.373-0.936-3.584-1.279
	c-2.431-0.664-4.869-1.106-7.219-1.714c-2.35-0.594-4.617-1.378-6.645-2.519c-0.255-0.138-0.498-0.297-0.748-0.442
	c-0.245-0.153-0.481-0.32-0.721-0.479c-0.231-0.169-0.461-0.339-0.69-0.511c-0.227-0.174-0.446-0.356-0.652-0.555
	c-0.832-0.773-1.526-1.68-2.031-2.669c-0.499-0.987-0.81-2.087-0.714-3.175c0.047-0.545,0.209-1.073,0.468-1.545
	c0.269-0.469,0.622-0.875,1.025-1.222c0.807-0.69,1.838-1.075,2.866-1.13c1.031-0.065,2.044,0.172,2.954,0.572
	c0.914,0.401,1.727,0.959,2.446,1.603c0.715,0.643,1.323,1.375,1.849,2.138c1.052,1.526,1.786,3.178,2.295,4.818
	c0.493,1.646,0.764,3.303,0.699,4.902c-0.062,1.594-0.455,3.144-1.289,4.401c-0.819,1.231-1.961,2.183-3.221,2.678
	c-1.261,0.494-2.597,0.528-3.732,0.227c-0.566-0.156-1.093-0.373-1.554-0.651c-0.231-0.136-0.446-0.286-0.66-0.445
	c-0.1-0.081-0.182-0.146-0.287-0.237c-0.093-0.081-0.184-0.164-0.272-0.245c-0.704-0.664-1.229-1.375-1.605-2.052
	c-0.757-1.367-0.959-2.556-1.058-3.331c-0.047-0.396-0.058-0.695-0.062-0.896c-0.002-0.203,0.003-0.31,0.003-0.31l0.001-0.006
	c0.002-0.06,0.054-0.106,0.113-0.102c0.061,0.003,0.107,0.053,0.104,0.112C19.155,256.346,19.154,256.352,19.154,256.356"/>
<path fill="#C2AC8F" d="M17.821,32.046c0,0-0.016-0.093-0.021-0.289c-0.008-0.195-0.003-0.49,0.044-0.874
	c0.047-0.383,0.14-0.858,0.327-1.396c0.184-0.539,0.465-1.141,0.881-1.753c0.418-0.611,0.982-1.219,1.69-1.771
	c0.09-0.068,0.182-0.135,0.273-0.203c0.097-0.065,0.193-0.13,0.292-0.197c0.188-0.114,0.388-0.241,0.605-0.341
	c0.428-0.214,0.893-0.39,1.392-0.501c0.988-0.232,2.125-0.222,3.222,0.198c0.544,0.211,1.081,0.504,1.574,0.897
	c0.493,0.388,0.95,0.865,1.347,1.408c0.776,1.078,1.24,2.493,1.369,4.012c0.128,1.522-0.026,3.157-0.471,4.786
	c-0.215,0.816-0.505,1.634-0.866,2.437s-0.789,1.594-1.304,2.351c-0.513,0.755-1.107,1.479-1.802,2.116
	c-0.695,0.632-1.5,1.189-2.388,1.587c-0.886,0.4-1.874,0.638-2.878,0.585c-1-0.05-2.005-0.416-2.797-1.083
	c-0.393-0.331-0.745-0.73-1.008-1.181c-0.255-0.456-0.412-0.97-0.461-1.5c-0.097-1.064,0.206-2.147,0.694-3.126
	c0.496-0.98,1.181-1.882,2.005-2.651c0.205-0.194,0.423-0.378,0.642-0.552c0.229-0.169,0.458-0.341,0.69-0.512
	c0.237-0.158,0.471-0.323,0.713-0.477c0.248-0.146,0.49-0.306,0.743-0.444c2.016-1.151,4.286-1.914,6.629-2.505
	c2.348-0.598,4.789-1.034,7.227-1.694c1.216-0.338,2.438-0.723,3.612-1.257c0.588-0.259,1.159-0.571,1.719-0.902
	c0.547-0.348,1.091-0.728,1.589-1.148c1-0.847,1.923-1.849,2.477-3.09c0.271-0.616,0.44-1.291,0.438-1.978
	c-0.002-0.683-0.169-1.384-0.57-1.969c-0.026-0.035-0.047-0.07-0.081-0.106c-0.029-0.034-0.05-0.065-0.083-0.099
	c-0.065-0.069-0.129-0.129-0.198-0.187c-0.138-0.113-0.292-0.208-0.453-0.284c-0.323-0.151-0.674-0.227-1.026-0.252
	c-0.707-0.041-1.409,0.122-2.059,0.384c-0.652,0.263-1.257,0.63-1.827,1.043c-0.152,0.118-0.273,0.207-0.417,0.34
	c-0.141,0.124-0.261,0.255-0.386,0.385c-0.237,0.269-0.466,0.547-0.669,0.841c-0.817,1.175-1.418,2.47-1.964,3.783
	c-0.542,1.318-1.001,2.669-1.437,4.033c-0.428,1.367-0.82,2.749-1.202,4.141c-0.381,1.388-0.767,2.784-1.155,4.188
	c-0.397,1.397-0.791,2.805-1.239,4.2c-0.44,1.398-0.919,2.791-1.483,4.158c-0.564,1.363-1.205,2.704-1.999,3.96
	c-0.398,0.628-0.844,1.226-1.337,1.782c-0.248,0.28-0.512,0.541-0.786,0.794c-0.278,0.247-0.56,0.487-0.881,0.666
	c-0.637,0.366-1.366,0.588-2.107,0.643c-0.739,0.057-1.504-0.065-2.14-0.444c-0.318-0.189-0.593-0.44-0.805-0.747
	c-0.227-0.306-0.399-0.629-0.527-0.984c-0.25-0.707-0.298-1.479-0.195-2.23c0.103-0.753,0.345-1.486,0.663-2.182
	c0.322-0.694,0.717-1.358,1.168-1.983c0.902-1.252,2-2.365,3.21-3.34c1.211-0.979,2.55-1.801,3.965-2.469s2.907-1.183,4.428-1.59
	c3.046-0.815,6.2-1.211,9.353-1.631c3.147-0.423,6.332-0.882,9.385-1.886c1.524-0.505,3.008-1.146,4.394-1.968
	c1.38-0.827,2.693-1.804,3.743-3.046c1.048-1.231,1.826-2.733,2.058-4.356c0.112-0.809,0.083-1.645-0.136-2.44
	c-0.109-0.395-0.266-0.781-0.474-1.138c-0.106-0.178-0.22-0.349-0.354-0.513l-0.193-0.233l-0.211-0.228
	c-0.581-0.587-1.295-1.042-2.078-1.315c-0.784-0.272-1.623-0.37-2.45-0.331c-1.658,0.093-3.262,0.669-4.68,1.524
	c-0.361,0.212-0.697,0.443-1.041,0.697c-0.16,0.127-0.32,0.238-0.482,0.377c-0.159,0.137-0.328,0.27-0.477,0.412
	c-0.619,0.559-1.185,1.167-1.711,1.809c-1.044,1.287-1.925,2.688-2.698,4.135c-1.537,2.901-2.677,5.954-3.753,8.996
	c-0.537,1.521-1.042,3.05-1.565,4.566c-0.514,1.52-1.029,3.034-1.578,4.532c-0.542,1.5-1.118,2.983-1.75,4.439
	c-0.63,1.456-1.32,2.884-2.113,4.248c-0.786,1.371-1.681,2.673-2.711,3.861c-0.515,0.594-1.062,1.155-1.65,1.673
	c-0.591,0.517-1.211,0.995-1.886,1.383c-0.672,0.391-1.391,0.706-2.141,0.898c-0.75,0.189-1.535,0.248-2.292,0.115
	c-0.758-0.13-1.471-0.465-2.066-0.949c-0.298-0.241-0.569-0.515-0.81-0.815c-0.064-0.073-0.113-0.15-0.173-0.23
	c-0.047-0.08-0.099-0.154-0.141-0.242c-0.088-0.166-0.159-0.344-0.219-0.525c-0.24-0.727-0.287-1.511-0.224-2.274
	c0.064-0.767,0.248-1.522,0.519-2.24c0.537-1.447,1.418-2.74,2.452-3.866c0.52-0.564,1.082-1.086,1.671-1.573
	c0.584-0.491,1.219-0.918,1.883-1.291c1.329-0.748,2.747-1.312,4.176-1.806c2.865-0.978,5.794-1.676,8.697-2.333
	c2.903-0.65,5.795-1.232,8.648-1.841c2.851-0.612,5.667-1.248,8.416-2.013c1.373-0.382,2.729-0.798,4.058-1.267
	c1.331-0.465,2.633-0.985,3.886-1.593c1.252-0.607,2.452-1.308,3.544-2.15c1.081-0.844,2.06-1.825,2.836-2.942
	c0.768-1.117,1.338-2.383,1.539-3.717c0.201-1.324,0.037-2.739-0.677-3.885c-0.086-0.145-0.182-0.276-0.289-0.413
	c-0.106-0.124-0.201-0.254-0.32-0.371c-0.227-0.253-0.482-0.461-0.742-0.667c-0.531-0.392-1.13-0.689-1.75-0.898
	c-1.25-0.408-2.581-0.448-3.85-0.277c-1.271,0.173-2.498,0.547-3.654,1.038c-0.581,0.243-1.142,0.522-1.688,0.822
	c-0.547,0.297-1.074,0.621-1.591,0.957c-0.255,0.172-0.513,0.34-0.758,0.521c-0.129,0.092-0.248,0.174-0.38,0.274l-0.357,0.273
	c-0.237,0.187-0.482,0.392-0.712,0.591c-0.228,0.206-0.457,0.408-0.673,0.621c-0.877,0.844-1.662,1.761-2.37,2.711
	c-1.417,1.904-2.552,3.921-3.533,5.928c-0.981,2.011-1.818,4.011-2.593,5.962c-0.77,1.954-1.503,3.848-2.204,5.683
	c-1.422,3.661-2.8,7.056-4.355,10.059c-1.543,3.006-3.255,5.617-5.097,7.737c-0.919,1.06-1.858,2.005-2.805,2.826
	c-0.94,0.833-1.891,1.519-2.833,2.068c-1.896,1.086-3.714,1.62-5.199,1.863c-1.491,0.248-2.657,0.228-3.432,0.176
	c-0.387-0.023-0.681-0.061-0.874-0.091c-0.195-0.031-0.29-0.052-0.29-0.052c-0.06-0.015-0.117,0.024-0.13,0.083
	c-0.013,0.059,0.023,0.116,0.083,0.129c0.001,0,0.003,0,0.005,0.001c0,0,0.103,0.019,0.305,0.041
	c0.198,0.022,0.496,0.049,0.89,0.068c0.787,0.032,1.961,0.022,3.462-0.223c1.498-0.251,3.334-0.751,5.285-1.805
	c0.974-0.523,1.972-1.191,2.948-1.997c0.982-0.801,1.979-1.711,2.964-2.744c0.975-1.038,1.948-2.188,2.883-3.46
	c0.938-1.27,1.839-2.655,2.708-4.14c1.733-2.974,3.312-6.351,4.812-10.006c1.518-3.646,2.969-7.577,4.772-11.559
	c0.455-0.991,0.937-1.984,1.46-2.968c0.523-0.984,1.085-1.961,1.722-2.901c0.635-0.939,1.322-1.862,2.109-2.708
	c0.193-0.216,0.399-0.419,0.604-0.626c0.208-0.203,0.409-0.396,0.633-0.595l0.341-0.295c0.1-0.086,0.225-0.184,0.338-0.276
	c0.229-0.189,0.466-0.367,0.705-0.548c0.955-0.712,1.976-1.362,3.073-1.894c1.09-0.536,2.262-0.953,3.482-1.166
	c1.218-0.208,2.501-0.212,3.708,0.156c0.602,0.187,1.179,0.46,1.692,0.833c0.252,0.191,0.502,0.393,0.716,0.625
	c0.112,0.108,0.213,0.241,0.32,0.363c0.094,0.121,0.193,0.251,0.273,0.387c0.688,1.085,0.859,2.452,0.669,3.741
	c-0.188,1.3-0.737,2.546-1.49,3.65c-0.758,1.105-1.716,2.077-2.786,2.926c-1.073,0.837-2.264,1.543-3.506,2.154
	c-2.491,1.224-5.175,2.111-7.915,2.885c-2.743,0.771-5.557,1.414-8.406,2.033c-2.851,0.619-5.742,1.203-8.648,1.843
	c-2.904,0.647-5.836,1.338-8.709,2.312c-1.434,0.495-2.857,1.055-4.196,1.804c-0.669,0.373-1.312,0.8-1.904,1.292
	c-0.597,0.486-1.166,1.008-1.693,1.573c-1.047,1.129-1.948,2.431-2.502,3.894c-0.278,0.73-0.47,1.498-0.54,2.28
	c-0.07,0.78-0.029,1.585,0.217,2.343c0.061,0.19,0.134,0.376,0.228,0.555c0.042,0.09,0.102,0.177,0.151,0.265
	c0.056,0.077,0.112,0.164,0.18,0.238c0.245,0.312,0.523,0.598,0.832,0.849c0.615,0.508,1.361,0.86,2.15,1.001
	c0.792,0.146,1.605,0.086,2.38-0.103c0.777-0.187,1.519-0.5,2.216-0.89c0.348-0.195,0.683-0.41,1.008-0.645
	c0.323-0.229,0.635-0.484,0.94-0.74c0.609-0.512,1.188-1.066,1.728-1.655c0.543-0.586,1.05-1.206,1.53-1.845
	c0.484-0.638,0.94-1.299,1.37-1.976c1.72-2.712,3.081-5.641,4.317-8.612c0.613-1.487,1.195-2.99,1.761-4.495
	c0.556-1.507,1.111-3.018,1.668-4.525c1.112-3.014,2.247-6.014,3.632-8.879c0.699-1.426,1.462-2.821,2.384-4.101
	c0.458-0.641,0.956-1.253,1.503-1.815c0.271-0.281,0.549-0.542,0.862-0.81c0.292-0.245,0.607-0.496,0.929-0.718
	c1.293-0.887,2.786-1.545,4.362-1.688c0.783-0.068,1.583-0.02,2.335,0.223c0.75,0.238,1.443,0.658,2.006,1.212l0.203,0.212
	l0.195,0.23c0.122,0.148,0.234,0.313,0.337,0.479c0.199,0.34,0.353,0.707,0.461,1.086c0.215,0.763,0.25,1.572,0.147,2.36
	c-0.213,1.583-0.964,3.063-1.987,4.285c-1.026,1.233-2.323,2.211-3.687,3.043c-1.373,0.829-2.846,1.479-4.363,1.982
	c-3.042,1.008-6.218,1.478-9.367,1.91c-3.149,0.437-6.308,0.812-9.363,1.623c-1.525,0.404-3.021,0.916-4.446,1.583
	c-1.422,0.666-2.769,1.492-3.993,2.464c-1.224,0.973-2.337,2.083-3.258,3.34c-0.458,0.629-0.865,1.298-1.197,2
	c-0.327,0.706-0.58,1.451-0.691,2.225c-0.112,0.771-0.07,1.574,0.186,2.316c0.128,0.367,0.32,0.727,0.546,1.038
	c0.223,0.326,0.521,0.6,0.859,0.807c0.68,0.413,1.49,0.541,2.261,0.498c0.779-0.047,1.542-0.264,2.224-0.639
	c0.167-0.094,0.344-0.205,0.492-0.316c0.156-0.123,0.304-0.24,0.451-0.364c0.291-0.251,0.573-0.512,0.833-0.792
	c0.529-0.554,0.999-1.155,1.435-1.776c0.874-1.245,1.591-2.583,2.229-3.939c1.272-2.72,2.243-5.533,3.11-8.325
	c0.213-0.699,0.423-1.397,0.634-2.093c0.199-0.698,0.398-1.395,0.598-2.086c0.393-1.386,0.784-2.762,1.175-4.13
	c0.19-0.684,0.387-1.363,0.594-2.033c0.203-0.674,0.408-1.344,0.634-2.003c0.452-1.312,0.944-2.612,1.638-3.775
	c0.17-0.291,0.366-0.564,0.572-0.827c0.106-0.125,0.212-0.258,0.325-0.367c0.101-0.113,0.253-0.24,0.365-0.34
	c0.519-0.433,1.086-0.805,1.693-1.083c0.604-0.276,1.261-0.456,1.917-0.432c0.646,0.018,1.309,0.277,1.68,0.802
	c0.37,0.53,0.538,1.195,0.544,1.844c0.007,0.655-0.148,1.305-0.409,1.903c-0.523,1.206-1.425,2.204-2.404,3.043
	c-0.497,0.428-1.021,0.798-1.563,1.15c-0.552,0.332-1.115,0.646-1.699,0.908c-1.162,0.539-2.373,0.935-3.585,1.277
	c-2.43,0.664-4.868,1.108-7.218,1.714c-2.349,0.595-4.617,1.378-6.646,2.52c-0.255,0.137-0.498,0.297-0.748,0.442
	c-0.245,0.154-0.48,0.319-0.72,0.478c-0.23,0.171-0.461,0.34-0.69,0.511c-0.227,0.176-0.445,0.358-0.652,0.555
	c-0.831,0.775-1.526,1.68-2.03,2.669c-0.499,0.987-0.81,2.086-0.715,3.176c0.047,0.544,0.209,1.073,0.469,1.544
	c0.268,0.469,0.623,0.875,1.025,1.22c0.806,0.69,1.837,1.076,2.866,1.132c1.03,0.063,2.044-0.173,2.954-0.573
	c0.914-0.402,1.727-0.958,2.445-1.602c0.715-0.644,1.323-1.375,1.85-2.138c1.052-1.528,1.785-3.178,2.294-4.818
	c0.492-1.646,0.763-3.303,0.699-4.903c-0.061-1.593-0.455-3.142-1.288-4.401c-0.819-1.232-1.961-2.183-3.222-2.676
	c-1.261-0.496-2.597-0.529-3.732-0.228c-0.565,0.156-1.092,0.373-1.553,0.651c-0.232,0.135-0.447,0.286-0.661,0.447
	c-0.1,0.081-0.182,0.146-0.286,0.235c-0.094,0.082-0.185,0.164-0.273,0.245c-0.704,0.664-1.228,1.375-1.604,2.054
	c-0.757,1.366-0.958,2.554-1.058,3.331c-0.047,0.395-0.059,0.695-0.062,0.896c-0.002,0.202,0.003,0.31,0.003,0.31v0.004
	c0.002,0.06,0.055,0.107,0.114,0.103c0.06-0.004,0.107-0.052,0.104-0.112C17.822,32.055,17.821,32.051,17.821,32.046"/>
<path fill="#C2AC8F" d="M253.748,269.666c0,0,0.092,0.016,0.289,0.021c0.195,0.008,0.49,0.003,0.873-0.044s0.859-0.141,1.395-0.328
	c0.539-0.183,1.143-0.464,1.754-0.881c0.611-0.419,1.219-0.981,1.771-1.69c0.066-0.091,0.135-0.182,0.203-0.273
	c0.064-0.096,0.129-0.192,0.197-0.291c0.115-0.19,0.24-0.389,0.342-0.607c0.213-0.427,0.387-0.894,0.5-1.391
	c0.23-0.99,0.221-2.125-0.199-3.222c-0.211-0.545-0.502-1.081-0.895-1.576c-0.389-0.492-0.865-0.948-1.41-1.347
	c-1.078-0.775-2.492-1.239-4.01-1.367c-1.523-0.127-3.158,0.026-4.787,0.472c-0.816,0.214-1.633,0.505-2.436,0.864
	c-0.803,0.362-1.594,0.79-2.352,1.306c-0.756,0.513-1.48,1.106-2.115,1.802c-0.633,0.695-1.191,1.5-1.59,2.389
	c-0.398,0.886-0.637,1.872-0.582,2.878c0.049,1,0.414,2.006,1.082,2.797c0.332,0.394,0.73,0.745,1.182,1.008
	c0.455,0.256,0.971,0.412,1.5,0.461c1.064,0.097,2.148-0.205,3.127-0.695c0.98-0.494,1.881-1.18,2.652-2.005
	c0.191-0.203,0.377-0.422,0.551-0.641c0.17-0.229,0.342-0.459,0.512-0.69c0.158-0.237,0.322-0.472,0.477-0.714
	c0.145-0.247,0.307-0.489,0.445-0.742c1.15-2.016,1.914-4.287,2.506-6.631c0.596-2.347,1.033-4.787,1.691-7.226
	c0.34-1.216,0.725-2.438,1.26-3.612c0.258-0.588,0.57-1.158,0.9-1.719c0.35-0.547,0.729-1.091,1.148-1.589
	c0.846-1,1.85-1.925,3.092-2.477c0.615-0.271,1.289-0.44,1.977-0.438c0.682,0.002,1.385,0.169,1.969,0.57
	c0.037,0.026,0.07,0.047,0.107,0.081c0.033,0.028,0.064,0.049,0.1,0.083c0.07,0.065,0.129,0.128,0.188,0.198
	c0.111,0.138,0.207,0.291,0.283,0.453c0.15,0.322,0.227,0.674,0.252,1.025c0.039,0.706-0.121,1.409-0.385,2.058
	c-0.264,0.654-0.631,1.259-1.043,1.829c-0.119,0.15-0.207,0.273-0.34,0.416c-0.123,0.141-0.256,0.261-0.387,0.386
	c-0.268,0.237-0.547,0.467-0.84,0.67c-1.176,0.814-2.469,1.416-3.783,1.963c-1.316,0.542-2.668,1.001-4.033,1.436
	c-1.367,0.43-2.748,0.82-4.141,1.203c-1.389,0.381-2.785,0.766-4.189,1.154c-1.396,0.398-2.805,0.791-4.197,1.239
	c-1.398,0.44-2.793,0.92-4.16,1.482c-1.361,0.564-2.703,1.206-3.959,2c-0.627,0.398-1.227,0.844-1.781,1.336
	c-0.281,0.248-0.541,0.514-0.795,0.787c-0.246,0.278-0.486,0.56-0.666,0.88c-0.365,0.638-0.59,1.367-0.645,2.107
	c-0.057,0.739,0.066,1.505,0.445,2.141c0.189,0.317,0.441,0.591,0.746,0.805c0.307,0.227,0.631,0.398,0.984,0.526
	c0.709,0.25,1.479,0.3,2.232,0.195c0.752-0.102,1.484-0.344,2.18-0.662c0.695-0.322,1.359-0.719,1.984-1.169
	c1.252-0.901,2.365-2,3.34-3.209c0.979-1.211,1.801-2.55,2.469-3.967c0.668-1.414,1.182-2.906,1.592-4.428
	c0.814-3.044,1.211-6.198,1.629-9.353c0.426-3.146,0.883-6.331,1.887-9.384c0.506-1.523,1.146-3.009,1.969-4.395
	c0.826-1.38,1.803-2.692,3.045-3.742c1.232-1.05,2.734-1.826,4.357-2.058c0.807-0.112,1.643-0.083,2.439,0.136
	c0.395,0.109,0.781,0.266,1.139,0.474c0.178,0.106,0.35,0.219,0.514,0.354l0.23,0.192l0.23,0.211
	c0.586,0.581,1.041,1.295,1.314,2.079c0.271,0.783,0.371,1.622,0.332,2.447c-0.094,1.659-0.67,3.264-1.525,4.681
	c-0.213,0.362-0.441,0.698-0.697,1.042c-0.127,0.159-0.236,0.32-0.377,0.481c-0.137,0.159-0.27,0.328-0.412,0.477
	c-0.557,0.618-1.166,1.186-1.807,1.712c-1.287,1.044-2.689,1.925-4.137,2.698c-2.902,1.536-5.953,2.677-8.996,3.753
	c-1.521,0.536-3.051,1.042-4.566,1.565c-1.518,0.513-3.033,1.028-4.531,1.578c-1.5,0.542-2.982,1.117-4.438,1.75
	c-1.457,0.631-2.887,1.32-4.248,2.112c-1.373,0.787-2.676,1.683-3.863,2.712c-0.594,0.516-1.154,1.062-1.672,1.65
	c-0.518,0.592-0.994,1.212-1.383,1.886c-0.391,0.672-0.705,1.392-0.898,2.142c-0.189,0.75-0.248,1.534-0.115,2.292
	c0.131,0.758,0.465,1.471,0.949,2.065c0.242,0.299,0.516,0.57,0.814,0.81c0.072,0.065,0.15,0.114,0.232,0.175
	c0.078,0.047,0.152,0.099,0.242,0.141c0.164,0.088,0.344,0.158,0.523,0.219c0.727,0.239,1.51,0.286,2.273,0.224
	c0.768-0.065,1.523-0.247,2.24-0.519c1.447-0.536,2.74-1.419,3.867-2.453c0.562-0.519,1.086-1.081,1.572-1.669
	c0.49-0.587,0.918-1.22,1.289-1.884c0.748-1.328,1.314-2.747,1.809-4.178c0.977-2.864,1.674-5.792,2.33-8.696
	c0.652-2.901,1.232-5.795,1.842-8.646c0.613-2.853,1.248-5.668,2.014-8.416c0.383-1.372,0.799-2.729,1.268-4.058
	c0.465-1.331,0.986-2.633,1.592-3.886c0.607-1.253,1.309-2.453,2.152-3.545c0.844-1.081,1.822-2.06,2.939-2.836
	c1.117-0.769,2.383-1.339,3.717-1.539c1.326-0.201,2.74-0.037,3.887,0.677c0.143,0.086,0.275,0.183,0.41,0.289
	c0.125,0.106,0.256,0.2,0.373,0.32c0.254,0.227,0.461,0.482,0.668,0.742c0.391,0.531,0.688,1.131,0.898,1.75
	c0.406,1.251,0.447,2.581,0.275,3.85c-0.172,1.271-0.547,2.498-1.037,3.654c-0.244,0.581-0.523,1.141-0.822,1.688
	c-0.297,0.547-0.621,1.073-0.957,1.592c-0.172,0.255-0.34,0.513-0.52,0.758c-0.094,0.128-0.176,0.247-0.277,0.38l-0.273,0.357
	c-0.184,0.237-0.391,0.481-0.59,0.711c-0.207,0.229-0.406,0.458-0.621,0.675c-0.844,0.877-1.76,1.661-2.711,2.37
	c-1.904,1.417-3.922,2.552-5.928,3.531c-2.01,0.982-4.012,1.818-5.961,2.595c-1.955,0.768-3.85,1.502-5.684,2.203
	c-3.662,1.422-7.057,2.8-10.059,4.354c-3.006,1.542-5.619,3.256-7.738,5.097c-1.061,0.92-2.006,1.857-2.826,2.806
	c-0.83,0.94-1.518,1.891-2.068,2.834c-1.086,1.896-1.619,3.714-1.861,5.198c-0.248,1.489-0.229,2.656-0.178,3.43
	c0.023,0.389,0.062,0.683,0.092,0.876c0.031,0.195,0.053,0.289,0.053,0.289c0.016,0.06-0.023,0.117-0.084,0.13
	c-0.057,0.013-0.115-0.023-0.127-0.083c0-0.003,0-0.003-0.004-0.006c0,0-0.018-0.104-0.039-0.305
	c-0.023-0.197-0.049-0.497-0.068-0.891c-0.033-0.786-0.023-1.961,0.223-3.461c0.252-1.498,0.752-3.334,1.805-5.285
	c0.523-0.974,1.193-1.972,1.998-2.948c0.799-0.981,1.711-1.979,2.742-2.964c1.039-0.977,2.188-1.948,3.461-2.883
	c1.27-0.938,2.654-1.839,4.139-2.709c2.975-1.732,6.354-3.311,10.008-4.811c3.645-1.519,7.576-2.969,11.559-4.774
	c0.992-0.453,1.984-0.935,2.969-1.458s1.961-1.086,2.9-1.722c0.938-0.636,1.863-1.323,2.709-2.109
	c0.217-0.193,0.42-0.398,0.625-0.604c0.203-0.209,0.396-0.409,0.598-0.633l0.293-0.342c0.086-0.102,0.186-0.227,0.277-0.338
	c0.189-0.229,0.367-0.467,0.549-0.706c0.711-0.953,1.361-1.975,1.895-3.073c0.535-1.089,0.953-2.261,1.164-3.482
	c0.207-1.217,0.213-2.5-0.156-3.706c-0.186-0.602-0.459-1.18-0.832-1.693c-0.191-0.252-0.393-0.503-0.625-0.716
	c-0.109-0.112-0.242-0.214-0.365-0.32c-0.119-0.094-0.25-0.193-0.385-0.273c-1.086-0.688-2.453-0.859-3.742-0.67
	c-1.301,0.188-2.545,0.737-3.648,1.49c-1.107,0.758-2.08,1.716-2.928,2.787c-0.836,1.072-1.543,2.263-2.154,3.505
	c-1.225,2.49-2.109,5.176-2.883,7.915c-0.771,2.743-1.414,5.556-2.035,8.405c-0.617,2.852-1.203,5.743-1.842,8.649
	c-0.648,2.904-1.338,5.837-2.312,8.71c-0.494,1.433-1.055,2.856-1.805,4.195c-0.373,0.67-0.799,1.312-1.291,1.904
	c-0.484,0.597-1.008,1.164-1.574,1.692c-1.127,1.048-2.43,1.948-3.893,2.501c-0.73,0.278-1.498,0.472-2.279,0.542
	s-1.586,0.028-2.344-0.22c-0.191-0.06-0.375-0.133-0.555-0.227c-0.09-0.041-0.178-0.102-0.264-0.15
	c-0.078-0.058-0.164-0.112-0.24-0.18c-0.312-0.245-0.596-0.523-0.848-0.834c-0.508-0.614-0.859-1.359-1-2.148
	c-0.146-0.792-0.086-1.607,0.102-2.381c0.188-0.778,0.5-1.519,0.891-2.216c0.195-0.35,0.408-0.683,0.643-1.008
	c0.229-0.323,0.484-0.636,0.74-0.94c0.512-0.609,1.066-1.188,1.656-1.729c0.586-0.542,1.205-1.05,1.844-1.529
	c0.639-0.484,1.299-0.939,1.977-1.37c2.711-1.721,5.641-3.081,8.611-4.317c1.486-0.612,2.99-1.196,4.494-1.761
	c1.508-0.555,3.02-1.11,4.527-1.667c3.014-1.112,6.014-2.248,8.879-3.634c1.424-0.698,2.82-1.461,4.1-2.383
	c0.641-0.458,1.252-0.956,1.814-1.503c0.281-0.271,0.543-0.55,0.811-0.862c0.244-0.291,0.498-0.606,0.719-0.93
	c0.885-1.292,1.545-2.784,1.688-4.362c0.068-0.781,0.02-1.584-0.223-2.334c-0.238-0.75-0.658-1.442-1.213-2.005l-0.213-0.203
	l-0.229-0.195c-0.148-0.123-0.316-0.235-0.48-0.339c-0.34-0.198-0.707-0.352-1.086-0.461c-0.762-0.214-1.572-0.25-2.359-0.146
	c-1.584,0.214-3.062,0.964-4.285,1.987c-1.234,1.026-2.211,2.323-3.043,3.686c-0.828,1.373-1.477,2.847-1.982,4.362
	c-1.008,3.043-1.477,6.22-1.91,9.369c-0.438,3.148-0.812,6.308-1.621,9.363c-0.404,1.523-0.918,3.021-1.584,4.445
	c-0.664,1.422-1.492,2.769-2.465,3.993c-0.971,1.224-2.084,2.336-3.338,3.258c-0.631,0.459-1.301,0.865-2,1.195
	c-0.707,0.329-1.451,0.581-2.225,0.693c-0.771,0.112-1.576,0.07-2.318-0.188c-0.367-0.128-0.727-0.32-1.037-0.545
	c-0.324-0.224-0.602-0.521-0.807-0.859c-0.414-0.68-0.543-1.489-0.498-2.261c0.047-0.778,0.264-1.542,0.639-2.224
	c0.094-0.167,0.205-0.344,0.318-0.492c0.121-0.156,0.238-0.305,0.361-0.451c0.252-0.291,0.514-0.573,0.791-0.833
	c0.555-0.529,1.156-1,1.777-1.436c1.244-0.875,2.584-1.591,3.939-2.229c2.721-1.273,5.533-2.242,8.324-3.109
	c0.701-0.214,1.398-0.425,2.094-0.636c0.699-0.198,1.395-0.398,2.088-0.597c1.385-0.393,2.76-0.783,4.127-1.174
	c0.686-0.19,1.365-0.389,2.035-0.595c0.674-0.203,1.344-0.408,2.002-0.635c1.312-0.451,2.613-0.943,3.773-1.639
	c0.293-0.169,0.566-0.364,0.828-0.57c0.125-0.106,0.258-0.214,0.367-0.325c0.113-0.102,0.24-0.253,0.34-0.365
	c0.432-0.518,0.805-1.086,1.084-1.692c0.275-0.604,0.455-1.261,0.432-1.917c-0.018-0.646-0.279-1.311-0.803-1.68
	c-0.531-0.37-1.195-0.54-1.844-0.545c-0.656-0.008-1.305,0.148-1.904,0.409c-1.205,0.523-2.203,1.425-3.041,2.404
	c-0.43,0.494-0.801,1.021-1.152,1.562c-0.33,0.552-0.645,1.114-0.906,1.698c-0.539,1.161-0.936,2.372-1.279,3.586
	c-0.664,2.431-1.105,4.868-1.713,7.217c-0.594,2.35-1.377,4.618-2.52,6.647c-0.137,0.255-0.297,0.497-0.441,0.747
	c-0.154,0.245-0.32,0.479-0.48,0.719c-0.168,0.232-0.338,0.461-0.51,0.69c-0.174,0.227-0.357,0.445-0.555,0.653
	c-0.773,0.831-1.68,1.526-2.67,2.029c-0.986,0.5-2.086,0.81-3.174,0.716c-0.545-0.047-1.074-0.211-1.545-0.469
	c-0.469-0.268-0.875-0.622-1.223-1.025c-0.689-0.805-1.074-1.837-1.129-2.865c-0.066-1.031,0.172-2.045,0.572-2.953
	c0.4-0.915,0.959-1.728,1.602-2.446c0.645-0.716,1.375-1.323,2.139-1.849c1.525-1.053,3.178-1.787,4.818-2.295
	c1.646-0.492,3.303-0.764,4.902-0.701c1.594,0.062,3.143,0.456,4.4,1.29c1.232,0.817,2.184,1.961,2.678,3.222
	c0.496,1.261,0.529,2.597,0.227,3.732c-0.156,0.564-0.373,1.091-0.65,1.552c-0.137,0.232-0.287,0.448-0.445,0.662
	c-0.082,0.099-0.146,0.182-0.238,0.286c-0.08,0.094-0.164,0.185-0.244,0.273c-0.664,0.703-1.375,1.227-2.053,1.604
	c-1.367,0.755-2.555,0.958-3.33,1.058c-0.396,0.047-0.695,0.057-0.896,0.062c-0.203,0.002-0.311-0.003-0.311-0.003h-0.004
	c-0.061-0.003-0.107-0.055-0.102-0.114c0.002-0.061,0.051-0.107,0.111-0.104C253.738,269.663,253.742,269.666,253.748,269.666"/>
<path fill="#C2AC8F" d="M256.801,18.737c0,0,0.092-0.017,0.289-0.021c0.195-0.009,0.49-0.002,0.873,0.043
	c0.383,0.047,0.859,0.141,1.396,0.329c0.539,0.182,1.141,0.463,1.752,0.88c0.611,0.419,1.221,0.982,1.771,1.692
	c0.068,0.09,0.137,0.181,0.203,0.272c0.066,0.097,0.131,0.193,0.197,0.292c0.115,0.19,0.24,0.389,0.342,0.607
	c0.213,0.427,0.389,0.893,0.5,1.391c0.232,0.99,0.223,2.125-0.197,3.222c-0.211,0.544-0.504,1.081-0.896,1.576
	c-0.389,0.492-0.865,0.95-1.408,1.347c-1.078,0.776-2.492,1.24-4.012,1.367c-1.523,0.128-3.158-0.026-4.787-0.47
	c-0.816-0.215-1.635-0.505-2.436-0.866c-0.803-0.361-1.594-0.789-2.352-1.305c-0.756-0.513-1.479-1.106-2.115-1.802
	c-0.633-0.696-1.189-1.5-1.588-2.387c-0.4-0.887-0.639-1.874-0.584-2.879c0.049-1,0.414-2.005,1.082-2.797
	c0.332-0.393,0.73-0.745,1.182-1.006c0.455-0.255,0.971-0.413,1.5-0.462c1.064-0.096,2.148,0.206,3.127,0.695
	c0.98,0.496,1.883,1.181,2.652,2.005c0.193,0.203,0.377,0.422,0.551,0.642c0.17,0.229,0.342,0.457,0.512,0.689
	c0.158,0.237,0.324,0.471,0.477,0.714c0.146,0.247,0.307,0.489,0.445,0.743c1.15,2.016,1.914,4.286,2.506,6.63
	c0.598,2.348,1.033,4.787,1.693,7.227c0.338,1.215,0.723,2.437,1.256,3.611c0.26,0.59,0.572,1.159,0.902,1.719
	c0.35,0.548,0.729,1.091,1.15,1.588c0.846,1.001,1.848,1.925,3.09,2.477c0.615,0.271,1.291,0.44,1.979,0.438
	c0.682-0.002,1.383-0.169,1.969-0.569c0.035-0.026,0.07-0.048,0.105-0.082c0.035-0.027,0.066-0.05,0.1-0.083
	c0.068-0.064,0.129-0.127,0.186-0.198c0.113-0.138,0.209-0.292,0.285-0.452c0.15-0.323,0.227-0.676,0.252-1.027
	c0.041-0.706-0.123-1.409-0.385-2.058c-0.262-0.654-0.629-1.258-1.043-1.828c-0.117-0.151-0.207-0.274-0.34-0.416
	c-0.123-0.141-0.254-0.262-0.385-0.387c-0.268-0.237-0.547-0.466-0.842-0.668c-1.174-0.816-2.471-1.418-3.783-1.965
	c-1.316-0.542-2.67-1-4.033-1.435c-1.367-0.429-2.748-0.82-4.141-1.202c-1.389-0.381-2.783-0.767-4.188-1.155
	c-1.398-0.399-2.805-0.792-4.201-1.24c-1.398-0.439-2.789-0.919-4.156-1.482c-1.365-0.563-2.705-1.205-3.961-2
	c-0.627-0.398-1.225-0.844-1.781-1.336c-0.281-0.248-0.541-0.513-0.795-0.786c-0.248-0.278-0.486-0.56-0.666-0.881
	c-0.365-0.638-0.588-1.368-0.643-2.107c-0.057-0.738,0.064-1.505,0.443-2.141c0.189-0.316,0.441-0.591,0.746-0.805
	c0.307-0.226,0.629-0.398,0.984-0.526c0.709-0.25,1.48-0.299,2.232-0.195c0.752,0.103,1.484,0.344,2.18,0.662
	c0.695,0.323,1.359,0.719,1.984,1.169c1.252,0.901,2.365,2,3.34,3.21c0.98,1.21,1.801,2.549,2.469,3.965
	c0.668,1.415,1.184,2.907,1.59,4.428c0.816,3.046,1.213,6.2,1.633,9.353c0.424,3.147,0.881,6.332,1.885,9.385
	c0.506,1.522,1.146,3.007,1.969,4.393c0.826,1.38,1.803,2.693,3.045,3.743c1.23,1.05,2.734,1.826,4.357,2.058
	c0.809,0.112,1.645,0.083,2.439-0.136c0.395-0.109,0.781-0.266,1.139-0.474c0.178-0.107,0.35-0.219,0.514-0.354l0.232-0.192
	l0.229-0.211c0.586-0.581,1.041-1.294,1.314-2.078c0.271-0.784,0.369-1.623,0.33-2.448c-0.092-1.659-0.668-3.262-1.523-4.68
	c-0.211-0.361-0.441-0.698-0.695-1.041c-0.129-0.16-0.238-0.32-0.379-0.482c-0.137-0.16-0.27-0.33-0.41-0.478
	c-0.559-0.617-1.168-1.185-1.811-1.71c-1.285-1.044-2.688-1.926-4.135-2.7c-2.9-1.537-5.953-2.677-8.994-3.751
	c-1.521-0.537-3.051-1.043-4.566-1.565c-1.52-0.514-3.035-1.029-4.531-1.58c-1.502-0.541-2.984-1.117-4.439-1.749
	c-1.457-0.631-2.885-1.322-4.248-2.113c-1.371-0.787-2.674-1.683-3.861-2.711c-0.594-0.515-1.156-1.063-1.674-1.651
	c-0.518-0.591-0.994-1.21-1.383-1.886c-0.391-0.672-0.707-1.391-0.898-2.141c-0.189-0.75-0.248-1.534-0.115-2.292
	c0.131-0.757,0.465-1.472,0.949-2.065c0.24-0.298,0.516-0.57,0.816-0.81c0.072-0.065,0.148-0.115,0.23-0.175
	c0.078-0.045,0.152-0.099,0.242-0.139c0.164-0.09,0.344-0.159,0.523-0.22c0.727-0.239,1.512-0.286,2.273-0.224
	c0.768,0.065,1.523,0.247,2.24,0.52c1.447,0.535,2.74,1.418,3.867,2.452c0.564,0.518,1.086,1.081,1.572,1.669
	c0.492,0.586,0.918,1.219,1.291,1.883c0.748,1.329,1.311,2.748,1.807,4.178c0.979,2.865,1.676,5.794,2.332,8.697
	c0.65,2.902,1.232,5.795,1.842,8.647c0.611,2.852,1.248,5.667,2.014,8.415c0.381,1.373,0.797,2.729,1.266,4.058
	c0.465,1.331,0.984,2.633,1.594,3.886c0.605,1.252,1.307,2.454,2.15,3.544c0.844,1.081,1.824,2.061,2.941,2.836
	c1.117,0.769,2.383,1.339,3.717,1.54c1.324,0.2,2.738,0.036,3.885-0.677c0.145-0.086,0.275-0.183,0.412-0.289
	c0.123-0.107,0.254-0.201,0.371-0.32c0.252-0.227,0.461-0.482,0.666-0.743c0.393-0.531,0.689-1.13,0.898-1.75
	c0.408-1.25,0.449-2.581,0.279-3.85c-0.174-1.271-0.549-2.498-1.039-3.654c-0.244-0.581-0.521-1.141-0.822-1.688
	c-0.297-0.547-0.621-1.073-0.957-1.591c-0.172-0.255-0.34-0.513-0.52-0.758c-0.094-0.128-0.176-0.248-0.275-0.38l-0.273-0.357
	c-0.186-0.237-0.393-0.482-0.592-0.711c-0.205-0.229-0.406-0.458-0.621-0.674c-0.844-0.878-1.76-1.662-2.711-2.37
	c-1.904-1.417-3.922-2.553-5.928-3.532c-2.012-0.982-4.012-1.818-5.963-2.594c-1.953-0.769-3.848-1.501-5.682-2.204
	c-3.66-1.42-7.057-2.8-10.059-4.354c-3.006-1.543-5.617-3.257-7.736-5.098c-1.061-0.919-2.006-1.857-2.826-2.805
	c-0.832-0.939-1.52-1.89-2.068-2.833c-1.086-1.897-1.621-3.715-1.863-5.2c-0.248-1.49-0.229-2.657-0.176-3.43
	c0.023-0.388,0.061-0.681,0.09-0.875c0.031-0.195,0.053-0.289,0.053-0.289c0.014-0.059-0.025-0.117-0.084-0.13
	s-0.115,0.023-0.129,0.083c0,0.002,0,0.004,0,0.005c0,0-0.02,0.104-0.041,0.305c-0.021,0.198-0.049,0.498-0.068,0.891
	c-0.031,0.787-0.021,1.961,0.223,3.462c0.252,1.497,0.752,3.334,1.807,5.283c0.523,0.974,1.191,1.972,1.996,2.949
	c0.801,0.982,1.711,1.979,2.744,2.964c1.037,0.977,2.188,1.948,3.459,2.883c1.27,0.938,2.656,1.838,4.141,2.708
	c2.975,1.732,6.35,3.312,10.006,4.812c3.646,1.517,7.576,2.969,11.559,4.772c0.992,0.453,1.984,0.935,2.969,1.46
	c0.984,0.523,1.961,1.085,2.9,1.72c0.939,0.636,1.863,1.323,2.709,2.11c0.217,0.192,0.42,0.398,0.627,0.604
	c0.203,0.208,0.396,0.409,0.596,0.633l0.295,0.341c0.086,0.102,0.184,0.227,0.275,0.339c0.189,0.229,0.367,0.466,0.549,0.706
	c0.713,0.953,1.361,1.974,1.893,3.073c0.537,1.089,0.953,2.261,1.166,3.482c0.209,1.216,0.213,2.5-0.156,3.706
	c-0.186,0.602-0.459,1.18-0.832,1.693c-0.191,0.253-0.393,0.503-0.625,0.716c-0.107,0.112-0.24,0.214-0.363,0.32
	c-0.121,0.094-0.252,0.193-0.387,0.273c-1.084,0.688-2.453,0.86-3.742,0.669c-1.299-0.188-2.545-0.737-3.65-1.49
	c-1.105-0.758-2.076-1.716-2.926-2.787c-0.836-1.073-1.543-2.264-2.154-3.506c-1.223-2.49-2.109-5.175-2.883-7.915
	c-0.771-2.743-1.416-5.556-2.033-8.405c-0.619-2.852-1.203-5.742-1.844-8.649c-0.646-2.904-1.338-5.837-2.312-8.709
	c-0.494-1.433-1.055-2.857-1.803-4.196c-0.373-0.669-0.801-1.312-1.293-1.904c-0.484-0.596-1.008-1.164-1.572-1.693
	c-1.129-1.047-2.432-1.948-3.895-2.5c-0.73-0.278-1.498-0.471-2.279-0.542c-0.781-0.069-1.586-0.027-2.344,0.219
	c-0.189,0.061-0.375,0.133-0.555,0.227c-0.09,0.042-0.176,0.102-0.264,0.152c-0.076,0.056-0.164,0.112-0.238,0.178
	c-0.312,0.245-0.598,0.524-0.85,0.833c-0.508,0.615-0.861,1.36-1.002,2.15c-0.145,0.79-0.086,1.605,0.104,2.379
	c0.186,0.779,0.5,1.519,0.889,2.216c0.195,0.349,0.41,0.683,0.646,1.009c0.229,0.323,0.484,0.634,0.738,0.939
	c0.512,0.611,1.066,1.189,1.656,1.729c0.586,0.542,1.205,1.05,1.844,1.53c0.639,0.483,1.301,0.939,1.977,1.369
	c2.713,1.722,5.641,3.083,8.611,4.318c1.488,0.613,2.99,1.195,4.496,1.761c1.506,0.555,3.018,1.111,4.525,1.667
	c3.014,1.112,6.014,2.248,8.879,3.633c1.426,0.698,2.82,1.461,4.1,2.385c0.641,0.458,1.254,0.956,1.816,1.503
	c0.281,0.271,0.541,0.548,0.811,0.86c0.244,0.292,0.496,0.607,0.717,0.93c0.887,1.292,1.545,2.784,1.688,4.362
	c0.068,0.781,0.02,1.583-0.223,2.334c-0.238,0.75-0.658,1.443-1.213,2.005l-0.211,0.203l-0.23,0.195
	c-0.148,0.123-0.314,0.234-0.48,0.338c-0.34,0.198-0.707,0.352-1.086,0.461c-0.764,0.214-1.572,0.25-2.359,0.146
	c-1.584-0.213-3.062-0.963-4.285-1.987c-1.232-1.026-2.211-2.323-3.043-3.685c-0.828-1.373-1.479-2.847-1.982-4.363
	c-1.008-3.042-1.477-6.22-1.91-9.369c-0.436-3.148-0.811-6.307-1.623-9.362c-0.402-1.525-0.914-3.022-1.582-4.446
	c-0.664-1.423-1.492-2.769-2.463-3.994c-0.973-1.223-2.084-2.336-3.34-3.257c-0.629-0.46-1.299-0.865-2.002-1.197
	c-0.705-0.328-1.449-0.581-2.223-0.693c-0.771-0.112-1.574-0.07-2.318,0.188c-0.367,0.128-0.727,0.32-1.037,0.544
	c-0.326,0.224-0.6,0.522-0.807,0.859c-0.414,0.68-0.541,1.49-0.498,2.262c0.047,0.777,0.264,1.541,0.639,2.224
	c0.094,0.167,0.205,0.343,0.316,0.491c0.123,0.156,0.24,0.305,0.363,0.452c0.252,0.291,0.512,0.572,0.793,0.832
	c0.553,0.53,1.154,1,1.775,1.437c1.246,0.874,2.582,1.59,3.939,2.229c2.721,1.272,5.533,2.243,8.326,3.11
	c0.699,0.212,1.396,0.423,2.092,0.634c0.699,0.199,1.395,0.398,2.086,0.596c1.387,0.394,2.764,0.785,4.131,1.175
	c0.684,0.19,1.363,0.388,2.031,0.594c0.676,0.203,1.346,0.409,2.004,0.635c1.312,0.452,2.611,0.943,3.775,1.639
	c0.291,0.17,0.564,0.364,0.826,0.57c0.125,0.106,0.258,0.213,0.367,0.326c0.113,0.102,0.24,0.252,0.34,0.364
	c0.434,0.52,0.805,1.086,1.082,1.693c0.277,0.604,0.457,1.262,0.434,1.917c-0.02,0.647-0.277,1.31-0.803,1.68
	c-0.529,0.37-1.195,0.539-1.844,0.544c-0.654,0.008-1.305-0.148-1.902-0.408c-1.207-0.525-2.203-1.425-3.043-2.405
	c-0.43-0.495-0.799-1.021-1.15-1.563c-0.332-0.552-0.646-1.115-0.908-1.698c-0.539-1.162-0.936-2.373-1.277-3.585
	c-0.664-2.431-1.107-4.869-1.713-7.218c-0.596-2.349-1.379-4.618-2.521-6.646c-0.137-0.255-0.297-0.499-0.441-0.748
	c-0.154-0.245-0.32-0.48-0.479-0.72c-0.17-0.231-0.34-0.461-0.51-0.69c-0.176-0.227-0.359-0.445-0.555-0.652
	c-0.775-0.833-1.682-1.526-2.67-2.03c-0.988-0.5-2.086-0.81-3.176-0.715c-0.545,0.047-1.074,0.209-1.545,0.467
	c-0.469,0.27-0.875,0.623-1.221,1.026c-0.689,0.806-1.076,1.837-1.131,2.865c-0.064,1.031,0.172,2.044,0.572,2.954
	c0.402,0.914,0.959,1.727,1.602,2.446c0.643,0.716,1.375,1.323,2.139,1.849c1.527,1.052,3.178,1.787,4.818,2.294
	c1.646,0.494,3.303,0.765,4.902,0.701c1.594-0.062,3.143-0.456,4.402-1.289c1.232-0.818,2.182-1.961,2.676-3.221
	c0.496-1.262,0.529-2.597,0.229-3.732c-0.156-0.566-0.373-1.092-0.652-1.553c-0.135-0.232-0.285-0.448-0.445-0.662
	c-0.082-0.099-0.146-0.181-0.236-0.287c-0.082-0.092-0.164-0.184-0.244-0.272c-0.664-0.704-1.375-1.228-2.055-1.606
	c-1.365-0.755-2.553-0.958-3.33-1.058c-0.395-0.047-0.695-0.057-0.896-0.062c-0.203-0.002-0.311,0.003-0.311,0.003l-0.004,0.001
	c-0.061,0.003-0.107,0.054-0.104,0.113c0.004,0.06,0.053,0.107,0.113,0.104C256.791,18.739,256.795,18.737,256.801,18.737"/>
<g>
	<g>
		<path fill="#8F7A5B" d="M106.628,102.547c-1.486-1.427-4.071-2.289-6.151-2.289c-3.803,0-6.418,2.793-6.418,6.122
			c0,3.032,2.229,6.062,6.746,6.062c1.783,0,3.982-0.446,5.141-1.189v-3.06h-5.617v-2.942h8.619v7.607
			c-2.289,1.545-5.527,2.526-8.351,2.526c-5.735,0-9.985-4.071-9.985-9.034c0-4.994,4.309-9.035,9.837-9.035
			c2.882,0,5.974,1.129,8.469,3.18L106.628,102.547z"/>
		<path fill="#8F7A5B" d="M116.315,114.79V97.911h3.297v16.879H116.315z"/>
		<path fill="#8F7A5B" d="M127.813,114.79V97.911h9.925c2.646,0,4.281,0.743,5.38,1.872c0.891,0.921,1.426,2.109,1.426,3.417
			c0,2.317-1.665,4.102-3.923,4.845l4.221,6.745h-3.805l-3.804-6.271h-6.122v6.271H127.813z M131.112,100.852v4.756h7.103
			c1.665,0,3.032-1.101,3.032-2.378c0-0.535-0.237-1.041-0.595-1.427c-0.772-0.862-1.783-0.951-2.913-0.951H131.112z"/>
		<path fill="#8F7A5B" d="M154.857,97.911v13.938h10.99v2.941h-14.293V97.911H154.857z"/>
		<path fill="#8F7A5B" d="M184.51,102.101c-0.979-0.832-3.326-1.902-6.654-1.902c-2.111,0-3.865,0.564-3.865,2.169
			c0,1.634,2.586,1.694,5.26,1.873c3.24,0.208,8.352,0.535,8.352,5.378c0,4.161-3.625,5.766-7.934,5.766
			c-4.816,0-7.936-1.902-9.984-3.626l1.988-2.288c1.459,1.189,4.016,3.032,8.055,3.032c2.557,0,4.547-0.744,4.547-2.438
			c0-1.901-1.842-2.376-5.023-2.615c-4.012-0.296-8.586-0.594-8.586-4.784c0-4.131,3.98-5.35,7.311-5.35
			c3.832,0,7.104,1.427,8.557,2.496L184.51,102.101z"/>
		<path fill="#8F7A5B" d="M192.059,101.982c1.426-0.357,3.803-1.636,3.803-3.21v-0.238c-0.24,0.059-0.504,0.148-0.801,0.148
			c-1.281,0-2.232-0.832-2.232-1.932s0.951-1.961,2.232-1.961c1.572,0,3.09,1.337,3.09,3.18c0,3.536-3.033,5.141-5.201,5.884
			L192.059,101.982z"/>
		<path fill="#8F7A5B" d="M111.904,133.568v16.882h-2.913l-10.104-10.969h-0.029v10.969h-3.299v-16.882h2.912l10.104,10.967h0.03
			v-10.967H111.904z"/>
		<path fill="#8F7A5B" d="M120.103,150.45v-16.882h3.299v16.882H120.103z"/>
		<path fill="#8F7A5B" d="M146.016,138.205c-1.485-1.427-4.071-2.288-6.152-2.288c-3.803,0-6.418,2.793-6.418,6.12
			c0,3.031,2.229,6.064,6.746,6.064c1.784,0,3.983-0.445,5.141-1.189v-3.06h-5.617v-2.943h8.619v7.608
			c-2.287,1.546-5.527,2.525-8.35,2.525c-5.736,0-9.986-4.071-9.986-9.033c0-4.993,4.309-9.034,9.837-9.034
			c2.883,0,5.974,1.129,8.47,3.18L146.016,138.205z"/>
		<path fill="#8F7A5B" d="M155.699,150.45v-16.882H159v6.182h9.447v-6.182h3.301v16.882h-3.301v-7.759H159v7.759H155.699z"/>
		<path fill="#8F7A5B" d="M177.602,133.568h17.531v2.942h-7.102v13.94h-3.297v-13.94h-7.133V133.568z"/>
		<path fill="#8F7A5B" d="M130.251,186.105v-16.878h3.298v16.878H130.251z"/>
		<path fill="#8F7A5B" d="M158.098,169.228v16.878h-2.916l-10.102-10.964h-0.031v10.964h-3.298v-16.878h2.912l10.104,10.963h0.031
			v-10.963H158.098z"/>
	</g>
	<path fill="#8F7A5B" d="M136.718,59.412c0,0-0.108,0.439-0.43,1.193c-0.328,0.751-0.849,1.843-1.738,3.088
		c-0.895,1.238-2.171,2.617-3.895,3.879c-1.729,1.25-3.93,2.325-6.469,3.007c-1.271,0.337-2.62,0.581-4.027,0.751
		c-1.398,0.145-2.89,0.209-4.365,0.199c-2.997,0.012-6.148-0.229-9.385-0.681c-1.617-0.227-3.251-0.518-4.898-0.844
		c-1.645-0.336-3.294-0.742-4.95-1.16c-3.309-0.852-6.638-1.778-9.947-2.729c-3.315-0.927-6.64-1.764-9.946-2.413
		c-3.309-0.636-6.611-1.013-9.825-1.101c-3.201-0.095-6.288,0.426-9.067,1.388c-2.789,0.947-5.202,2.431-7.183,4.064
		c-0.992,0.819-1.877,1.684-2.656,2.561c-0.772,0.885-1.431,1.784-2.001,2.659c-1.132,1.761-1.88,3.44-2.329,4.871
		c-0.459,1.428-0.646,2.596-0.73,3.389c-0.056,0.396-0.062,0.703-0.078,0.91c-0.014,0.205-0.019,0.311-0.019,0.311l0,0.013
		c-0.009,0.111-0.103,0.195-0.214,0.189c-0.111-0.008-0.195-0.104-0.189-0.216v-0.002c0,0,0.01-0.109,0.026-0.32
		c0.021-0.211,0.032-0.526,0.097-0.932c0.104-0.81,0.319-1.998,0.813-3.439c0.499-1.437,1.231-3.147,2.391-4.924
		c1.153-1.771,2.689-3.632,4.681-5.32c1.98-1.694,4.429-3.184,7.225-4.267c2.792-1.092,5.958-1.678,9.235-1.767
		c1.632-0.032,3.292,0.002,4.971,0.104c1.679,0.111,3.372,0.303,5.07,0.55c3.4,0.477,6.79,1.301,10.14,2.182
		c3.356,0.863,6.651,1.897,9.923,2.757c3.271,0.866,6.503,1.631,9.665,2.188c3.162,0.537,6.258,0.879,9.195,0.99
		c1.493,0.066,2.891,0.058,4.275-0.029c1.373-0.108,2.69-0.31,3.933-0.598c2.485-0.589,4.649-1.564,6.368-2.729
		c1.723-1.164,2.975-2.515,3.857-3.716c0.874-1.211,1.409-2.265,1.698-3.009c0.297-0.745,0.387-1.149,0.387-1.149
		c0.023-0.109,0.132-0.178,0.24-0.153c0.109,0.023,0.178,0.131,0.154,0.24l-0.001,0.003L136.718,59.412z"/>
	<path fill="#8F7A5B" d="M54.125,59.397c0,0,0.859-0.902,2.627-2.094c0.881-0.6,1.995-1.259,3.324-1.915
		c1.331-0.655,2.889-1.276,4.633-1.82c1.747-0.537,3.69-0.961,5.773-1.216c2.089-0.251,4.289-0.384,6.608-0.24
		c2.303,0.145,4.657,0.58,6.989,1.196c2.336,0.609,4.641,1.42,6.914,2.257c2.271,0.847,4.518,1.717,6.742,2.506
		c2.225,0.791,4.432,1.491,6.597,2.056c4.329,1.138,8.512,1.625,12.108,1.642c1.803,0.006,3.434-0.117,4.882-0.328
		c1.444-0.211,2.684-0.513,3.68-0.837c0.994-0.326,1.74-0.677,2.225-0.949c0.242-0.139,0.42-0.253,0.538-0.333
		c0.109-0.078,0.166-0.12,0.166-0.12l0.018-0.012c0.09-0.065,0.215-0.045,0.28,0.045c0.066,0.09,0.045,0.217-0.045,0.281
		c-0.001,0.001-0.004,0.002-0.006,0.004c0,0-0.065,0.045-0.196,0.134c-0.128,0.079-0.32,0.193-0.575,0.328
		c-0.507,0.273-1.27,0.635-2.275,1c-1.002,0.369-2.251,0.738-3.714,1.017c-1.456,0.283-3.141,0.48-4.962,0.563
		c-1.827,0.091-3.814,0.079-5.912-0.081c-2.097-0.162-4.296-0.497-6.54-0.978c-2.248-0.474-4.524-1.152-6.791-1.931
		c-2.273-0.771-4.527-1.667-6.778-2.531c-2.247-0.875-4.49-1.719-6.729-2.425c-2.241-0.701-4.496-1.202-6.708-1.468
		c-2.196-0.249-4.397-0.252-6.44-0.087c-2.051,0.17-3.975,0.51-5.712,0.973c-1.743,0.453-3.292,1.046-4.615,1.671
		c-1.33,0.613-2.422,1.282-3.29,1.871c-0.872,0.587-1.495,1.13-1.913,1.502c-0.416,0.377-0.607,0.594-0.607,0.594
		c-0.074,0.082-0.202,0.09-0.284,0.017c-0.084-0.075-0.091-0.202-0.018-0.285C54.119,59.403,54.123,59.398,54.125,59.397"/>
	<path fill="#8F7A5B" d="M87.262,202.245c0,0-0.628,0.811-2.191,1.722c-1.558,0.906-4.058,1.891-7.379,2.318
		c-1.656,0.213-3.504,0.359-5.521,0.231c-0.5-0.026-1.011-0.052-1.532-0.081c-0.519-0.088-1.047-0.174-1.587-0.268
		c-0.271-0.045-0.542-0.092-0.817-0.136c-0.269-0.065-0.535-0.156-0.806-0.234c-0.542-0.159-1.093-0.325-1.653-0.492
		c-2.177-0.854-4.36-2.094-6.382-3.784c-1.985-1.729-3.723-3.918-5.195-6.402c-0.348-0.633-0.699-1.273-1.053-1.919
		c-0.296-0.673-0.597-1.354-0.901-2.042c-0.326-0.683-0.542-1.407-0.793-2.132c-0.239-0.728-0.525-1.448-0.693-2.208
		c-0.191-0.754-0.384-1.519-0.58-2.286c-0.156-0.774-0.285-1.56-0.43-2.354c-0.068-0.396-0.148-0.791-0.207-1.192
		c-0.045-0.4-0.089-0.805-0.135-1.209c-0.082-0.81-0.196-1.628-0.254-2.452c-0.059-1.638-0.119-3.3-0.18-4.983
		c-0.03-0.836-0.062-1.678-0.092-2.526c-0.019-0.422-0.023-0.852-0.054-1.272c-0.043-0.417-0.086-0.835-0.129-1.257
		c-0.174-1.675-0.262-3.381-0.597-5.078c-0.143-0.85-0.254-1.712-0.415-2.567c-0.2-0.847-0.401-1.696-0.603-2.547
		c-0.876-3.381-2.072-6.79-4.027-9.827c-0.504-0.743-1.055-1.461-1.585-2.199c-0.581-0.694-1.224-1.339-1.848-2.008
		c-0.697-0.583-1.39-1.189-2.124-1.737l-1.16-0.747l-0.581-0.376c-0.196-0.123-0.412-0.208-0.617-0.313
		c-3.277-1.722-7.062-2.489-10.822-2.386c-0.934,0.032-1.875,0.124-2.79,0.317c-0.907,0.201-1.826,0.494-2.559,1.048
		c-0.353,0.275-0.672,0.637-0.745,1.066c-0.072,0.429,0.122,0.863,0.443,1.181c0.643,0.646,1.561,0.982,2.457,1.218
		c1.829,0.458,3.727,0.469,5.622,0.375c1.88-0.101,3.76-0.36,5.589-0.789c3.653-0.879,7.127-2.482,9.985-4.816
		c2.862-2.327,5.019-5.395,6.323-8.733c1.342-3.33,1.906-6.889,1.982-10.379c0.118-3.496-0.217-6.952-0.82-10.283
		c-0.163-0.832-0.324-1.659-0.484-2.481c-0.16-0.837-0.318-1.669-0.476-2.499c-0.139-0.839-0.25-1.684-0.369-2.519
		c-0.081-0.837-0.16-1.667-0.239-2.492c-0.21-3.309-0.06-6.565,0.536-9.64c0.624-3.069,1.749-5.935,3.344-8.357
		c0.8-1.208,1.705-2.31,2.698-3.272c1.003-0.955,2.083-1.771,3.189-2.476c2.221-1.402,4.578-2.298,6.851-2.806
		c2.272-0.524,4.464-0.683,6.476-0.61c2.003,0.021,3.862,0.303,5.478,0.7c3.265,0.783,5.579,2.202,6.961,3.348
		c0.691,0.581,1.167,1.089,1.471,1.449c0.297,0.364,0.434,0.582,0.434,0.582c0.059,0.096,0.03,0.219-0.063,0.279
		c-0.095,0.059-0.219,0.03-0.279-0.064c0,0,0,0-0.001-0.002l-0.003-0.005c0,0-0.113-0.186-0.391-0.541
		c-0.284-0.35-0.735-0.849-1.399-1.427c-0.66-0.581-1.556-1.208-2.681-1.814c-0.56-0.314-1.195-0.581-1.874-0.865
		c-0.696-0.235-1.431-0.503-2.24-0.685c-1.607-0.395-3.415-0.677-5.422-0.703c-1.992-0.087-4.16,0.124-6.398,0.658
		c-2.237,0.529-4.546,1.442-6.706,2.839c-1.075,0.71-2.095,1.553-3.042,2.506c-0.937,0.967-1.778,2.064-2.515,3.255
		c-1.479,2.389-2.382,5.221-2.846,8.197c-0.438,2.987-0.439,6.132-0.111,9.332c0.098,0.797,0.194,1.603,0.292,2.413
		c0.132,0.8,0.265,1.608,0.398,2.418c0.163,0.817,0.328,1.64,0.492,2.467c0.163,0.842,0.327,1.689,0.493,2.541
		c0.574,3.424,0.879,6.989,0.712,10.618c-0.189,3.616-0.909,7.314-2.43,10.75c-1.494,3.44-3.891,6.538-6.915,8.84
		c-3.009,2.331-6.602,3.861-10.32,4.666c-1.862,0.418-3.758,0.659-5.67,0.742c-1.888,0.073-3.84,0.048-5.706-0.443
		c-0.918-0.253-1.864-0.6-2.57-1.319c-0.349-0.347-0.584-0.872-0.495-1.394c0.084-0.523,0.447-0.927,0.824-1.229
		c0.785-0.604,1.726-0.907,2.655-1.125c0.938-0.211,1.89-0.311,2.847-0.352c3.809-0.169,7.632,0.642,11.049,2.261
		c3.438,1.621,6.297,4.266,8.464,7.299c2.192,3.044,3.576,6.519,4.639,9.97c0.235,0.871,0.469,1.741,0.702,2.608
		c0.185,0.878,0.328,1.757,0.487,2.63c0.353,1.742,0.483,3.503,0.647,5.237c0.038,0.435,0.075,0.867,0.113,1.302
		c0.023,0.426,0.022,0.85,0.036,1.276c0.018,0.846,0.039,1.689,0.057,2.525c0.039,1.672,0.076,3.318,0.113,4.946
		c0.282,6.43,1.578,12.528,4.224,17.52c1.351,2.464,2.992,4.642,4.879,6.392c1.918,1.719,4.046,2.964,6.178,3.82
		c0.547,0.17,1.087,0.339,1.617,0.503c0.266,0.078,0.527,0.172,0.792,0.237c0.268,0.05,0.533,0.094,0.796,0.146
		c0.527,0.094,1.043,0.188,1.552,0.279c0.52,0.033,1.03,0.064,1.53,0.099c1.984,0.144,3.831-0.019,5.466-0.229
		c3.294-0.411,5.739-1.44,7.235-2.347c0.755-0.447,1.271-0.883,1.6-1.185c0.165-0.148,0.28-0.276,0.353-0.354
		c0.071-0.086,0.108-0.128,0.108-0.128c0.071-0.086,0.198-0.096,0.283-0.025C87.314,202.034,87.327,202.159,87.262,202.245"/>
	<path fill="#8F7A5B" d="M71.627,197.383l-1.048-0.117c-0.176-0.021-0.35-0.034-0.525-0.065l-0.525-0.125
		c-0.348-0.089-0.708-0.141-1.045-0.261l-1.003-0.38c-1.296-0.602-2.492-1.443-3.436-2.529c-0.243-0.263-0.442-0.563-0.667-0.845
		l-0.327-0.43l-0.273-0.459l-0.546-0.929l-0.445-0.979c-0.592-1.308-0.985-2.683-1.354-4.065c-0.165-0.693-0.297-1.391-0.446-2.093
		c-0.123-0.702-0.219-1.408-0.327-2.112c-0.165-1.414-0.307-2.834-0.372-4.253c-0.114-1.417-0.073-2.846-0.1-4.254
		c0.018-1.411,0.012-2.801,0-4.203c-0.02-2.798-0.117-5.588-0.348-8.36c-0.236-2.771-0.653-5.529-1.427-8.192
		c-0.769-2.654-1.983-5.221-3.871-7.257c-0.936-1.018-2.059-1.866-3.292-2.5c-1.237-0.635-2.585-1.042-3.96-1.249
		c-0.11-0.015-0.185-0.117-0.168-0.227c0.01-0.075,0.063-0.136,0.132-0.161l0.011-0.003c1.53-0.44,3.032-0.988,4.451-1.705
		c1.427-0.701,2.758-1.593,3.954-2.631c2.396-2.089,4.064-4.898,4.957-7.909c0.895-3.024,1.086-6.209,0.99-9.358
		c-0.106-3.157-0.527-6.304-1.035-9.439c-0.255-1.567-0.556-3.128-0.857-4.692l-0.232-1.188l-0.208-1.184
		c-0.128-0.794-0.292-1.569-0.372-2.386c-0.087-0.81-0.197-1.617-0.263-2.425l-0.161-2.426l-0.021-2.432
		c0.026-0.81,0.079-1.62,0.118-2.427c0.091-0.806,0.166-1.613,0.269-2.415c0.165-0.795,0.259-1.601,0.482-2.382
		c0.213-0.783,0.421-1.564,0.734-2.313c0.247-0.775,0.64-1.488,1.005-2.211c0.832-1.388,1.864-2.67,3.166-3.654
		c1.326-0.947,2.838-1.587,4.42-1.979c0.108-0.026,0.218,0.039,0.244,0.147c0.027,0.108-0.038,0.217-0.147,0.245
		c-0.002,0-0.006,0-0.008,0l-0.009,0.003c-1.545,0.308-3.039,0.898-4.325,1.821c-1.277,0.94-2.27,2.208-3.041,3.583
		c-0.341,0.714-0.709,1.416-0.934,2.179c-0.292,0.738-0.438,1.521-0.61,2.292c-0.18,0.77-0.229,1.568-0.35,2.347
		c-0.054,0.791-0.104,1.582-0.126,2.373c0.023,0.792,0.031,1.585,0.065,2.374l0.199,2.369l0.31,2.356
		c0.114,0.782,0.272,1.555,0.407,2.333c0.272,1.546,0.637,3.141,0.948,4.686c0.339,1.574,0.617,3.164,0.864,4.76
		c0.261,1.592,0.432,3.203,0.576,4.815c0.136,1.613,0.183,3.237,0.164,4.861c-0.038,3.242-0.441,6.525-1.537,9.605
		c-0.539,1.539-1.253,3.021-2.167,4.37c-0.908,1.354-2.027,2.552-3.263,3.596c-1.237,1.048-2.625,1.896-4.06,2.628
		c-1.443,0.718-2.947,1.306-4.48,1.804l-0.024-0.394c1.399,0.271,2.771,0.701,4.049,1.335c1.282,0.628,2.452,1.479,3.48,2.475
		c2.063,2.014,3.423,4.626,4.404,7.303c0.982,2.691,1.558,5.507,1.938,8.326c0.395,2.823,0.527,5.667,0.568,8.501
		c0.014,1.412-0.003,2.841-0.041,4.243c-0.025,1.405-0.083,2.793-0.069,4.191c-0.017,1.394,0.043,2.786,0.124,4.174
		c0.062,0.694,0.106,1.39,0.178,2.079c0.098,0.688,0.178,1.381,0.292,2.066c0.15,0.673,0.25,1.364,0.441,2.03
		c0.208,0.66,0.356,1.345,0.638,1.976l0.381,0.968l0.479,0.916l0.241,0.459l0.292,0.428c0.2,0.279,0.378,0.578,0.599,0.844
		c0.887,1.06,2.005,1.914,3.26,2.495c1.273,0.581,2.639,0.771,4.056,0.849c0.111,0.006,0.196,0.097,0.191,0.211
		c-0.006,0.112-0.101,0.195-0.212,0.19c-0.004,0-0.008,0-0.011,0L71.627,197.383z"/>
	<path fill="#8F7A5B" d="M143.973,265.748c-0.015-0.002,0.257,0.006,0.544-0.047c0.352-0.072,0.893-0.239,1.51-0.653
		c0.613-0.406,1.297-1.065,1.879-2.019c0.588-0.95,1.055-2.183,1.375-3.615c0.311-1.435,0.473-3.1,0.455-4.859
		c-0.025-0.451-0.053-0.912-0.078-1.381c-0.014-0.234-0.029-0.472-0.043-0.711c-0.041-0.229-0.08-0.461-0.127-0.698
		c-0.082-0.472-0.17-0.95-0.258-1.438c-0.109-0.481-0.285-0.966-0.428-1.458c-0.25-1.006-0.756-1.954-1.18-2.967
		c-0.566-0.938-1.072-1.956-1.805-2.86c-0.648-0.963-1.475-1.823-2.287-2.727c-0.45-0.409-0.904-0.82-1.365-1.242
		c-0.449-0.43-0.983-0.769-1.478-1.164c-2.042-1.503-4.375-2.79-6.939-3.712c-2.552-0.927-5.355-1.526-8.214-1.495
		c-0.368,0.006-0.736,0.008-1.107,0.014c-0.359,0.016-0.719,0.033-1.082,0.049c-0.727,0.058-1.46,0.12-2.188,0.237
		c-1.442,0.239-2.921,0.636-4.117,1.508c-0.583,0.44-1.066,1.034-1.256,1.737c-0.198,0.695-0.119,1.495,0.211,2.139
		c0.338,0.661,0.945,1.167,1.613,1.539c0.675,0.375,1.422,0.638,2.192,0.815c1.539,0.352,3.164,0.486,4.77,0.408
		c1.642-0.016,3.211-0.398,4.774-0.9c1.556-0.521,3.008-1.329,4.393-2.235c1.344-0.971,2.601-2.083,3.672-3.372
		c1.044-1.303,2.017-2.691,2.693-4.238l0.273-0.567c0.083-0.195,0.148-0.394,0.222-0.592l0.436-1.188l0.317-1.224l0.155-0.615
		l0.096-0.625l0.187-1.255l0.061-1.264l0.031-0.635l-0.035-0.631l-0.073-1.278c-0.234-1.662-0.56-3.342-1.285-4.879
		c-1.309-3.133-3.734-5.681-6.54-7.498c-2.81-1.857-6.063-2.917-9.323-3.517c-3.271-0.594-6.599-0.739-9.851-0.497
		c-0.835,0.019-1.623,0.151-2.415,0.261l-1.185,0.161c-0.394,0.067-0.787,0.161-1.18,0.242c-1.575,0.294-3.112,0.734-4.639,1.148
		c-6.086,1.812-11.712,4.473-17.364,6.301c-1.399,0.481-2.82,0.862-4.208,1.258c-1.416,0.31-2.792,0.683-4.185,0.875
		c-0.694,0.104-1.374,0.255-2.061,0.317c-0.686,0.068-1.367,0.133-2.041,0.201c-0.672,0.083-1.345,0.07-2.009,0.086
		c-0.675,0.005-1.298,0.034-1.993,0.023c-0.641-0.047-1.273-0.097-1.9-0.141c-0.627-0.053-1.245-0.062-1.865-0.201
		c-1.233-0.239-2.455-0.369-3.579-0.752c-0.569-0.167-1.13-0.328-1.683-0.49c-0.534-0.219-1.061-0.435-1.58-0.648
		c-0.258-0.102-0.515-0.208-0.771-0.315c-0.254-0.106-0.486-0.255-0.729-0.38c-0.477-0.261-0.946-0.516-1.409-0.766
		c-3.633-2.162-6.123-4.979-7.788-7.473c-1.668-2.516-2.509-4.769-2.924-6.334c-0.18-0.786-0.323-1.398-0.335-1.825
		c-0.035-0.428-0.053-0.646-0.053-0.646c-0.009-0.109,0.073-0.206,0.185-0.216c0.11-0.008,0.208,0.072,0.217,0.185v0.003
		l0.002,0.028c0,0,0.013,0.211,0.04,0.612c0.001,0.403,0.127,1,0.289,1.776c0.359,1.539,1.179,3.773,2.827,6.256
		c0.427,0.609,0.844,1.276,1.399,1.886c0.264,0.315,0.535,0.636,0.811,0.964c0.306,0.305,0.618,0.611,0.937,0.93
		c0.608,0.659,1.371,1.208,2.11,1.825c0.36,0.323,0.803,0.553,1.211,0.842c0.423,0.266,0.833,0.57,1.292,0.805
		c0.462,0.234,0.931,0.472,1.407,0.708c0.24,0.117,0.471,0.256,0.723,0.352c0.253,0.097,0.508,0.19,0.765,0.287
		c0.513,0.189,1.034,0.385,1.561,0.583c0.545,0.139,1.098,0.279,1.658,0.425c1.11,0.339,2.291,0.43,3.48,0.604
		c0.586,0.106,1.219,0.091,1.844,0.111c0.629,0.021,1.263,0.034,1.906,0.053c5.036-0.117,10.476-1.295,15.95-3.282
		c5.511-1.898,11.202-4.445,17.45-6.251c1.569-0.419,3.16-0.828,4.799-1.083c0.408-0.067,0.812-0.153,1.226-0.214l1.255-0.133
		c0.836-0.089,1.68-0.2,2.5-0.198c3.337-0.15,6.743,0.109,10.083,0.831c3.331,0.722,6.623,1.943,9.488,3.899
		c2.853,1.933,5.3,4.617,6.576,7.86c2.751,6.456,1.167,14.187-3.258,19.325c-1.097,1.297-2.378,2.409-3.727,3.412
		c-1.398,0.927-2.866,1.758-4.445,2.3c-1.564,0.521-3.227,0.925-4.854,0.948c-1.646,0.091-3.28-0.034-4.87-0.383
		c-0.793-0.178-1.572-0.445-2.292-0.839c-0.712-0.388-1.386-0.933-1.779-1.683c-0.389-0.761-0.47-1.625-0.271-2.433
		c0.208-0.812,0.725-1.508,1.342-2.026c1.25-1.044,2.784-1.573,4.28-1.933c0.376-0.091,0.756-0.148,1.134-0.227
		c0.38-0.047,0.758-0.094,1.135-0.146c0.383-0.029,0.763-0.058,1.143-0.084c0.37-0.01,0.738-0.021,1.105-0.028
		c3.035,0.016,5.922,0.651,8.542,1.68c2.617,1.04,4.967,2.438,7.006,4.043c2.046,1.596,3.77,3.43,5.123,5.362
		c0.73,0.93,1.236,1.975,1.799,2.94c0.432,1.031,0.965,1.99,1.227,3.014c0.152,0.505,0.336,0.992,0.453,1.489
		c0.098,0.506,0.189,1.003,0.283,1.49c0.045,0.242,0.09,0.484,0.135,0.724c0.018,0.237,0.031,0.475,0.047,0.706
		c0.031,0.472,0.062,0.93,0.09,1.381c0.027,1.844-0.057,3.503-0.342,5.011c-0.287,1.495-0.752,2.805-1.342,3.865
		c-0.582,1.062-1.312,1.849-2.01,2.362c-0.699,0.513-1.34,0.763-1.791,0.883c-0.525,0.117-0.688,0.099-0.699,0.112
		c-0.278,0.016-0.517-0.198-0.534-0.475C143.484,266.006,143.695,265.764,143.973,265.748"/>
	<path fill="#8F7A5B" d="M132.695,225.306c0,0-0.011-0.062-0.03-0.177c-0.022-0.112-0.053-0.279-0.115-0.503
		c-0.107-0.445-0.32-1.086-0.675-1.867c-0.358-0.782-0.922-1.67-1.67-2.607c-0.802-0.886-1.795-1.823-3.066-2.576
		c-0.296-0.224-0.651-0.362-0.99-0.544c-0.348-0.156-0.682-0.367-1.062-0.487c-0.755-0.253-1.511-0.581-2.347-0.731
		c-0.411-0.097-0.829-0.193-1.25-0.289c-0.43-0.055-0.867-0.109-1.308-0.164c-0.877-0.139-1.789-0.133-2.71-0.154l-0.693-0.013
		l-0.175-0.003c-0.028-0.002-0.109,0.006-0.161,0.008l-0.355,0.023c-0.474,0.029-0.95,0.058-1.431,0.089
		c-0.476,0.034-0.94,0.114-1.414,0.172c-0.47,0.058-0.944,0.114-1.42,0.219c-0.477,0.089-0.954,0.18-1.433,0.269
		c-0.477,0.111-0.953,0.221-1.432,0.333c-0.96,0.2-1.911,0.487-2.868,0.729c-1.903,0.57-3.805,1.141-5.677,1.698
		c-0.94,0.286-1.874,0.567-2.793,0.846c-0.93,0.258-1.846,0.521-2.755,0.756c-0.911,0.231-1.8,0.474-2.688,0.656
		c-0.442,0.099-0.879,0.198-1.31,0.289c-0.436,0.083-0.866,0.164-1.29,0.239c-1.696,0.312-3.316,0.523-4.818,0.628
		c-0.747,0.086-1.474,0.052-2.158,0.083c-0.688,0.023-1.333,0.016-1.949-0.041c-1.226-0.102-2.28-0.303-3.13-0.545
		c-0.85-0.242-1.501-0.489-1.934-0.695c-0.433-0.195-0.658-0.341-0.658-0.341c-0.094-0.058-0.123-0.183-0.062-0.276
		c0.06-0.094,0.184-0.122,0.278-0.062c0,0,0.004,0.003,0.004,0.003c0,0,0.193,0.13,0.604,0.333c0.41,0.201,1.031,0.475,1.861,0.706
		c0.827,0.237,1.862,0.445,3.06,0.513c0.594,0.042,1.245,0.042,1.917,0.003c0.675-0.047,1.388-0.047,2.123-0.159
		c0.737-0.102,1.507-0.164,2.292-0.328c0.788-0.141,1.603-0.283,2.428-0.5c0.413-0.102,0.833-0.2,1.257-0.302
		c0.42-0.117,0.847-0.239,1.277-0.359c0.863-0.234,1.735-0.514,2.624-0.784c1.774-0.573,3.608-1.167,5.472-1.769
		c0.937-0.297,1.881-0.599,2.83-0.898c0.952-0.289,1.925-0.542,2.89-0.812c1.945-0.495,3.905-0.972,5.884-1.209
		c0.487-0.08,0.986-0.122,1.482-0.164c0.494-0.036,0.99-0.099,1.473-0.114c0.48-0.005,0.959-0.013,1.433-0.021l0.355-0.006
		c0.066,0,0.103-0.002,0.192,0l0.179,0.014l0.713,0.047c0.943,0.064,1.873,0.104,2.77,0.291c0.448,0.073,0.893,0.141,1.333,0.211
		c0.431,0.115,0.857,0.232,1.276,0.345c0.85,0.185,1.622,0.547,2.384,0.833c0.385,0.138,0.723,0.367,1.076,0.539
		c0.346,0.188,0.706,0.339,1.008,0.567c1.298,0.795,2.298,1.779,3.118,2.693c0.772,0.959,1.351,1.87,1.725,2.673
		c0.385,0.797,0.617,1.455,0.74,1.914c0.069,0.229,0.107,0.414,0.135,0.536c0.022,0.123,0.035,0.183,0.035,0.183
		c0.02,0.109-0.052,0.214-0.162,0.237c-0.108,0.021-0.214-0.05-0.236-0.162c0-0.002,0-0.002-0.001-0.002V225.306z"/>
	<path fill="#8F7A5B" d="M151.6,59.313c0,0,0.09,0.404,0.387,1.149c0.289,0.744,0.824,1.798,1.697,3.009
		c0.883,1.201,2.133,2.552,3.859,3.716c1.715,1.165,3.881,2.14,6.367,2.729c1.242,0.288,2.559,0.49,3.932,0.598
		c1.385,0.086,2.783,0.095,4.273,0.029c2.939-0.111,6.033-0.455,9.195-0.99c3.164-0.558,6.396-1.323,9.668-2.188
		c3.271-0.86,6.566-1.895,9.922-2.758c3.35-0.88,6.74-1.704,10.141-2.181c1.699-0.247,3.389-0.439,5.07-0.55
		c1.678-0.101,3.336-0.136,4.971-0.104c3.277,0.088,6.441,0.674,9.234,1.767c2.797,1.083,5.244,2.573,7.225,4.267
		c1.992,1.688,3.527,3.549,4.68,5.32c1.158,1.777,1.893,3.488,2.393,4.924c0.492,1.441,0.709,2.629,0.812,3.439
		c0.062,0.406,0.076,0.72,0.098,0.932c0.018,0.211,0.025,0.32,0.025,0.32c0.01,0.11-0.072,0.208-0.186,0.216
		c-0.109,0.011-0.207-0.073-0.215-0.186c0,0,0,0,0-0.001l-0.004-0.012c0,0-0.004-0.107-0.02-0.313
		c-0.012-0.206-0.02-0.512-0.074-0.909c-0.086-0.793-0.273-1.961-0.732-3.389c-0.447-1.43-1.197-3.11-2.328-4.87
		c-0.57-0.876-1.23-1.776-2-2.663c-0.781-0.875-1.668-1.74-2.658-2.559c-1.98-1.633-4.395-3.117-7.182-4.064
		c-2.779-0.962-5.869-1.483-9.068-1.388c-3.215,0.088-6.516,0.465-9.824,1.101c-3.309,0.65-6.633,1.486-9.947,2.413
		c-3.309,0.952-6.639,1.878-9.945,2.73c-1.656,0.417-3.305,0.824-4.949,1.159c-1.646,0.326-3.281,0.617-4.898,0.844
		c-3.236,0.453-6.389,0.693-9.385,0.681c-1.477,0.012-2.969-0.054-4.365-0.199c-1.408-0.17-2.758-0.414-4.027-0.752
		c-2.541-0.682-4.74-1.757-6.469-3.007c-1.723-1.262-3-2.641-3.895-3.879c-0.891-1.245-1.41-2.337-1.738-3.088
		c-0.318-0.752-0.43-1.193-0.43-1.193l-0.002-0.007c-0.025-0.108,0.041-0.217,0.148-0.244c0.107-0.026,0.217,0.039,0.244,0.147
		C151.6,59.309,151.6,59.311,151.6,59.313"/>
	<path fill="#8F7A5B" d="M233.508,59.673c0,0-0.191-0.216-0.609-0.594c-0.416-0.373-1.039-0.916-1.91-1.502
		c-0.865-0.589-1.961-1.258-3.291-1.871c-1.324-0.625-2.873-1.218-4.613-1.673c-1.738-0.462-3.664-0.802-5.715-0.972
		c-2.041-0.164-4.242-0.161-6.439,0.088c-2.213,0.267-4.467,0.767-6.707,1.468c-2.24,0.706-4.484,1.549-6.73,2.425
		c-2.25,0.864-4.506,1.761-6.775,2.531c-2.268,0.779-4.547,1.457-6.793,1.931c-2.244,0.481-4.445,0.816-6.543,0.978
		c-2.096,0.16-4.082,0.172-5.91,0.081c-1.822-0.083-3.508-0.28-4.963-0.562c-1.463-0.279-2.713-0.649-3.715-1.018
		c-1.004-0.364-1.768-0.726-2.273-1c-0.256-0.135-0.447-0.249-0.578-0.328c-0.127-0.089-0.193-0.134-0.193-0.134
		c-0.094-0.062-0.115-0.187-0.055-0.28c0.062-0.092,0.188-0.116,0.279-0.054c0,0,0.002,0.002,0.004,0.003l0.02,0.012
		c0,0,0.057,0.042,0.164,0.12c0.119,0.08,0.297,0.194,0.537,0.333c0.488,0.271,1.23,0.623,2.227,0.949
		c0.994,0.324,2.236,0.626,3.682,0.836c1.447,0.212,3.078,0.335,4.881,0.329c3.596-0.017,7.779-0.502,12.107-1.642
		c2.166-0.566,4.373-1.267,6.598-2.055c2.225-0.791,4.473-1.66,6.742-2.507c2.273-0.837,4.578-1.648,6.912-2.258
		c2.332-0.615,4.688-1.051,6.99-1.196c2.318-0.144,4.52-0.011,6.609,0.241c2.08,0.255,4.025,0.677,5.771,1.216
		c1.746,0.544,3.303,1.164,4.635,1.819c1.328,0.656,2.443,1.315,3.322,1.915c1.768,1.191,2.627,2.094,2.627,2.094
		c0.078,0.08,0.078,0.208-0.002,0.285c-0.076,0.079-0.207,0.077-0.285-0.003C233.514,59.678,233.51,59.674,233.508,59.673"/>
	<path fill="#8F7A5B" d="M200.979,201.992c0,0,0.035,0.042,0.109,0.125c0.07,0.078,0.186,0.209,0.352,0.357
		c0.328,0.302,0.844,0.737,1.6,1.185c1.496,0.906,3.941,1.936,7.236,2.347c1.633,0.211,3.48,0.373,5.465,0.227
		c0.5-0.031,1.01-0.062,1.529-0.096c0.51-0.092,1.025-0.186,1.555-0.279c0.262-0.052,0.527-0.096,0.795-0.146
		c0.266-0.065,0.527-0.159,0.791-0.237c0.531-0.164,1.07-0.333,1.619-0.503c2.129-0.856,4.258-2.102,6.176-3.82
		c1.887-1.75,3.527-3.928,4.881-6.395c2.645-4.988,3.938-11.087,4.225-17.517c0.035-1.628,0.072-3.274,0.111-4.943
		c0.02-0.839,0.039-1.683,0.057-2.53c0.014-0.425,0.014-0.849,0.037-1.274c0.037-0.435,0.074-0.867,0.111-1.302
		c0.166-1.734,0.297-3.495,0.648-5.237c0.158-0.873,0.303-1.755,0.488-2.63c0.232-0.867,0.465-1.737,0.703-2.608
		c1.059-3.451,2.443-6.926,4.637-9.97c2.166-3.033,5.023-5.679,8.463-7.299c3.418-1.619,7.24-2.43,11.049-2.262
		c0.957,0.043,1.908,0.143,2.848,0.354c0.926,0.218,1.871,0.521,2.654,1.125c0.377,0.302,0.74,0.706,0.824,1.229
		c0.09,0.522-0.146,1.047-0.496,1.394c-0.705,0.719-1.65,1.066-2.57,1.319c-1.865,0.49-3.816,0.516-5.705,0.443
		c-1.912-0.083-3.807-0.324-5.67-0.741c-3.717-0.806-7.311-2.336-10.318-4.667c-3.027-2.302-5.422-5.402-6.918-8.841
		c-1.52-3.435-2.24-7.131-2.428-10.75c-0.168-3.628,0.137-7.192,0.711-10.618c0.166-0.852,0.328-1.699,0.492-2.541
		c0.166-0.828,0.33-1.65,0.49-2.467c0.135-0.811,0.27-1.618,0.4-2.419c0.098-0.809,0.197-1.613,0.291-2.412
		c0.328-3.2,0.328-6.345-0.109-9.332c-0.465-2.975-1.367-5.808-2.848-8.197c-0.736-1.191-1.578-2.286-2.516-3.253
		c-0.945-0.955-1.967-1.799-3.041-2.507c-2.16-1.398-4.469-2.31-6.705-2.838c-2.238-0.536-4.406-0.747-6.4-0.66
		c-2.006,0.026-3.814,0.308-5.42,0.703c-0.809,0.181-1.545,0.449-2.24,0.685c-0.68,0.284-1.316,0.551-1.875,0.865
		c-1.125,0.606-2.02,1.233-2.68,1.814c-0.664,0.578-1.115,1.077-1.4,1.427c-0.275,0.354-0.391,0.541-0.391,0.541l-0.002,0.003
		c-0.057,0.096-0.182,0.127-0.275,0.069c-0.098-0.057-0.129-0.181-0.068-0.276c0,0,0.002-0.001,0.002-0.003
		c0,0,0.137-0.217,0.434-0.582c0.301-0.36,0.779-0.869,1.471-1.45c1.383-1.146,3.695-2.565,6.963-3.348
		c1.613-0.396,3.473-0.679,5.477-0.702c2.012-0.071,4.203,0.086,6.477,0.61c2.27,0.51,4.627,1.407,6.85,2.808
		c1.105,0.706,2.188,1.521,3.189,2.476c0.994,0.962,1.896,2.065,2.699,3.272c1.596,2.423,2.719,5.288,3.342,8.357
		c0.598,3.075,0.748,6.331,0.537,9.64c-0.08,0.825-0.158,1.655-0.238,2.49c-0.117,0.835-0.23,1.681-0.367,2.519
		c-0.16,0.829-0.318,1.663-0.477,2.5c-0.162,0.822-0.324,1.649-0.484,2.481c-0.604,3.331-0.939,6.787-0.82,10.283
		c0.074,3.49,0.641,7.05,1.98,10.379c1.303,3.338,3.461,6.406,6.322,8.734c2.859,2.333,6.332,3.937,9.984,4.815
		c1.83,0.428,3.709,0.688,5.592,0.789c1.893,0.093,3.791,0.083,5.623-0.375c0.893-0.235,1.811-0.571,2.455-1.219
		c0.32-0.316,0.514-0.75,0.441-1.179c-0.07-0.43-0.391-0.791-0.742-1.066c-0.732-0.555-1.65-0.847-2.559-1.048
		c-0.916-0.193-1.857-0.285-2.791-0.317c-3.76-0.104-7.543,0.664-10.822,2.386c-0.205,0.104-0.422,0.19-0.617,0.313l-0.582,0.376
		l-1.16,0.747c-0.734,0.55-1.426,1.154-2.123,1.737c-0.623,0.669-1.266,1.314-1.848,2.009c-0.531,0.736-1.082,1.452-1.586,2.198
		c-1.953,3.037-3.15,6.446-4.025,9.827c-0.201,0.851-0.404,1.7-0.604,2.547c-0.162,0.855-0.271,1.718-0.416,2.567
		c-0.336,1.697-0.422,3.403-0.596,5.081c-0.045,0.419-0.088,0.837-0.129,1.254c-0.029,0.421-0.037,0.851-0.055,1.272
		c-0.029,0.849-0.061,1.69-0.09,2.526c-0.062,1.684-0.123,3.346-0.182,4.983c-0.057,0.824-0.172,1.643-0.254,2.452
		c-0.045,0.404-0.09,0.809-0.135,1.209c-0.059,0.401-0.139,0.797-0.207,1.192c-0.143,0.795-0.271,1.58-0.43,2.357
		c-0.195,0.765-0.387,1.529-0.58,2.283c-0.166,0.76-0.455,1.48-0.691,2.208c-0.254,0.725-0.471,1.449-0.795,2.132
		c-0.303,0.688-0.604,1.366-0.9,2.042c-0.354,0.646-0.705,1.286-1.053,1.919c-1.473,2.484-3.209,4.673-5.193,6.402
		c-2.023,1.69-4.207,2.93-6.383,3.784c-0.562,0.167-1.113,0.333-1.652,0.492c-0.271,0.078-0.537,0.172-0.809,0.234
		c-0.273,0.044-0.547,0.091-0.816,0.136c-0.541,0.091-1.068,0.18-1.588,0.268c-0.521,0.029-1.031,0.053-1.531,0.081
		c-2.018,0.128-3.865-0.019-5.521-0.231c-3.32-0.428-5.82-1.412-7.379-2.318c-1.562-0.911-2.193-1.722-2.193-1.722
		c-0.066-0.089-0.053-0.214,0.037-0.284C200.785,201.896,200.908,201.909,200.979,201.992"/>
	<path fill="#8F7A5B" d="M216.262,196.986c1.414-0.078,2.783-0.268,4.057-0.849c1.252-0.581,2.371-1.436,3.256-2.495
		c0.223-0.266,0.4-0.564,0.602-0.846l0.291-0.426l0.242-0.459l0.479-0.916l0.379-0.968c0.283-0.631,0.43-1.315,0.641-1.976
		c0.189-0.666,0.289-1.357,0.441-2.03c0.109-0.686,0.191-1.378,0.291-2.066c0.072-0.689,0.115-1.385,0.178-2.079
		c0.078-1.388,0.141-2.78,0.123-4.174c0.014-1.398-0.045-2.786-0.07-4.191c-0.035-1.402-0.053-2.831-0.037-4.244
		c0.039-2.833,0.172-5.677,0.566-8.5c0.381-2.819,0.955-5.635,1.939-8.326c0.98-2.677,2.34-5.289,4.404-7.303
		c1.027-0.996,2.199-1.847,3.48-2.475c1.275-0.634,2.646-1.064,4.047-1.335l-0.023,0.394c-1.533-0.498-3.037-1.085-4.48-1.804
		c-1.438-0.732-2.822-1.581-4.059-2.628c-1.238-1.044-2.357-2.241-3.264-3.596c-0.914-1.349-1.627-2.831-2.166-4.37
		c-1.098-3.08-1.5-6.363-1.537-9.605c-0.021-1.624,0.025-3.248,0.162-4.861c0.145-1.613,0.316-3.223,0.574-4.815
		c0.25-1.596,0.527-3.186,0.867-4.76c0.309-1.544,0.674-3.139,0.949-4.686c0.131-0.777,0.291-1.55,0.404-2.333l0.309-2.356
		l0.201-2.369c0.033-0.789,0.039-1.581,0.064-2.374c-0.021-0.792-0.072-1.582-0.125-2.373c-0.121-0.779-0.17-1.578-0.352-2.347
		c-0.172-0.771-0.316-1.554-0.609-2.292c-0.225-0.764-0.594-1.465-0.934-2.179c-0.771-1.375-1.764-2.643-3.041-3.583
		c-1.287-0.922-2.779-1.513-4.326-1.821l-0.008-0.003c-0.109-0.021-0.18-0.127-0.156-0.237c0.021-0.109,0.127-0.18,0.234-0.158
		c0.006,0,0.008,0.001,0.01,0.002c1.582,0.393,3.098,1.033,4.422,1.979c1.301,0.983,2.334,2.266,3.166,3.654
		c0.365,0.723,0.758,1.436,1.004,2.211c0.314,0.749,0.521,1.53,0.734,2.313c0.225,0.781,0.316,1.587,0.48,2.382
		c0.105,0.801,0.18,1.608,0.27,2.415c0.041,0.808,0.092,1.618,0.117,2.427l-0.02,2.432l-0.16,2.426
		c-0.064,0.808-0.178,1.615-0.262,2.425c-0.078,0.817-0.246,1.592-0.375,2.386l-0.205,1.184l-0.232,1.188
		c-0.303,1.563-0.605,3.125-0.859,4.692c-0.51,3.133-0.928,6.282-1.037,9.439c-0.094,3.149,0.098,6.334,0.992,9.358
		c0.893,3.01,2.561,5.82,4.957,7.909c1.195,1.038,2.527,1.931,3.953,2.631c1.42,0.717,2.92,1.265,4.451,1.705l0.01,0.003
		c0.105,0.036,0.162,0.149,0.127,0.254c-0.027,0.074-0.09,0.123-0.162,0.133c-1.375,0.207-2.723,0.614-3.957,1.249
		c-1.236,0.634-2.357,1.482-3.293,2.5c-1.889,2.036-3.102,4.603-3.871,7.257c-0.775,2.663-1.189,5.421-1.428,8.192
		c-0.23,2.772-0.328,5.562-0.348,8.36c-0.012,1.402-0.018,2.792,0,4.203c-0.027,1.408,0.016,2.837-0.098,4.254
		c-0.066,1.419-0.209,2.839-0.375,4.253c-0.105,0.704-0.205,1.41-0.326,2.112c-0.148,0.702-0.281,1.399-0.447,2.093
		c-0.369,1.383-0.764,2.758-1.352,4.065l-0.447,0.979l-0.545,0.929l-0.273,0.459l-0.326,0.43c-0.227,0.281-0.424,0.582-0.668,0.845
		c-0.943,1.086-2.141,1.928-3.438,2.529l-1.002,0.38c-0.338,0.12-0.697,0.172-1.045,0.261l-0.527,0.125
		c-0.172,0.031-0.348,0.044-0.523,0.065l-1.049,0.117l-0.006,0.005c-0.109,0.011-0.211-0.067-0.223-0.18
		c-0.012-0.109,0.068-0.211,0.178-0.222C216.252,196.986,216.256,196.986,216.262,196.986"/>
	<path fill="#8F7A5B" d="M143.892,266.757c-0.011-0.014-0.174,0.008-0.698-0.109c-0.453-0.123-1.094-0.373-1.792-0.886
		c-0.697-0.514-1.427-1.303-2.011-2.362c-0.589-1.061-1.052-2.37-1.339-3.865c-0.287-1.508-0.37-3.167-0.346-5.011
		c0.031-0.451,0.061-0.909,0.092-1.378c0.016-0.234,0.032-0.472,0.048-0.709c0.044-0.239,0.089-0.481,0.134-0.724
		c0.093-0.487,0.187-0.984,0.283-1.487c0.116-0.5,0.301-0.984,0.453-1.49c0.264-1.025,0.795-1.986,1.228-3.016
		c0.562-0.966,1.068-2.011,1.799-2.94c1.354-1.933,3.077-3.767,5.122-5.362c2.039-1.604,4.391-3.003,7.006-4.043
		c2.619-1.028,5.508-1.664,8.543-1.68c0.367,0.008,0.734,0.019,1.105,0.028c0.379,0.026,0.76,0.055,1.141,0.084
		c0.379,0.052,0.758,0.099,1.139,0.146c0.377,0.078,0.756,0.136,1.133,0.227c1.494,0.357,3.029,0.889,4.277,1.933
		c0.621,0.519,1.137,1.214,1.342,2.026c0.199,0.808,0.119,1.672-0.27,2.433c-0.391,0.75-1.066,1.295-1.779,1.683
		c-0.721,0.394-1.498,0.661-2.291,0.841c-1.592,0.347-3.223,0.472-4.871,0.381c-1.627-0.023-3.287-0.428-4.854-0.948
		c-1.578-0.542-3.047-1.373-4.445-2.3c-1.35-1.003-2.627-2.115-3.729-3.412c-4.422-5.139-6.008-12.869-3.256-19.325
		c1.275-3.245,3.723-5.928,6.576-7.86c2.865-1.956,6.158-3.178,9.488-3.899c3.34-0.727,6.746-0.981,10.082-0.825
		c0.82-0.008,1.664,0.104,2.502,0.192l1.254,0.133c0.414,0.061,0.818,0.146,1.225,0.214c1.641,0.255,3.229,0.664,4.799,1.083
		c6.248,1.806,11.939,4.353,17.451,6.251c5.473,1.987,10.914,3.165,15.949,3.282c0.643-0.016,1.275-0.034,1.904-0.053
		c0.627-0.021,1.258-0.005,1.846-0.111c1.191-0.175,2.371-0.266,3.48-0.604c0.561-0.146,1.113-0.286,1.658-0.425
		c0.527-0.198,1.047-0.394,1.559-0.583c0.26-0.097,0.514-0.19,0.768-0.287c0.252-0.096,0.484-0.234,0.723-0.352
		c0.477-0.236,0.947-0.474,1.406-0.708c0.461-0.234,0.871-0.536,1.293-0.805c0.408-0.289,0.852-0.519,1.213-0.842
		c0.738-0.617,1.5-1.166,2.111-1.828c0.316-0.315,0.629-0.622,0.934-0.927c0.275-0.328,0.547-0.648,0.811-0.964
		c0.557-0.609,0.973-1.276,1.4-1.886c1.648-2.482,2.469-4.72,2.828-6.256c0.16-0.776,0.287-1.373,0.289-1.776
		c0.027-0.401,0.039-0.612,0.039-0.612l0.004-0.028c0.004-0.107,0.1-0.193,0.211-0.188c0.111,0.01,0.195,0.104,0.188,0.213
		c0,0.003,0,0.003,0,0.003s-0.02,0.219-0.051,0.646c-0.014,0.427-0.156,1.039-0.338,1.825c-0.412,1.565-1.254,3.818-2.922,6.334
		c-1.668,2.493-4.154,5.311-7.789,7.473c-0.463,0.25-0.932,0.505-1.408,0.766c-0.244,0.125-0.475,0.273-0.729,0.383
		c-0.256,0.104-0.512,0.211-0.773,0.312c-0.518,0.214-1.045,0.43-1.578,0.648c-0.555,0.162-1.113,0.323-1.682,0.49
		c-1.125,0.383-2.348,0.513-3.578,0.752c-0.621,0.139-1.242,0.148-1.867,0.201c-0.627,0.044-1.26,0.094-1.9,0.138
		c-0.695,0.014-1.318-0.016-1.992-0.021c-0.664-0.016-1.338-0.003-2.008-0.086c-0.674-0.068-1.354-0.133-2.041-0.201
		c-0.688-0.062-1.367-0.213-2.061-0.314c-1.395-0.195-2.77-0.568-4.184-0.878c-1.391-0.396-2.811-0.776-4.213-1.258
		c-5.652-1.831-11.275-4.488-17.361-6.301c-1.527-0.414-3.064-0.854-4.641-1.151c-0.393-0.078-0.785-0.174-1.18-0.239l-1.184-0.161
		c-0.791-0.109-1.58-0.242-2.416-0.261c-3.25-0.242-6.578-0.097-9.848,0.497c-3.262,0.6-6.514,1.659-9.324,3.517
		c-2.805,1.817-5.23,4.365-6.541,7.496c-0.727,1.539-1.051,3.216-1.285,4.881l-0.072,1.278l-0.037,0.631l0.031,0.635l0.062,1.264
		l0.188,1.255l0.098,0.625l0.156,0.615l0.314,1.227l0.438,1.185c0.072,0.198,0.139,0.396,0.221,0.592l0.273,0.567
		c0.68,1.547,1.648,2.936,2.693,4.238c1.074,1.289,2.328,2.401,3.67,3.372c1.387,0.906,2.84,1.714,4.395,2.235
		c1.562,0.502,3.131,0.885,4.775,0.9c1.605,0.078,3.229-0.057,4.768-0.406c0.771-0.18,1.518-0.442,2.193-0.817
		c0.668-0.372,1.273-0.878,1.613-1.539c0.332-0.644,0.408-1.443,0.211-2.139c-0.189-0.703-0.674-1.297-1.256-1.737
		c-1.195-0.872-2.676-1.269-4.119-1.508c-0.729-0.117-1.461-0.18-2.188-0.237c-0.361-0.016-0.723-0.033-1.082-0.049
		c-0.369-0.006-0.74-0.008-1.107-0.014c-2.857-0.028-5.66,0.57-8.211,1.495c-2.562,0.922-4.898,2.209-6.941,3.712
		c-0.496,0.393-1.027,0.734-1.479,1.164c-0.459,0.422-0.914,0.833-1.364,1.242c-0.812,0.903-1.641,1.764-2.29,2.727
		c-0.729,0.906-1.234,1.923-1.801,2.86c-0.424,1.013-0.93,1.961-1.18,2.967c-0.143,0.492-0.321,0.971-0.427,1.458
		c-0.089,0.487-0.175,0.966-0.261,1.438c-0.042,0.237-0.084,0.469-0.126,0.698c-0.014,0.239-0.027,0.479-0.04,0.711
		c-0.026,0.469-0.053,0.93-0.079,1.381c-0.016,1.76,0.145,3.425,0.455,4.859c0.322,1.433,0.787,2.665,1.374,3.612
		c0.585,0.956,1.265,1.615,1.88,2.024c0.616,0.411,1.159,0.578,1.509,0.65c0.287,0.053,0.56,0.045,0.546,0.047
		c0.278,0.016,0.489,0.256,0.471,0.537C144.408,266.559,144.17,266.772,143.892,266.757"/>
	<path fill="#8F7A5B" d="M154.834,225.243c0,0,0.012-0.06,0.033-0.183c0.025-0.122,0.066-0.307,0.135-0.536
		c0.121-0.459,0.355-1.117,0.742-1.914c0.373-0.803,0.951-1.714,1.725-2.673c0.818-0.914,1.818-1.898,3.117-2.693
		c0.303-0.229,0.666-0.38,1.006-0.567c0.355-0.172,0.695-0.401,1.078-0.539c0.762-0.286,1.533-0.648,2.383-0.833
		c0.422-0.112,0.848-0.229,1.275-0.345c0.439-0.07,0.885-0.138,1.334-0.211c0.898-0.188,1.826-0.227,2.771-0.291l0.711-0.047
		l0.18-0.014c0.09-0.002,0.127,0,0.193,0l0.355,0.006c0.473,0.008,0.953,0.016,1.432,0.021c0.484,0.016,0.979,0.078,1.473,0.114
		c0.496,0.042,0.996,0.084,1.482,0.164c1.977,0.237,3.939,0.714,5.887,1.209c0.961,0.271,1.936,0.523,2.887,0.812
		c0.951,0.3,1.893,0.602,2.832,0.898c1.863,0.602,3.695,1.195,5.469,1.769c0.893,0.271,1.764,0.55,2.627,0.784
		c0.43,0.12,0.855,0.242,1.277,0.359c0.424,0.102,0.844,0.2,1.254,0.302c0.828,0.217,1.643,0.359,2.432,0.503
		c0.783,0.161,1.555,0.224,2.291,0.325c0.736,0.112,1.449,0.112,2.125,0.159c0.672,0.039,1.322,0.039,1.916-0.003
		c1.197-0.067,2.234-0.275,3.059-0.513c0.832-0.229,1.453-0.505,1.863-0.706c0.408-0.203,0.604-0.333,0.604-0.333
		c0.088-0.062,0.217-0.036,0.279,0.055c0.062,0.094,0.037,0.219-0.055,0.281c-0.002,0-0.004,0-0.004,0s-0.227,0.144-0.66,0.341
		c-0.434,0.206-1.082,0.453-1.934,0.695c-0.848,0.242-1.904,0.443-3.131,0.542c-0.615,0.06-1.26,0.067-1.947,0.044
		c-0.686-0.031-1.41,0.003-2.158-0.083c-1.502-0.104-3.121-0.315-4.82-0.628c-0.422-0.075-0.852-0.156-1.287-0.236
		c-0.432-0.094-0.869-0.193-1.311-0.292c-0.887-0.183-1.779-0.425-2.689-0.656c-0.908-0.234-1.824-0.498-2.754-0.756
		c-0.92-0.278-1.854-0.56-2.795-0.846c-1.871-0.561-3.773-1.128-5.678-1.698c-0.955-0.24-1.904-0.529-2.865-0.729
		c-0.48-0.112-0.957-0.222-1.434-0.333c-0.477-0.089-0.957-0.18-1.432-0.269c-0.477-0.104-0.951-0.161-1.422-0.219
		c-0.473-0.058-0.938-0.138-1.412-0.172c-0.482-0.031-0.957-0.06-1.432-0.089l-0.355-0.023c-0.051-0.002-0.133-0.01-0.162-0.008
		l-0.174,0.003l-0.691,0.016c-0.924,0.019-1.836,0.013-2.713,0.151c-0.439,0.055-0.875,0.109-1.307,0.164
		c-0.422,0.096-0.84,0.192-1.25,0.289c-0.84,0.15-1.594,0.479-2.348,0.731c-0.381,0.12-0.715,0.331-1.064,0.487
		c-0.336,0.182-0.693,0.32-0.99,0.544c-1.271,0.753-2.264,1.69-3.066,2.576c-0.746,0.938-1.311,1.82-1.668,2.607
		c-0.357,0.781-0.568,1.422-0.676,1.867c-0.062,0.224-0.094,0.391-0.115,0.503c-0.021,0.114-0.029,0.177-0.029,0.177l-0.002,0.011
		c-0.02,0.109-0.123,0.185-0.23,0.164c-0.111-0.016-0.186-0.12-0.168-0.232L154.834,225.243"/>
	<path fill="#8F7A5B" d="M144.172,33.155v28.627c0,0.111-0.09,0.2-0.201,0.2"/>
	<path fill="#8F7A5B" d="M143.971,61.982c-0.111,0-0.201-0.089-0.201-0.2V33.155"/>
	<path fill="#8F7A5B" d="M138.984,53.57c-0.084,0-0.162-0.052-0.191-0.136l-4.116-11.8c-0.037-0.105,0.019-0.22,0.125-0.258
		c0.104-0.037,0.219,0.02,0.256,0.125l4.115,11.802c0.037,0.104-0.018,0.219-0.123,0.256
		C139.028,53.566,139.005,53.57,138.984,53.57"/>
	<path fill="#8F7A5B" d="M148.91,53.57c-0.021,0-0.043-0.004-0.066-0.012c-0.104-0.037-0.158-0.151-0.123-0.256l4.117-11.802
		c0.037-0.105,0.152-0.161,0.254-0.125c0.109,0.038,0.162,0.152,0.125,0.258l-4.115,11.8C149.074,53.518,148.994,53.57,148.91,53.57
		"/>
</g>
</svg>
